<svg width="23" height="26" viewBox="0 0 23 26" fill="none" xmlns="http://www.w3.org/2000/svg">
<path d="M13.8056 3.08967L18.8725 6.03634C19.0253 5.87384 19.2039 5.733 19.405 5.61384C19.9565 5.29489 20.6111 5.20906 21.2253 5.37516C21.8395 5.54126 22.3633 5.94575 22.6819 6.5C22.8735 6.83664 22.9818 7.21473 22.9979 7.60239C23.014 7.99005 22.9372 8.37591 22.7742 8.72746C22.6111 9.079 22.3665 9.38591 22.061 9.62232C21.7555 9.85872 21.398 10.0177 21.0187 10.0858V15.9142C21.4023 15.9836 21.7632 16.1462 22.0702 16.3879C22.3773 16.6295 22.6212 16.9429 22.7808 17.3009C22.9405 17.6588 23.011 18.0506 22.9864 18.4422C22.9618 18.8339 22.8427 19.2136 22.6395 19.5484C22.4363 19.8832 22.155 20.1631 21.8202 20.3638C21.4853 20.5645 21.1069 20.68 20.7177 20.7002C20.3286 20.7204 19.9404 20.6447 19.5868 20.4797C19.2332 20.3148 18.9249 20.0655 18.6886 19.7535L13.712 22.646C13.8654 23.0133 13.9262 23.413 13.8891 23.8097C13.852 24.2064 13.7181 24.5877 13.4993 24.9197C13.2805 25.2517 12.9836 25.524 12.635 25.7125C12.2864 25.901 11.8969 25.9997 11.5012 26C11.1217 26.0009 10.7475 25.911 10.4092 25.7377C10.071 25.5644 9.77848 25.3127 9.55577 25.0033C9.33306 24.6938 9.18653 24.3355 9.12825 23.9579C9.06997 23.5803 9.10161 23.1941 9.22055 22.8312L4.18801 19.9052C3.93966 20.184 3.63034 20.4008 3.28449 20.5385C2.93863 20.6763 2.5657 20.7312 2.19516 20.6988C1.82462 20.6665 1.46662 20.5479 1.14944 20.3523C0.832249 20.1567 0.564563 19.8896 0.367521 19.5719C0.170478 19.2543 0.0494775 18.8948 0.0140747 18.522C-0.0213282 18.1491 0.0298368 17.7731 0.163528 17.4236C0.29722 17.0741 0.509777 16.7607 0.78441 16.5082C1.05904 16.2556 1.38823 16.0708 1.74597 15.9683L1.74705 10.0317C1.39578 9.93152 1.07182 9.75203 0.799787 9.50685C0.527759 9.26167 0.31483 8.95725 0.177191 8.61674C0.039552 8.27624 -0.0191727 7.90861 0.00548231 7.54182C0.0301373 7.17503 0.137523 6.81872 0.319473 6.5C0.500619 6.18497 0.750065 5.91518 1.0492 5.71078C1.34834 5.50638 1.68945 5.37263 2.04708 5.31952C2.40471 5.2664 2.76964 5.29529 3.11464 5.40403C3.45964 5.51276 3.77581 5.69854 4.03955 5.9475L9.16569 2.96617C9.0827 2.61168 9.08049 2.24287 9.15922 1.8874C9.23795 1.53193 9.39558 1.19902 9.62029 0.913638C9.84499 0.628257 10.1309 0.397811 10.4567 0.239581C10.7825 0.0813519 11.1396 -0.000554295 11.5012 4.93028e-06C11.8737 -0.000753313 12.2412 0.0859577 12.5746 0.253251C12.908 0.420545 13.198 0.663813 13.4217 0.963734C13.6454 1.26366 13.7966 1.61197 13.8632 1.98101C13.9298 2.35005 13.9101 2.72965 13.8056 3.08967V3.08967ZM13.2752 4.043C13.2214 4.1015 13.1644 4.15784 13.1063 4.21092L19.8601 15.9922L19.9343 15.9705V10.0263C19.6269 9.9366 19.3405 9.7858 19.092 9.58279C18.8434 9.37977 18.6378 9.12865 18.4873 8.84426C18.3368 8.55987 18.2444 8.24798 18.2156 7.92702C18.1868 7.60606 18.2221 7.28255 18.3196 6.97559L13.2741 4.04084L13.2752 4.043ZM9.74661 4.06359C9.71206 4.02602 9.67869 3.98736 9.64657 3.94767L4.64199 6.8575C4.76572 7.18809 4.81583 7.542 4.7888 7.89424C4.76177 8.24648 4.65824 8.58843 4.48555 8.89595C4.31285 9.20347 4.07519 9.46904 3.78937 9.6739C3.50355 9.87875 3.17654 10.0179 2.83144 10.0815V15.9163L2.93902 15.938L9.74554 4.06359H9.74661ZM12.1564 4.73959C11.6601 4.88115 11.1317 4.85836 10.6492 4.67459L3.91476 16.4168C4.29716 16.7297 4.57502 17.1532 4.71085 17.6302H18.2884C18.4038 17.22 18.6246 16.8479 18.9285 16.5512L12.1553 4.73959H12.1564ZM13.1773 21.8562L18.2755 18.8922C18.2609 18.836 18.2483 18.7793 18.2378 18.7222H4.76463C4.75065 18.798 4.73236 18.8738 4.71192 18.9475L9.78534 21.8974C10.22 21.4478 10.8289 21.1694 11.5023 21.1694C12.1553 21.1694 12.7459 21.4316 13.1784 21.8562H13.1773Z" fill="black"/>
<circle cx="11.5312" cy="2.4834" r="1.5" fill="#D3B155"/>
<circle cx="2.43164" cy="18.3838" r="1.5" fill="#D3B155"/>
<circle cx="20.582" cy="18.3838" r="1.5" fill="#D3B155"/>
</svg>
