<svg width="83" height="41" viewBox="0 0 83 41" fill="none" xmlns="http://www.w3.org/2000/svg">
<g clip-path="url(#clip0_12_14)">
<rect width="83" height="41" fill="white"/>
<path d="M79.4236 13.2435C81.7332 11.5479 83.0974 8.85394 83.0974 5.98874L83.0974 -84H11.8183C5.2912 -84 -3.05176e-05 -78.7088 -3.05176e-05 -72.1817V-72.1817C-3.05176e-05 -67.5664 -3.05176e-05 -60.3634 -3.05176e-05 -60.3634C-3.05176e-05 -60.3634 -3.05176e-05 -60.3634 -3.05176e-05 -60.3634V-36.7268V5.98874C-3.05176e-05 8.85394 1.36422 11.5479 3.67382 13.2435L36.2225 37.1393C39.3921 39.4663 43.7053 39.4663 46.8748 37.1393L79.4236 13.2435Z" fill="url(#paint0_linear_12_14)"/>
<path d="M14.1184 11.1988L38.3302 29.8421C40.1185 31.219 42.6075 31.2273 44.4048 29.8623L68.9789 11.1988" stroke="#F3F2F2"/>
<path d="M14.1184 6.3584L38.3302 25.0017C40.1185 26.3786 42.6075 26.3869 44.4048 25.0218L68.9789 6.3584" stroke="#F3F2F2"/>
</g>
<defs>
<linearGradient id="paint0_linear_12_14" x1="42.1338" y1="-84" x2="41.0943" y2="41.0458" gradientUnits="userSpaceOnUse">
<stop stop-color="#30688E"/>
<stop offset="0.161458" stop-color="#7AAFD4"/>
<stop offset="0.338542" stop-color="#0169AE"/>
</linearGradient>
<clipPath id="clip0_12_14">
<rect width="83" height="41" fill="white"/>
</clipPath>
</defs>
</svg>
