<svg width="58" height="58" viewBox="0 0 58 58" fill="none" xmlns="http://www.w3.org/2000/svg">
<path d="M31.4059 26.835C31.2316 26.6606 30.9516 26.6606 30.3908 26.6606L26.8231 26.6606C26.2624 26.6606 25.9823 26.6606 25.8081 26.835C25.6339 27.0095 25.6339 27.2898 25.6339 27.8511C25.6339 28.4124 25.6339 28.6928 25.8081 28.8672C25.9823 29.0416 26.2624 29.0416 26.8231 29.0416L30.3908 29.0416C30.9516 29.0416 31.2316 29.0416 31.4059 28.8672C31.5801 28.6928 31.5801 28.4124 31.5801 27.8511C31.5801 27.2898 31.5801 27.0095 31.4059 26.835Z" fill="#D3B155"/>
<path opacity="0.4" d="M35.568 35.1684C35.3937 34.994 35.1137 34.994 34.553 34.994L26.8229 34.994C26.2622 34.994 25.9821 34.994 25.8079 35.1684C25.6337 35.3428 25.6337 35.6232 25.6337 36.1845C25.6337 36.7458 25.6337 37.0261 25.8079 37.2005C25.9821 37.3749 26.2622 37.3749 26.8229 37.3749L34.553 37.3749C35.1137 37.3749 35.3937 37.3749 35.568 37.2005C35.7422 37.0261 35.7422 36.7458 35.7422 36.1845C35.7422 35.6232 35.7422 35.3428 35.568 35.1684Z" fill="white"/>
<path opacity="0.7" d="M32.7697 30.8273C33.3305 30.8273 33.6105 30.8273 33.7848 31.0017C33.959 31.1761 33.959 31.4564 33.959 32.0177C33.959 32.5791 33.959 32.8594 33.7848 33.0338C33.6105 33.2082 33.3305 33.2082 32.7697 33.2082L26.8236 33.2082C26.2628 33.2082 25.9828 33.2082 25.8085 33.0338C25.6343 32.8594 25.6343 32.5791 25.6343 32.0177C25.6343 31.4564 25.6343 31.1761 25.8085 31.0017C25.9828 30.8273 26.2628 30.8273 26.8236 30.8273L32.7697 30.8273Z" fill="white"/>
<path d="M24.2949 26.6607C24.2949 26.5423 24.2479 26.4287 24.1642 26.345C24.0804 26.2613 23.9669 26.2142 23.8485 26.2142C23.7301 26.2142 23.6165 26.2613 23.5328 26.345C23.4491 26.4287 23.4021 26.5423 23.4021 26.6607L23.4021 37.3749C23.4021 37.4933 23.4491 37.6069 23.5328 37.6906C23.6165 37.7743 23.7301 37.8214 23.8485 37.8214C23.9669 37.8214 24.0804 37.7743 24.1642 37.6906C24.2479 37.6069 24.2949 37.4933 24.2949 37.3749L24.2949 26.6607Z" fill="white"/>
<path d="M37.3177 18.7857H34.5349V17.8571C34.5349 17.3646 34.3395 16.8922 33.9915 16.5439C33.6436 16.1957 33.1717 16 32.6797 16H25.2589C24.7668 16 24.2949 16.1957 23.947 16.5439C23.5991 16.8922 23.4037 17.3646 23.4037 17.8571V18.7857H20.6208C20.1288 18.7857 19.6569 18.9814 19.309 19.3297C18.9611 19.6779 18.7656 20.1503 18.7656 20.6429V40.1429C18.7656 40.6354 18.9611 41.1078 19.309 41.4561C19.6569 41.8043 20.1288 42 20.6208 42H37.3177C37.8098 42 38.2816 41.8043 38.6296 41.4561C38.9775 41.1078 39.1729 40.6354 39.1729 40.1429V20.6429C39.1729 20.1503 38.9775 19.6779 38.6296 19.3297C38.2816 18.9814 37.8098 18.7857 37.3177 18.7857ZM25.2589 17.8571H32.6797V21.5714H25.2589V17.8571ZM37.3177 40.1429H20.6208V20.6429H23.4037V23.4286H34.5349V20.6429H37.3177V40.1429Z" fill="white"/>
<path d="M28.9698 49.2782C35.3722 49.2782 41.0502 46.3709 44.7584 41.6611L52.2905 46.1093C49.6098 49.793 46.1007 52.7898 42.0484 54.8559C37.9961 56.9221 33.5151 57.9993 28.9698 58C12.9495 58 1.22184e-05 44.9173 1.22184e-05 28.9273C-0.00658513 21.7182 2.65872 14.7642 7.47762 9.41774C12.2965 4.07125 18.9246 0.714417 26.0728 0V8.80902C16.2521 10.2336 8.69096 18.6647 8.69096 28.9273C8.69096 34.3247 10.8275 39.501 14.6305 43.3176C18.4335 47.1341 23.5915 49.2782 28.9698 49.2782Z" fill="white"/>
<path d="M57.94 28.9273C57.94 13.8677 46.4969 1.45363 31.8672 0V8.80902C41.688 10.2336 49.2491 18.6647 49.2491 28.9273C49.2491 31.5439 48.7276 34.015 47.8006 36.3118L55.3907 40.7599C57.013 37.1549 57.94 33.1429 57.94 28.9273Z" fill="#D3B155"/>
</svg>
