<svg width="30" height="71" viewBox="0 0 30 71" fill="none" xmlns="http://www.w3.org/2000/svg">
<path d="M14.9711 17.2121C8.82582 11.0312 0 0 0 0V71C0 71 8.31615 61.4338 12.8324 55.9394C20.8205 46.2212 33.9244 41.6623 28.8729 30.1212C25.7426 22.9693 20.4645 22.7373 14.9711 17.2121Z" fill="#21326B"/>
<path d="M9.90712 35.5L15.3135 29.2775C15.6985 28.8344 15.67 28.1675 15.2484 27.7589V27.7589C14.8143 27.3381 14.1226 27.3442 13.696 27.7726L6.08314 35.4165C6.03717 35.4627 6.03717 35.5373 6.08314 35.5835L13.6949 43.2263C14.1199 43.6531 14.8109 43.6531 15.2359 43.2263V43.2263C15.637 42.8236 15.6603 42.1799 15.2894 41.7493L9.90712 35.5Z" fill="#D3B155"/>
</svg>
