<svg width="23" height="23" viewBox="0 0 23 23" fill="none" xmlns="http://www.w3.org/2000/svg">
<path d="M0 20.7744C0 21.8536 0.498333 23.0002 1.15 23.0002H21.85C22.4633 23.0002 23 21.8536 23 20.7744H0Z" fill="white"/>
<path d="M21.0833 17.8066H1.91667L0 20.7744H23L21.0833 17.8066Z" fill="#2F4489"/>
<path d="M20.2672 17.8066H2.72869L2.08887 19.2905H20.907L20.2672 17.8066Z" fill="#D3B155"/>
<path d="M13.0079 20.0322H9.99554L9.75928 20.7742H13.2441L13.0079 20.0322Z" fill="#E4F7FF"/>
<path d="M2.875 3.5918H20.5083V17.1591H2.875V3.5918Z" fill="#2F4489"/>
<path d="M13.0621 21.712H9.76542C9.65042 21.712 9.34375 21.712 9.34375 21.2559H13.4838C13.4838 21.712 13.1771 21.712 13.0621 21.712Z" fill="black"/>
<path d="M9.87913 9.83093H13.1103M9.87913 12.0567H11.4947M7.18652 4.82286V13.7261C7.18652 14.0213 7.3 14.3043 7.50198 14.513C7.70397 14.7217 7.97792 14.839 8.26357 14.839H14.7258C15.0115 14.839 15.2854 14.7217 15.4874 14.513C15.6894 14.3043 15.8029 14.0213 15.8029 13.7261V7.23898C15.8029 7.09072 15.7742 6.94395 15.7185 6.80731C15.6628 6.67066 15.5813 6.54689 15.4787 6.44325L13.0876 4.02714C12.8864 3.82384 12.6162 3.71 12.3348 3.70996H8.26357C7.97792 3.70996 7.70397 3.82721 7.50198 4.03592C7.3 4.24463 7.18652 4.5277 7.18652 4.82286V4.82286Z" stroke="#D3B155" stroke-width="1.2" stroke-linecap="round" stroke-linejoin="round"/>
<path d="M12.583 3.70996V5.93577C12.583 6.23093 12.6965 6.514 12.8985 6.72271C13.1005 6.93142 13.3744 7.04867 13.6601 7.04867H15.8141" stroke="#D3B155" stroke-width="1.2" stroke-linejoin="round"/>
<rect x="1" y="1" width="21" height="16.5484" rx="1" stroke="white" stroke-width="2"/>
</svg>
