<svg width="123" height="45" viewBox="0 0 123 45" fill="none" xmlns="http://www.w3.org/2000/svg">
<path fill-rule="evenodd" clip-rule="evenodd" d="M2.72173 22.8415L2.21484 22.3655C3.11245 21.4892 4.35854 20.9482 5.73134 20.9482C7.11471 20.9482 8.35024 21.4892 9.24784 22.3547L8.74096 22.8307C7.98063 22.0842 6.91407 21.619 5.73134 21.619C4.54862 21.6298 3.48205 22.095 2.72173 22.8415ZM4.48526 24.4968L3.99949 24.0424C4.44302 23.6097 5.0555 23.35 5.73134 23.35C6.40719 23.35 7.01967 23.6205 7.46319 24.0424L6.97743 24.4968C6.66063 24.183 6.2171 23.9883 5.73134 23.9883C5.24558 23.9883 4.80206 24.183 4.48526 24.4968ZM5.73134 25.6652L4.8443 24.8322C5.07662 24.6158 5.38286 24.4752 5.73134 24.4752C6.07982 24.4752 6.39663 24.6158 6.61839 24.8322L5.73134 25.6652ZM5.73134 22.8415C6.55503 22.8415 7.29423 23.1661 7.83279 23.6854L8.39248 23.1661C7.71663 22.5061 6.77679 22.095 5.73134 22.095C4.69646 22.095 3.75661 22.5061 3.07021 23.1661L3.62989 23.6854C4.16845 23.1661 4.90766 22.8415 5.73134 22.8415Z" fill="#2361AB"/>
<path fill-rule="evenodd" clip-rule="evenodd" d="M2.41541 26.2178H8.99433C4.27398 37.6532 3.46086 44.3392 8.234 44.1661C-2.26269 44.7611 -0.911004 34.981 2.41541 26.2178Z" fill="#2161AE"/>
<path fill-rule="evenodd" clip-rule="evenodd" d="M8.4668 8.71303C14.4649 -0.656002 24.1907 -1.59723 31.1287 1.79985C38.8164 5.58641 41.2135 14.3388 39.281 22.0309C37.5914 29.0523 32.7549 35.4678 26.5245 39.5897C22.7334 42.0456 18.4566 43.69 13.7891 44.4149C17.2844 43.4087 20.3997 41.3207 22.8496 38.7567C24.3597 37.1988 25.7008 35.4137 26.7568 33.5745C30.305 28.9982 31.9418 24.5409 32.058 20.6461C32.2903 15.399 29.9037 10.2168 24.8982 7.82589C20.5264 5.70542 14.6444 5.81361 8.4668 8.71303Z" fill="#F47533"/>
<path fill-rule="evenodd" clip-rule="evenodd" d="M3.92465 19.2509C8.82452 10.0009 18.8988 9.33009 24.8441 13.3438C27.2307 14.9558 28.7513 17.2386 29.4483 19.9757C30.2614 23.3728 29.6806 26.943 28.3395 30.286C27.1779 33.2936 25.2454 36.3012 22.8588 38.7571C19.4796 42.3273 14.6431 45.0536 9.45812 44.9995C7.47283 44.9995 5.4981 44.5559 3.57617 43.4957C6.02611 44.61 9.80661 44.2205 12.1404 43.3226C15.9842 41.8188 19.0678 38.703 21.0003 35.241C23.3868 31.0109 25.256 24.2059 21.4649 20.3003C18.0223 16.6868 11.1477 15.4643 3.92465 19.2509Z" fill="#27904E"/>
<path d="M118.894 24.5739L120.066 21.3932C119.928 21.3824 119.781 21.3716 119.643 21.3716C118.851 21.3716 118.197 21.6096 117.69 22.0965C117.183 22.5833 116.834 23.1783 116.676 23.8815C116.581 24.2818 116.602 24.5956 116.718 24.8228C116.834 25.05 117.046 25.169 117.352 25.169C117.827 25.169 118.344 24.9634 118.894 24.5739ZM122.579 19.9435L120.161 26.5105H118.186L118.418 25.8938C117.679 26.3915 116.982 26.6403 116.327 26.6403C115.662 26.6403 115.155 26.3699 114.838 25.8397C114.522 25.2988 114.458 24.6172 114.648 23.7734C114.923 22.5725 115.567 21.5988 116.56 20.8523C117.563 20.095 118.841 19.7163 120.393 19.7163C121.164 19.7271 121.893 19.7921 122.579 19.9435ZM114.511 19.8353L112.051 26.5105H110.076L112.536 19.8353H114.511ZM113.149 17.9853C113.212 17.704 113.371 17.4552 113.613 17.2605C113.856 17.0549 114.12 16.9575 114.405 16.9575C114.691 16.9575 114.912 17.0549 115.071 17.2605C115.219 17.4552 115.271 17.704 115.197 17.9853C115.134 18.2774 114.976 18.5154 114.733 18.721C114.49 18.9266 114.215 19.0239 113.93 19.0239C113.645 19.0239 113.434 18.9266 113.276 18.721C113.128 18.5154 113.075 18.2666 113.149 17.9853ZM106.929 24.9526L108.207 21.4798C108.048 21.4581 107.879 21.4473 107.71 21.4473C107.003 21.4473 106.401 21.6421 105.905 22.0207C105.398 22.4102 105.092 22.8754 104.954 23.4488C104.849 23.9356 104.912 24.3143 105.165 24.5956C105.419 24.8769 105.82 25.0175 106.369 25.0175C106.507 25.0283 106.697 25.0067 106.929 24.9526ZM112.019 16.4815L108.355 26.4239C107.478 26.5646 106.697 26.6403 106.021 26.6403C104.849 26.6403 103.972 26.3482 103.412 25.7748C102.853 25.1906 102.684 24.4225 102.906 23.438C103.138 22.4102 103.719 21.5339 104.627 20.809C105.535 20.0842 106.623 19.7163 107.879 19.7163C108.08 19.7163 108.397 19.738 108.83 19.7812L110.044 16.4707H112.019V16.4815ZM98.502 19.8353L98.2169 20.5926C99.0934 20.0084 99.9065 19.7271 100.677 19.7271C101.258 19.7271 101.67 19.9002 101.892 20.2681C102.124 20.6251 102.156 21.1336 102.008 21.7827C101.966 21.9774 101.913 22.1722 101.828 22.3886L100.308 26.5213H98.3331L99.7904 22.5292C99.8432 22.421 99.8748 22.302 99.896 22.183C100.044 21.5231 99.9171 21.1877 99.5052 21.1877C99.03 21.1877 98.3964 21.5339 97.6044 22.2155L96.0204 26.5105H94.0351L96.5062 19.8353H98.502ZM95.6931 16.4815L91.997 26.5105H89.8745L93.5705 16.4815H95.6931ZM87.4773 16.4815L83.7813 26.5105H81.8066L85.5026 16.4815H87.4773ZM78.7019 24.5739L79.8635 21.3932C79.7263 21.3824 79.5784 21.3716 79.4411 21.3716C78.6491 21.3716 77.9944 21.6096 77.4875 22.0965C76.9701 22.5833 76.6322 23.1783 76.4738 23.8815C76.3787 24.2818 76.3998 24.5956 76.516 24.8228C76.6322 25.05 76.8539 25.169 77.1496 25.169C77.6354 25.169 78.1422 24.9634 78.7019 24.5739ZM82.3874 19.9435L79.9691 26.5105H77.9944L78.2267 25.8938C77.4981 26.3915 76.8011 26.6403 76.1358 26.6403C75.46 26.6403 74.9637 26.3699 74.6574 25.8397C74.3406 25.2988 74.2773 24.6172 74.4674 23.7734C74.7419 22.5725 75.3861 21.5988 76.3893 20.8523C77.3925 20.095 78.6702 19.7163 80.2226 19.7163C80.9723 19.7271 81.701 19.7921 82.3874 19.9435ZM73.8126 18.4289L73.2107 19.8353H74.6785L74.0766 21.3067H72.6193L71.7429 23.4704C71.6689 23.6543 71.6056 23.8274 71.5739 23.9897C71.4366 24.5739 71.5739 24.8769 71.9646 24.8769C72.2075 24.8769 72.6193 24.747 73.2001 24.4766L72.7989 26.2292C72.1547 26.5105 71.5528 26.6511 71.0036 26.6511C70.3595 26.6511 69.9054 26.4456 69.6203 26.0345C69.3457 25.6234 69.2824 25.0932 69.4302 24.4441C69.4724 24.2494 69.5358 24.0438 69.6203 23.8599L70.6657 21.3175H69.3246L69.9054 19.8461H71.2465L71.8062 18.4397H73.8126V18.4289ZM68.9656 19.8353L66.5051 26.5105H64.5303L66.9908 19.8353H68.9656ZM67.6033 17.9853C67.6667 17.704 67.8251 17.4552 68.0679 17.2605C68.3108 17.0549 68.5748 16.9575 68.86 16.9575C69.1451 16.9575 69.3668 17.0549 69.5252 17.2605C69.6836 17.4552 69.7259 17.704 69.6625 17.9853C69.5992 18.2774 69.4408 18.5154 69.1979 18.721C68.955 18.9266 68.6804 19.0239 68.3953 19.0239C68.1102 19.0239 67.899 18.9266 67.7406 18.721C67.5822 18.5154 67.54 18.2666 67.6033 17.9853ZM61.1722 27.9818C61.2462 27.6681 60.9822 27.4517 60.3802 27.3219L59.5565 27.138C59.3665 27.138 59.1025 27.2029 58.7645 27.3219C58.4266 27.4517 58.2154 27.6465 58.1626 27.9169C58.057 28.3821 58.49 28.6093 59.4721 28.6093C60.0212 28.6093 60.4225 28.5661 60.697 28.4687C60.961 28.3821 61.1194 28.2199 61.1722 27.9818ZM61.0878 23.5678C61.8164 23.5678 62.281 23.0918 62.5028 22.1289C62.5662 21.8368 62.545 21.5988 62.4183 21.4257C62.2916 21.2526 62.0804 21.166 61.7953 21.166C61.0666 21.166 60.602 21.6529 60.3802 22.6374C60.2324 23.2649 60.4647 23.5678 61.0878 23.5678ZM65.8609 19.8353L65.3435 21.3067H64.2769C64.3614 21.6529 64.3719 22.0099 64.2875 22.3669C64.1291 23.0485 63.7489 23.6327 63.147 24.0979C62.5345 24.5739 61.8058 24.8011 60.9505 24.8011C60.5175 24.8011 60.2007 24.8228 60.0106 24.866C59.8205 24.9093 59.7044 25.0067 59.6727 25.169C59.6516 25.2555 59.6938 25.3313 59.7994 25.3962C59.905 25.4611 60.3697 25.5584 61.1828 25.6991C62.0065 25.8289 62.5556 26.0777 62.8407 26.4348C63.1258 26.781 63.2103 27.2137 63.0942 27.733C62.7668 29.1827 61.4574 29.9076 59.1764 29.9076C58.1309 29.9076 57.3706 29.7561 56.906 29.464C56.4413 29.1611 56.2724 28.7608 56.3885 28.2631C56.5364 27.6032 57.2017 27.1055 58.3738 26.7593C57.8247 26.4564 57.6241 26.0453 57.7402 25.526C57.8775 24.8985 58.4266 24.4874 59.3665 24.2927C58.7012 23.8383 58.4583 23.2 58.6484 22.3669C58.8068 21.6962 59.2081 21.1119 59.8734 20.6035C60.5386 20.1058 61.299 19.8461 62.1649 19.8461H65.8609V19.8353ZM57.9831 19.8353L55.5226 26.5105H53.5479L56.0084 19.8353H57.9831ZM56.6209 17.9853C56.6842 17.704 56.8426 17.4552 57.0855 17.2605C57.3389 17.0549 57.5924 16.9575 57.8775 16.9575C58.1626 16.9575 58.3844 17.0549 58.5322 17.2605C58.6906 17.4552 58.7329 17.704 58.6695 17.9853C58.6061 18.2774 58.4477 18.5154 58.2049 18.721C57.9514 18.9266 57.6874 19.0239 57.4023 19.0239C57.1172 19.0239 56.906 18.9266 56.7476 18.721C56.5997 18.5154 56.5575 18.2666 56.6209 17.9853ZM47.9299 18.1584L45.48 24.8336H47.4653C48.5107 24.8336 49.3978 24.509 50.137 23.8491C50.8762 23.1891 51.3619 22.3561 51.5943 21.3391C51.8055 20.3979 51.6787 19.6298 51.2141 19.0456C50.7495 18.4614 49.9891 18.1584 48.9542 18.1584H47.9299ZM46.4304 16.4815H49.7463C51.4147 16.4815 52.5869 16.9359 53.2628 17.8447C53.9386 18.7535 54.1181 19.9219 53.7802 21.3608C53.4423 22.8429 52.7136 24.0655 51.5837 25.05C50.4538 26.0237 49.2288 26.5105 47.8877 26.5105H42.7344L46.4304 16.4815Z" fill="white"/>
<path d="M54.0318 27.5273H41.3809V28.2204H54.0318V27.5273Z" fill="white"/>
<path d="M121.784 27.5273H64.2207V28.2204H121.784V27.5273Z" fill="white"/>
<path d="M43.5801 33.3691H44.7101C45.0797 33.3691 45.4704 33.3042 45.7661 33.0661C46.0301 32.8498 46.1251 32.5577 46.1251 32.2331C46.1251 31.9085 46.0301 31.6056 45.7661 31.3892C45.4704 31.1512 45.0797 31.0863 44.7101 31.0863H43.5801V33.3691ZM43.5801 33.9749V36.5281H42.9043V30.4805H44.5728C45.1536 30.4805 45.7661 30.5887 46.2307 30.9457C46.6531 31.2702 46.8432 31.7138 46.8432 32.2331C46.8432 32.7524 46.6531 33.196 46.2307 33.5205C45.7555 33.8776 45.1536 33.9749 44.5728 33.9749H43.5801Z" fill="white"/>
<path d="M49.5563 35.9545C49.9998 35.9545 50.3694 35.7922 50.6651 35.4892C50.9819 35.1755 51.1297 34.7968 51.1297 34.3641C51.1297 33.9313 50.9819 33.5527 50.6651 33.2281C50.3589 32.9252 49.9893 32.7629 49.5563 32.7629C49.1128 32.7629 48.7432 32.9144 48.4475 33.2281C48.1307 33.5419 47.9829 33.9205 47.9829 34.3641C47.9829 34.7968 48.1307 35.1755 48.4475 35.4892C48.7432 35.7922 49.1128 35.9545 49.5563 35.9545ZM49.5563 36.5495C48.9333 36.5495 48.3947 36.3656 47.9512 35.9436C47.5076 35.5109 47.3281 34.9699 47.3281 34.3641C47.3281 33.7691 47.5076 33.2281 47.9512 32.7954C48.3841 32.3626 48.9333 32.1787 49.5563 32.1787C50.1793 32.1787 50.7285 32.3626 51.1614 32.7954C51.6049 33.2281 51.7845 33.7691 51.7845 34.3641C51.7845 34.9699 51.6049 35.5001 51.1614 35.9436C50.7179 36.3547 50.1793 36.5495 49.5563 36.5495Z" fill="white"/>
<path d="M54.4353 35.4565L55.692 32.0811H56.1038L57.371 35.4457L58.691 32.146H59.3246L57.54 36.5384H57.1387L55.882 33.2387L54.6254 36.5384H54.2241L52.4395 32.146H53.1153L54.4353 35.4565Z" fill="white"/>
<path d="M63.1056 33.8231C63.0528 33.5959 62.9578 33.3795 62.7994 33.1956C62.546 32.9035 62.2186 32.7845 61.8279 32.7845C61.4477 32.7845 61.1309 32.9576 60.888 33.2389C60.7402 33.4228 60.6346 33.6175 60.5607 33.8339H63.1056V33.8231ZM60.4973 34.3424C60.4973 34.7751 60.6663 35.143 60.9831 35.4567C61.3104 35.7705 61.6906 35.9219 62.1447 35.9219C62.4087 35.9219 62.6727 35.8786 62.9261 35.7921C63.1901 35.6947 63.433 35.5541 63.6548 35.381L63.8132 35.262V35.9436L63.7815 35.9652C63.5492 36.1491 63.2852 36.3114 62.9895 36.4196C62.7149 36.517 62.4192 36.5602 62.1236 36.5602C61.49 36.5602 60.9303 36.3763 60.4762 35.9436C60.0221 35.5108 59.832 34.9807 59.832 34.3748C59.832 33.8014 59.9799 33.2497 60.3812 32.8061C60.7508 32.3842 61.2365 32.1895 61.8068 32.1895C62.377 32.1895 62.905 32.3517 63.2852 32.7628C63.6653 33.174 63.7815 33.7257 63.7921 34.2667V34.364H60.4973V34.3424Z" fill="white"/>
<path d="M65.8727 32.7852C66.2845 32.1577 67.0448 31.8547 67.7735 32.255C67.784 32.2659 67.8052 32.2767 67.8263 32.2875V32.3416V32.796V32.9907C67.7735 32.9474 67.8157 33.0123 67.7735 32.9691C66.728 32.4173 66.0944 33.2179 65.8832 33.748V36.5176H65.2285V36.4202V32.2118V32.1144H65.3236H65.5453H65.7671H65.8727V32.7852Z" fill="white"/>
<path d="M72.4932 31.0967H70.4551V30.5449H75.2177V31.0967H73.1796V36.4736H72.4932V31.0967Z" fill="white"/>
<path d="M83.5809 31.1936V33.1301H86.1576V33.7035H83.5809V35.8781H86.6328V36.4515H82.8945V30.6094H86.5272V31.1936H83.5809Z" fill="white"/>
<path d="M88.5028 32.6857C88.8302 32.3287 89.2526 32.1123 89.7806 32.1123C90.2558 32.1123 90.6571 32.2529 90.9739 32.5775C91.0795 32.6857 91.1639 32.8047 91.2379 32.9345L91.3329 32.7939C91.6708 32.372 92.1143 32.1231 92.6951 32.1231C93.1598 32.1231 93.5716 32.2638 93.8884 32.5883C94.2158 32.9237 94.3425 33.3456 94.3425 33.7892V36.4182H93.6772V33.8217C93.6772 33.5296 93.6033 33.2483 93.3816 33.0319C93.1704 32.8263 92.9064 32.7398 92.6107 32.7398C92.1988 32.7398 91.8926 32.9562 91.6286 33.2266C91.5441 33.3132 91.4702 33.4106 91.4068 33.5079V36.4182H90.7415V33.8217C90.7415 33.5296 90.6676 33.2483 90.4459 33.0211C90.2347 32.8155 89.9812 32.729 89.675 32.729C89.2631 32.729 88.9463 32.9453 88.6929 33.2158C88.6084 33.3024 88.545 33.3997 88.4817 33.4971V36.4073H87.8164V32.2097H88.4817V32.6857H88.5028Z" fill="white"/>
<path d="M95.7793 32.2103H96.4446C96.4446 32.3834 96.4446 32.5565 96.4446 32.7296C96.5713 32.4916 96.8247 32.3401 97.0782 32.2536C97.8702 31.9831 98.8312 32.0913 99.4331 32.6863C100.257 33.5951 100.215 35.0665 99.4648 35.8779C98.6727 36.7325 97.4689 36.527 96.5185 36.051C96.4974 36.0401 96.4657 36.0293 96.4446 36.0077V38.0633H95.7793V32.2103ZM98.4932 32.9568C97.9335 32.6106 97.131 32.6972 96.4763 33.541V35.2504C97.1627 35.9536 98.0391 36.0185 98.6094 35.6074C99.4648 34.9907 99.4225 33.5302 98.4932 32.9568Z" fill="white"/>
<path d="M77.0368 35.8461C77.4803 35.8461 77.8499 35.6947 78.1456 35.3809C78.4624 35.0672 78.6102 34.6885 78.6102 34.2558C78.6102 33.823 78.4624 33.4444 78.1456 33.1306C77.8393 32.8169 77.4803 32.6654 77.0368 32.6654C76.5932 32.6654 76.2342 32.8169 75.928 33.1306C75.6112 33.4444 75.4633 33.823 75.4633 34.2558C75.4633 34.6885 75.6112 35.0672 75.928 35.3809C76.2236 35.6838 76.5932 35.8461 77.0368 35.8461ZM77.0368 36.4412C76.4137 36.4412 75.8646 36.2572 75.4316 35.8245C74.9881 35.3917 74.8086 34.8508 74.8086 34.2558C74.8086 33.6607 74.9881 33.109 75.4316 32.6762C75.8646 32.2435 76.4137 32.0596 77.0368 32.0596C77.6598 32.0596 78.2089 32.2435 78.6419 32.6762C79.0854 33.109 79.2649 33.6499 79.2649 34.2558C79.2649 34.8616 79.0749 35.3917 78.6419 35.8245C78.1984 36.2464 77.6598 36.4412 77.0368 36.4412Z" fill="white"/>
<path d="M103.099 35.8461C103.543 35.8461 103.902 35.6947 104.208 35.3809C104.525 35.0672 104.673 34.6885 104.673 34.2558C104.673 33.823 104.525 33.4444 104.208 33.1306C103.912 32.8169 103.543 32.6654 103.099 32.6654C102.656 32.6654 102.286 32.8169 101.98 33.1306C101.663 33.4444 101.515 33.823 101.515 34.2558C101.515 34.6885 101.663 35.0672 101.98 35.3809C102.297 35.6838 102.656 35.8461 103.099 35.8461ZM103.099 36.4412C102.476 36.4412 101.927 36.2572 101.494 35.8245C101.051 35.3917 100.871 34.8508 100.871 34.2558C100.871 33.6607 101.051 33.109 101.494 32.6762C101.927 32.2435 102.476 32.0596 103.099 32.0596C103.722 32.0596 104.261 32.2435 104.704 32.6762C105.148 33.109 105.327 33.6499 105.327 34.2558C105.327 34.8616 105.137 35.3917 104.704 35.8245C104.271 36.2464 103.722 36.4412 103.099 36.4412Z" fill="white"/>
<path d="M107.987 35.4995L109.233 32.124H109.645L110.912 35.4886L112.243 32.1889H112.876L111.092 36.5705H110.68L109.423 33.2816L108.177 36.5705H107.765L105.98 32.1889H106.656L107.987 35.4995Z" fill="white"/>
<path d="M116.644 33.8231C116.602 33.5959 116.507 33.3795 116.338 33.1956C116.095 32.9035 115.757 32.7845 115.366 32.7845C114.975 32.7845 114.669 32.9576 114.426 33.2389C114.278 33.4228 114.173 33.6175 114.099 33.8339H116.644V33.8231ZM114.036 34.3424C114.036 34.7751 114.194 35.143 114.521 35.4567C114.849 35.7705 115.229 35.9219 115.683 35.9219C115.947 35.9219 116.222 35.8786 116.464 35.7921C116.728 35.6947 116.971 35.5541 117.193 35.381L117.351 35.262V35.9436L117.32 35.9652C117.087 36.1491 116.823 36.3114 116.528 36.4196C116.253 36.517 115.958 36.5602 115.662 36.5602C115.028 36.5602 114.469 36.3763 114.014 35.9436C113.56 35.5108 113.381 34.9807 113.381 34.3748C113.381 33.8014 113.529 33.2497 113.93 32.8061C114.3 32.3842 114.785 32.1895 115.366 32.1895C115.936 32.1895 116.454 32.3517 116.834 32.7628C117.214 33.174 117.33 33.7257 117.341 34.2667V34.364H114.036V34.3424Z" fill="white"/>
<path d="M119.412 32.7412C119.834 32.1137 120.584 31.8108 121.313 32.2111C121.334 32.2219 121.344 32.2327 121.365 32.2435V32.2976V32.752V32.9468C121.313 32.9035 121.355 32.9684 121.302 32.9251C120.257 32.3734 119.623 33.174 119.412 33.7041V36.4737H118.768V36.3871V32.1678V32.0704H118.863H119.084H119.306H119.401V32.7412H119.412Z" fill="white"/>
</svg>
