<svg width="30" height="71" viewBox="0 0 30 71" fill="none" xmlns="http://www.w3.org/2000/svg">
<path d="M14.9711 17.2121C8.82582 11.0312 0 0 0 0V71C0 71 8.31615 61.4338 12.8324 55.9394C20.8205 46.2212 33.9244 41.6623 28.8729 30.1212C25.7426 22.9693 20.4645 22.7373 14.9711 17.2121Z" fill="#21326B"/>
<path d="M12.0929 35.5L6.6865 29.2775C6.30146 28.8344 6.33004 28.1675 6.75159 27.7589V27.7589C7.18573 27.3381 7.87739 27.3442 8.30404 27.7726L15.9169 35.4165C15.9628 35.4627 15.9628 35.5373 15.9169 35.5835L8.3051 43.2263C7.88006 43.6531 7.18909 43.6531 6.76406 43.2263V43.2263C6.36301 42.8236 6.33972 42.1799 6.71062 41.7493L12.0929 35.5Z" fill="#D3B155"/>
</svg>
