<svg width="23" height="23" viewBox="0 0 23 23" fill="none" xmlns="http://www.w3.org/2000/svg">
<path d="M2.55555 23H20.4444C21.1222 23 21.7722 22.7577 22.2515 22.3264C22.7307 21.8951 23 21.3101 23 20.7001V10.3505C23.0009 10.1992 22.9687 10.0491 22.9051 9.90903C22.8415 9.76892 22.7478 9.64148 22.6294 9.53403L12.4072 0.334398C12.1678 0.120218 11.8439 0 11.5064 0C11.1688 0 10.845 0.120218 10.6055 0.334398L0.383333 9.53403C0.262598 9.64054 0.166548 9.76754 0.100747 9.90769C0.0349455 10.0478 0.000701819 10.1984 0 10.3505V20.7001C0 21.3101 0.269245 21.8951 0.748504 22.3264C1.22776 22.7577 1.87778 23 2.55555 23ZM8.94444 20.7001V14.9503H14.0555V20.7001H8.94444ZM2.55555 10.822L11.5 2.7723L20.4444 10.822V20.7001H16.6111V14.9503C16.6111 14.3403 16.3419 13.7554 15.8626 13.324C15.3833 12.8927 14.7333 12.6504 14.0555 12.6504H8.94444C8.26666 12.6504 7.61665 12.8927 7.13739 13.324C6.65813 13.7554 6.38888 14.3403 6.38888 14.9503V20.7001H2.55555V10.822Z" fill="white"/>
<path d="M13 20.7002V16.9502C13 16.8121 12.8881 16.7002 12.75 16.7002H10.25C10.1119 16.7002 10 16.8121 10 16.9502V20.7002" stroke="#D3B155"/>
</svg>
