<svg width="27" height="27" viewBox="0 0 27 27" fill="none" xmlns="http://www.w3.org/2000/svg">
<path d="M0.000244141 24.387C0.000244141 25.6538 0.585244 26.9999 1.35024 26.9999H25.6502C26.3702 26.9999 27.0002 25.6538 27.0002 24.387H0.000244141Z" fill="white"/>
<path d="M15.2707 23.5161H11.7345L11.4572 24.3871H15.5481L15.2707 23.5161Z" fill="white"/>
<path d="M11.5984 11.5401H15.3915M11.5984 14.153H13.4949M8.4375 5.66107V16.1127C8.4375 16.4592 8.57071 16.7915 8.80782 17.0365C9.04493 17.2815 9.36653 17.4191 9.70185 17.4191H17.288C17.6233 17.4191 17.9449 17.2815 18.182 17.0365C18.4191 16.7915 18.5523 16.4592 18.5523 16.1127V8.49737C18.5523 8.32333 18.5186 8.15104 18.4533 7.99063C18.3879 7.83022 18.2922 7.68492 18.1718 7.56326L15.3649 4.72695C15.1287 4.4883 14.8115 4.35466 14.4811 4.35461H9.70185C9.36653 4.35461 9.04493 4.49226 8.80782 4.73726C8.57071 4.98227 8.4375 5.31457 8.4375 5.66107V5.66107Z" stroke="white" stroke-width="1.2" stroke-linecap="round" stroke-linejoin="round"/>
<path d="M14.7722 4.35461V6.96752C14.7722 7.31401 14.9054 7.64631 15.1425 7.89132C15.3797 8.13633 15.7012 8.27397 16.0366 8.27397H18.5653" stroke="white" stroke-width="1.2" stroke-linejoin="round"/>
<rect x="1" y="1" width="25" height="19.7742" rx="1" stroke="white" stroke-width="2"/>
</svg>
