<svg width="18" height="22" viewBox="0 0 18 22" fill="none" xmlns="http://www.w3.org/2000/svg">
<path d="M15.9926 2.35714H13.6744V1.57143C13.6744 1.15466 13.5116 0.754961 13.2218 0.460261C12.932 0.165561 12.5389 0 12.129 0H5.94718C5.5373 0 5.1442 0.165561 4.85438 0.460261C4.56455 0.754961 4.40172 1.15466 4.40172 1.57143V2.35714H2.08354C1.67366 2.35714 1.28057 2.5227 0.990739 2.8174C0.70091 3.1121 0.538086 3.5118 0.538086 3.92857V20.4286C0.538086 20.8453 0.70091 21.245 0.990739 21.5397C1.28057 21.8344 1.67366 22 2.08354 22H15.9926C16.4025 22 16.7956 21.8344 17.0854 21.5397C17.3753 21.245 17.5381 20.8453 17.5381 20.4286V3.92857C17.5381 3.5118 17.3753 3.1121 17.0854 2.8174C16.7956 2.5227 16.4025 2.35714 15.9926 2.35714ZM5.94718 1.57143H12.129V4.71429H5.94718V1.57143ZM15.9926 20.4286H2.08354V3.92857H4.40172V6.28571H13.6744V3.92857H15.9926V20.4286Z" fill="#D3B155"/>
<path d="M7.54083 9.00072C7.442 8.90024 7.28314 8.90024 6.96509 8.90024L4.9414 8.90024C4.62335 8.90024 4.46449 8.90024 4.36566 9.00072C4.26684 9.10121 4.26684 9.26274 4.26684 9.58614C4.26684 9.90954 4.26684 10.0711 4.36566 10.1716C4.46449 10.272 4.62335 10.272 4.9414 10.272L6.96509 10.272C7.28314 10.272 7.442 10.272 7.54083 10.1716C7.63965 10.0711 7.63965 9.90954 7.63965 9.58614C7.63965 9.26274 7.63965 9.10121 7.54083 9.00072Z" fill="#D3B155"/>
<path opacity="0.4" d="M9.90118 13.802C9.80235 13.7015 9.64349 13.7015 9.32544 13.7015L4.94079 13.7015C4.62273 13.7015 4.46387 13.7015 4.36505 13.802C4.26623 13.9025 4.26623 14.064 4.26623 14.3874C4.26623 14.7108 4.26623 14.8724 4.36505 14.9728C4.46387 15.0733 4.62273 15.0733 4.94079 15.0733L9.32544 15.0733C9.64349 15.0733 9.80235 15.0733 9.90118 14.9728C10 14.8724 10 14.7108 10 14.3874C10 14.064 10 13.9025 9.90118 13.802Z" fill="#D3B155"/>
<path opacity="0.7" d="M8.31372 11.3008C8.63178 11.3008 8.79063 11.3008 8.88946 11.4013C8.98828 11.5017 8.98828 11.6633 8.98828 11.9867C8.98828 12.3101 8.98828 12.4716 8.88946 12.5721C8.79063 12.6726 8.63178 12.6726 8.31372 12.6726L4.94091 12.6726C4.62286 12.6726 4.464 12.6726 4.36517 12.5721C4.26635 12.4716 4.26635 12.3101 4.26635 11.9867C4.26635 11.6633 4.26635 11.5017 4.36517 11.4013C4.464 11.3008 4.62286 11.3008 4.94091 11.3008L8.31372 11.3008Z" fill="#D3B155"/>
<path d="M3.50684 8.90028C3.50684 8.83206 3.48016 8.76664 3.43267 8.7184C3.38518 8.67017 3.32077 8.64307 3.25361 8.64307C3.18645 8.64307 3.12204 8.67017 3.07456 8.7184C3.02707 8.76664 3.00039 8.83206 3.00039 8.90028L3.00039 15.0734C3.00039 15.1416 3.02707 15.207 3.07455 15.2552C3.12204 15.3035 3.18645 15.3306 3.25361 15.3306C3.32077 15.3306 3.38518 15.3035 3.43267 15.2552C3.48016 15.207 3.50684 15.1416 3.50684 15.0734L3.50684 8.90028Z" fill="#D3B155"/>
<path d="M13.2702 15.8705C13.4997 15.8705 13.6858 15.6843 13.6858 15.4548C13.6858 15.2252 13.4997 15.0391 13.2702 15.0391C13.0406 15.0391 12.8545 15.2252 12.8545 15.4548C12.8545 15.6843 13.0406 15.8705 13.2702 15.8705Z" stroke="#D3B155" stroke-width="0.5" stroke-linecap="round" stroke-linejoin="round"/>
<path d="M11.6082 17.9489C11.723 17.9489 11.8161 17.8558 11.8161 17.741C11.8161 17.6263 11.723 17.5332 11.6082 17.5332C11.4934 17.5332 11.4004 17.6263 11.4004 17.741C11.4004 17.8558 11.4934 17.9489 11.6082 17.9489Z" stroke="#D3B155" stroke-width="0.5" stroke-linecap="round" stroke-linejoin="round"/>
<path d="M11.6071 16.4939C11.8366 16.4939 12.0227 16.3078 12.0227 16.0783C12.0227 15.8487 11.8366 15.6626 11.6071 15.6626C11.3775 15.6626 11.1914 15.8487 11.1914 16.0783C11.1914 16.3078 11.3775 16.4939 11.6071 16.4939Z" stroke="#D3B155" stroke-width="0.5" stroke-linecap="round" stroke-linejoin="round"/>
<path d="M13.6941 18.8966C13.6895 18.816 13.6615 18.7385 13.6135 18.6735C13.5655 18.6085 13.4996 18.559 13.4239 18.5308C13.2359 18.469 13.0761 18.3422 12.9733 18.1731C12.8704 18.0041 12.8312 17.8038 12.8628 17.6085C12.8944 17.4131 12.9946 17.2354 13.1454 17.1073C13.2963 16.9792 13.4879 16.9092 13.6858 16.9097H14.4631C14.5964 16.9101 14.7279 16.8784 14.8464 16.8173C14.9649 16.7562 15.0669 16.6675 15.144 16.5587C15.221 16.4499 15.2707 16.3241 15.2889 16.1921C15.3072 16.06 15.2934 15.9255 15.2487 15.7999C15.0834 15.333 14.7929 14.9207 14.4091 14.6077C14.0253 14.2948 13.5628 14.0934 13.0723 14.0255C12.5817 13.9576 12.0819 14.0259 11.6276 14.2228C11.1732 14.4197 10.7816 14.7377 10.4957 15.142C10.2098 15.5464 10.0406 16.0216 10.0064 16.5156C9.97229 17.0097 10.0746 17.5036 10.3022 17.9434C10.5297 18.3833 10.8738 18.7521 11.2968 19.0096C11.7198 19.2672 12.2054 19.4035 12.7007 19.4037C12.9452 19.4044 13.1887 19.3708 13.4239 19.304C13.5103 19.2798 13.5851 19.2253 13.6347 19.1505C13.6843 19.0757 13.7054 18.9856 13.6941 18.8966Z" stroke="#D3B155" stroke-width="0.5" stroke-linecap="round" stroke-linejoin="round"/>
</svg>
