<svg width="18" height="22" viewBox="0 0 18 22" fill="none" xmlns="http://www.w3.org/2000/svg">
<path d="M11.0678 9.16833C10.9226 9.02075 10.6893 9.02075 10.2222 9.02075L7.25019 9.02075C6.78308 9.02075 6.54978 9.02075 6.40464 9.16832C6.25951 9.3159 6.25951 9.55312 6.25951 10.0281C6.25951 10.503 6.25951 10.7403 6.40464 10.8878C6.54978 11.0354 6.78308 11.0354 7.25019 11.0354L10.2222 11.0354C10.6893 11.0354 10.9226 11.0354 11.0678 10.8878C11.2129 10.7403 11.2129 10.503 11.2129 10.0281C11.2129 9.55312 11.2129 9.3159 11.0678 9.16833Z" fill="#D3B155"/>
<path opacity="0.4" d="M14.5346 16.2196C14.3894 16.072 14.1561 16.072 13.689 16.072L7.24962 16.072C6.78251 16.072 6.54921 16.072 6.40407 16.2196C6.25894 16.3672 6.25894 16.6044 6.25894 17.0793C6.25894 17.5543 6.25894 17.7915 6.40407 17.9391C6.54921 18.0867 6.78251 18.0867 7.24962 18.0867L13.689 18.0867C14.1561 18.0867 14.3894 18.0867 14.5346 17.9391C14.6797 17.7915 14.6797 17.5543 14.6797 17.0793C14.6797 16.6044 14.6797 16.3672 14.5346 16.2196Z" fill="#D3B155"/>
<path opacity="0.7" d="M12.2027 12.5464C12.6698 12.5464 12.9031 12.5464 13.0482 12.694C13.1934 12.8415 13.1934 13.0788 13.1934 13.5537C13.1934 14.0287 13.1934 14.2659 13.0482 14.4135C12.9031 14.561 12.6698 14.561 12.2027 14.561L7.2493 14.561C6.7822 14.561 6.54889 14.561 6.40376 14.4135C6.25862 14.2659 6.25863 14.0287 6.25863 13.5537C6.25863 13.0788 6.25863 12.8415 6.40376 12.694C6.54889 12.5464 6.7822 12.5464 7.2493 12.5464L12.2027 12.5464Z" fill="#D3B155"/>
<path d="M5.14355 9.02081C5.14355 8.92063 5.10437 8.82455 5.03463 8.75371C4.96489 8.68286 4.8703 8.64307 4.77166 8.64307C4.67303 8.64307 4.57844 8.68286 4.5087 8.75371C4.43895 8.82455 4.39977 8.92063 4.39977 9.02081L4.39977 18.0867C4.39977 18.1869 4.43895 18.283 4.5087 18.3539C4.57844 18.4247 4.67303 18.4645 4.77166 18.4645C4.8703 18.4645 4.96489 18.4247 5.03463 18.3539C5.10437 18.283 5.14355 18.1869 5.14355 18.0867L5.14355 9.02081Z" fill="#D3B155"/>
<path d="M15.9926 2.35714H13.6744V1.57143C13.6744 1.15466 13.5116 0.754961 13.2218 0.460261C12.932 0.165561 12.5389 0 12.129 0H5.94718C5.5373 0 5.1442 0.165561 4.85438 0.460261C4.56455 0.754961 4.40172 1.15466 4.40172 1.57143V2.35714H2.08354C1.67366 2.35714 1.28057 2.5227 0.990739 2.8174C0.70091 3.1121 0.538086 3.5118 0.538086 3.92857V20.4286C0.538086 20.8453 0.70091 21.245 0.990739 21.5397C1.28057 21.8344 1.67366 22 2.08354 22H15.9926C16.4025 22 16.7956 21.8344 17.0854 21.5397C17.3753 21.245 17.5381 20.8453 17.5381 20.4286V3.92857C17.5381 3.5118 17.3753 3.1121 17.0854 2.8174C16.7956 2.5227 16.4025 2.35714 15.9926 2.35714ZM5.94718 1.57143H12.129V4.71429H5.94718V1.57143ZM15.9926 20.4286H2.08354V3.92857H4.40172V6.28571H13.6744V3.92857H15.9926V20.4286Z" fill="#D3B155"/>
</svg>
