<svg width="18" height="22" viewBox="0 0 18 22" fill="none" xmlns="http://www.w3.org/2000/svg">
<path d="M15.9926 2.35714H13.6744V1.57143C13.6744 1.15466 13.5116 0.754961 13.2218 0.460261C12.932 0.165561 12.5389 0 12.129 0H5.94718C5.5373 0 5.1442 0.165561 4.85438 0.460261C4.56455 0.754961 4.40172 1.15466 4.40172 1.57143V2.35714H2.08354C1.67366 2.35714 1.28057 2.5227 0.990739 2.8174C0.70091 3.1121 0.538086 3.5118 0.538086 3.92857V20.4286C0.538086 20.8453 0.70091 21.245 0.990739 21.5397C1.28057 21.8344 1.67366 22 2.08354 22H15.9926C16.4025 22 16.7956 21.8344 17.0854 21.5397C17.3753 21.245 17.5381 20.8453 17.5381 20.4286V3.92857C17.5381 3.5118 17.3753 3.1121 17.0854 2.8174C16.7956 2.5227 16.4025 2.35714 15.9926 2.35714ZM5.94718 1.57143H12.129V4.71429H5.94718V1.57143ZM15.9926 20.4286H2.08354V3.92857H4.40172V6.28571H13.6744V3.92857H15.9926V20.4286Z" fill="#D3B155"/>
<path d="M7.54083 8.35766C7.442 8.25717 7.28314 8.25717 6.96509 8.25717L4.9414 8.25717C4.62335 8.25717 4.46449 8.25717 4.36566 8.35766C4.26684 8.45814 4.26684 8.61967 4.26684 8.94307C4.26684 9.26647 4.26684 9.428 4.36566 9.52848C4.46449 9.62897 4.62335 9.62897 4.9414 9.62897L6.96509 9.62897C7.28314 9.62897 7.442 9.62897 7.54083 9.52848C7.63965 9.428 7.63965 9.26647 7.63965 8.94307C7.63965 8.61967 7.63965 8.45814 7.54083 8.35766Z" fill="#D3B155"/>
<path opacity="0.4" d="M9.90118 13.1589C9.80235 13.0584 9.64349 13.0584 9.32544 13.0584L4.94079 13.0584C4.62273 13.0584 4.46387 13.0584 4.36505 13.1589C4.26623 13.2594 4.26623 13.4209 4.26623 13.7443C4.26623 14.0677 4.26623 14.2293 4.36505 14.3298C4.46387 14.4302 4.62273 14.4302 4.94079 14.4302L9.32544 14.4302C9.64349 14.4302 9.80235 14.4302 9.90118 14.3298C10 14.2293 10 14.0677 10 13.7443C10 13.4209 10 13.2594 9.90118 13.1589Z" fill="#D3B155"/>
<path opacity="0.7" d="M8.31372 10.6577C8.63178 10.6577 8.79063 10.6577 8.88946 10.7582C8.98828 10.8587 8.98828 11.0202 8.98828 11.3436C8.98828 11.667 8.98828 11.8285 8.88946 11.929C8.79063 12.0295 8.63178 12.0295 8.31372 12.0295L4.94091 12.0295C4.62286 12.0295 4.464 12.0295 4.36517 11.929C4.26635 11.8285 4.26635 11.667 4.26635 11.3436C4.26635 11.0202 4.26635 10.8587 4.36517 10.7582C4.464 10.6577 4.62286 10.6577 4.94091 10.6577L8.31372 10.6577Z" fill="#D3B155"/>
<path d="M3.50684 8.25721C3.50684 8.189 3.48016 8.12357 3.43267 8.07534C3.38518 8.0271 3.32077 8 3.25361 8C3.18645 8 3.12204 8.0271 3.07456 8.07534C3.02707 8.12357 3.00039 8.189 3.00039 8.25721L3.00039 14.4303C3.00039 14.4985 3.02707 14.5639 3.07455 14.6122C3.12204 14.6604 3.18645 14.6875 3.25361 14.6875C3.32077 14.6875 3.38518 14.6604 3.43267 14.6122C3.48016 14.5639 3.50684 14.4985 3.50684 14.4303L3.50684 8.25721Z" fill="#D3B155"/>
<path d="M12.4636 15.0276L8.95605 18.2076V19.4796H10.3591L13.8666 16.2996L12.4636 15.0276Z" fill="#D3B155"/>
<path d="M13.4035 14.1755L12.9336 14.6015L14.3366 15.8735L14.8065 15.4475C15.0646 15.2135 15.0646 14.8355 14.8065 14.6015L14.3366 14.1755C14.2754 14.1198 14.2027 14.0757 14.1226 14.0456C14.0425 14.0155 13.9567 14 13.87 14C13.7834 14 13.6975 14.0155 13.6175 14.0456C13.5374 14.0757 13.4647 14.1198 13.4035 14.1755Z" fill="#D3B155"/>
</svg>
