<svg width="27" height="27" viewBox="0 0 27 27" fill="none" xmlns="http://www.w3.org/2000/svg">
<path d="M11.8607 1.20539C11.8607 0.988002 11.9471 0.779523 12.1008 0.62581C12.2545 0.472097 12.463 0.385742 12.6804 0.385742H17.5982C17.8156 0.385742 18.0241 0.472097 18.1778 0.62581C18.3315 0.779523 18.4179 0.988002 18.4179 1.20539V2.84467C18.4179 3.06205 18.3315 3.27053 18.1778 3.42425C18.0241 3.57796 17.8156 3.66431 17.5982 3.66431H13.5V5.3036C15.6739 5.3036 17.7587 6.16715 19.2958 7.70428C20.8329 9.24141 21.6965 11.3262 21.6965 13.5V15.1393H23.3357C24.2053 15.1393 25.0392 15.4847 25.654 16.0996C26.2689 16.7144 26.6143 17.5484 26.6143 18.4179V24.975C26.6143 25.4098 26.4416 25.8268 26.1342 26.1342C25.8268 26.4416 25.4098 26.6143 24.975 26.6143H2.02503C1.59026 26.6143 1.1733 26.4416 0.865878 26.1342C0.558452 25.8268 0.385742 25.4098 0.385742 24.975V18.4179C0.385742 17.5484 0.731162 16.7144 1.34601 16.0996C1.96087 15.4847 2.79478 15.1393 3.66431 15.1393H5.3036V13.5C5.30383 11.6107 5.95652 9.77935 7.15131 8.31573C8.3461 6.85211 10.0097 5.84601 11.8607 5.46753V1.20539ZM23.3357 16.7786H20.8768C20.6594 16.7786 20.451 16.6922 20.2972 16.5385C20.1435 16.3848 20.0572 16.1763 20.0572 15.959V13.5C20.0572 11.761 19.3663 10.0931 18.1366 8.86343C16.9069 7.63373 15.2391 6.94289 13.5 6.94289C11.761 6.94289 10.0931 7.63373 8.86343 8.86343C7.63373 10.0931 6.94289 11.761 6.94289 13.5V15.959C6.94289 16.1763 6.85653 16.3848 6.70282 16.5385C6.54911 16.6922 6.34063 16.7786 6.12324 16.7786H3.66431C3.22955 16.7786 2.81259 16.9513 2.50516 17.2587C2.19774 17.5662 2.02503 17.9831 2.02503 18.4179V24.975H10.2215V21.6965C10.2215 21.2617 10.3942 20.8447 10.7016 20.5373C11.009 20.2299 11.426 20.0572 11.8607 20.0572H15.1393C15.5741 20.0572 15.991 20.2299 16.2985 20.5373C16.6059 20.8447 16.7786 21.2617 16.7786 21.6965V24.975H24.975V18.4179C24.975 17.9831 24.8023 17.5662 24.4949 17.2587C24.1875 16.9513 23.7705 16.7786 23.3357 16.7786ZM6.94289 19.2375C6.94289 19.0201 6.85653 18.8117 6.70282 18.658C6.54911 18.5042 6.34063 18.4179 6.12324 18.4179C5.90586 18.4179 5.69738 18.5042 5.54367 18.658C5.38996 18.8117 5.3036 19.0201 5.3036 19.2375V22.5161C5.3036 22.7335 5.38996 22.942 5.54367 23.0957C5.69738 23.2494 5.90586 23.3357 6.12324 23.3357C6.34063 23.3357 6.54911 23.2494 6.70282 23.0957C6.85653 22.942 6.94289 22.7335 6.94289 22.5161V19.2375ZM21.6965 19.2375C21.6965 19.0201 21.6101 18.8117 21.4564 18.658C21.3027 18.5042 21.0942 18.4179 20.8768 18.4179C20.6594 18.4179 20.451 18.5042 20.2972 18.658C20.1435 18.8117 20.0572 19.0201 20.0572 19.2375V22.5161C20.0572 22.7335 20.1435 22.942 20.2972 23.0957C20.451 23.2494 20.6594 23.3357 20.8768 23.3357C21.0942 23.3357 21.3027 23.2494 21.4564 23.0957C21.6101 22.942 21.6965 22.7335 21.6965 22.5161V19.2375ZM11.0411 11.8607C10.8237 11.8607 10.6152 11.9471 10.4615 12.1008C10.3078 12.2545 10.2215 12.463 10.2215 12.6804V15.959C10.2215 16.1763 10.3078 16.3848 10.4615 16.5385C10.6152 16.6922 10.8237 16.7786 11.0411 16.7786C11.2585 16.7786 11.467 16.6922 11.6207 16.5385C11.7744 16.3848 11.8607 16.1763 11.8607 15.959V12.6804C11.8607 12.463 11.7744 12.2545 11.6207 12.1008C11.467 11.9471 11.2585 11.8607 11.0411 11.8607ZM16.7786 12.6804C16.7786 12.463 16.6922 12.2545 16.5385 12.1008C16.3848 11.9471 16.1763 11.8607 15.959 11.8607C15.7416 11.8607 15.5331 11.9471 15.3794 12.1008C15.2257 12.2545 15.1393 12.463 15.1393 12.6804V15.959C15.1393 16.1763 15.2257 16.3848 15.3794 16.5385C15.5331 16.6922 15.7416 16.7786 15.959 16.7786C16.1763 16.7786 16.3848 16.6922 16.5385 16.5385C16.6922 16.3848 16.7786 16.1763 16.7786 15.959V12.6804ZM11.8607 24.975H15.1393V21.6965H11.8607V24.975Z" fill="white"/>
</svg>
