<svg width="146" height="63" viewBox="0 0 146 63" fill="none" xmlns="http://www.w3.org/2000/svg">
<path d="M18.8013 2.03834C19.6505 0.764873 21.0799 0 22.6105 0C26.2879 0 28.4648 4.11641 26.3947 7.15586L12.8298 27.0729C10.9617 29.8157 10.981 33.427 12.8782 36.1498L22.4099 49.8291C23.9058 51.9759 26.357 53.2555 28.9736 53.2555H140.876C143.323 53.2555 145.306 55.2385 145.306 57.6848C145.306 60.131 143.323 62.1141 140.876 62.1141H24.3378C21.7206 62.1141 19.2689 60.8339 17.7731 58.6862L2.11638 36.206C0.236481 33.5069 0.200333 29.9321 2.02525 27.1955L18.8013 2.03834Z" fill="url(#paint0_linear_878_384)"/>
<defs>
<linearGradient id="paint0_linear_878_384" x1="11.6307" y1="102.151" x2="146.032" y2="-32.2336" gradientUnits="userSpaceOnUse">
<stop stop-color="#7792C5"/>
<stop offset="1" stop-color="#3E598B"/>
</linearGradient>
</defs>
</svg>
