<svg width="125" height="34" viewBox="0 0 125 34" fill="none" xmlns="http://www.w3.org/2000/svg">
<path d="M11.2535 33.0838H0V33.8594H11.2535V33.0838Z" fill="white"/>
<path fill-rule="evenodd" clip-rule="evenodd" d="M0 31.7993V30.5928H11.167L11.2189 31.7993H0Z" fill="white"/>
<path fill-rule="evenodd" clip-rule="evenodd" d="M0 29.3003V27.6371H11.0891L11.1237 29.3003H0Z" fill="white"/>
<path fill-rule="evenodd" clip-rule="evenodd" d="M0 26.3361V23.9318H10.9767L11.0286 26.3361H0Z" fill="white"/>
<path fill-rule="evenodd" clip-rule="evenodd" d="M0 22.6737V18.9595H32.2035V22.6737H12.8537L10.6566 18.9595L10.9248 22.6737H0Z" fill="white"/>
<path fill-rule="evenodd" clip-rule="evenodd" d="M0 17.6754V13.0736H19.0903L21.9188 17.6754L21.6506 13.0736H32.2035V17.6754H0Z" fill="white"/>
<path fill-rule="evenodd" clip-rule="evenodd" d="M0 11.7809V2.82718H12.9143L18.2599 11.7809H0Z" fill="white"/>
<path d="M32.1946 2.80127H21.6504V11.7722H32.1946V2.80127Z" fill="white"/>
<path fill-rule="evenodd" clip-rule="evenodd" d="M32.2035 23.9316V26.336H15.3276L13.7188 23.9316H32.2035Z" fill="white"/>
<path fill-rule="evenodd" clip-rule="evenodd" d="M32.2037 27.6372V29.3004H17.2567L16.1582 27.6372H32.2037Z" fill="white"/>
<path fill-rule="evenodd" clip-rule="evenodd" d="M32.2039 30.5928V31.7992H18.9091L18.1133 30.5928H32.2039Z" fill="white"/>
<path fill-rule="evenodd" clip-rule="evenodd" d="M32.2041 33.0752V33.8594H20.2846L19.7656 33.0752H32.2041Z" fill="white"/>
<path d="M46.2144 33.084H35.2031V33.8596H46.2144V33.084Z" fill="white"/>
<path d="M46.2144 30.5928H35.2031V31.7992H46.2144V30.5928Z" fill="white"/>
<path d="M46.2144 27.6372H35.2031V29.2918H46.2144V27.6372Z" fill="white"/>
<path d="M46.2144 23.9316H35.2031V26.336H46.2144V23.9316Z" fill="white"/>
<path d="M46.2144 18.9595H35.2031V22.6737H46.2144V18.9595Z" fill="white"/>
<path d="M46.2144 13.0737H35.2031V17.6755H46.2144V13.0737Z" fill="white"/>
<path d="M46.2144 2.80127H35.2031V11.7722H46.2144V2.80127Z" fill="white"/>
<path fill-rule="evenodd" clip-rule="evenodd" d="M65.1588 2.27523H70.9974V11.7546H49.7188C51.1331 8.88472 53.3333 6.47182 56.0653 4.79449C58.7973 3.11716 61.9498 2.2438 65.1588 2.27523Z" fill="white"/>
<path fill-rule="evenodd" clip-rule="evenodd" d="M61.5527 13.0737C60.8769 13.6392 60.331 14.3427 59.9519 15.1366C59.5729 15.9306 59.3695 16.7965 59.3556 17.6755H48.2578C48.3342 16.1042 48.6462 14.5531 49.1834 13.0737H61.5527Z" fill="white"/>
<path fill-rule="evenodd" clip-rule="evenodd" d="M59.46 18.9595C59.7187 20.419 60.4954 21.7372 61.6484 22.6737H48.9158C48.5486 21.4675 48.3393 20.2191 48.293 18.9595H59.46Z" fill="white"/>
<path fill-rule="evenodd" clip-rule="evenodd" d="M71.0061 23.9487V26.3444H50.5578C50.0884 25.5819 49.6862 24.7803 49.3555 23.9487H71.0061Z" fill="white"/>
<path fill-rule="evenodd" clip-rule="evenodd" d="M71.0066 27.6372V29.3004H52.911C52.3852 28.7809 51.8967 28.2251 51.4492 27.6372H71.0066Z" fill="white"/>
<path fill-rule="evenodd" clip-rule="evenodd" d="M71.0057 30.5928V31.8079H56.0933C55.4963 31.4323 54.9189 31.0268 54.3633 30.5928H71.0057Z" fill="white"/>
<path fill-rule="evenodd" clip-rule="evenodd" d="M71.0063 33.084V33.7475H61.033C61.033 33.7475 60.6957 33.8682 58.7148 33.084H71.0063Z" fill="white"/>
<path fill-rule="evenodd" clip-rule="evenodd" d="M110.234 2.71491C110.234 2.83556 110.234 2.83557 109.707 2.83557H108.375C108.215 2.81456 108.058 2.77402 107.908 2.71491C107.732 2.6485 107.581 2.53054 107.474 2.37663C107.368 2.22272 107.311 2.04014 107.311 1.85315C107.304 1.67634 107.353 1.50184 107.449 1.35334C107.512 1.26619 107.591 1.19285 107.684 1.13798C107.776 1.0831 107.879 1.04787 107.985 1.03449H108.193C108.666 1.0902 109.111 1.28337 109.474 1.5899C109.837 1.89642 110.102 2.3027 110.234 2.75802V2.71491ZM110.572 1.14652C110.295 0.81587 109.952 0.546264 109.565 0.354872C109.177 0.163481 108.755 0.0544906 108.323 0.0348407C107.799 0.00570314 107.28 0.154566 106.852 0.457096C106.681 0.592143 106.541 0.763459 106.444 0.95867C106.347 1.15388 106.294 1.36812 106.29 1.586C106.275 1.91117 106.353 2.23387 106.515 2.51672L106.601 2.64598L106.74 2.83557H103.773V3.83522H105.044V5.1968C105.049 5.25127 105.049 5.30606 105.044 5.36053C105.03 5.41284 104.999 5.45868 104.954 5.49013C104.91 5.52159 104.856 5.53672 104.802 5.5329C104.726 5.5221 104.654 5.49285 104.592 5.44777C104.531 5.40268 104.481 5.34312 104.448 5.27435C104.366 5.14318 104.296 5.00472 104.24 4.86072L103.375 5.47257C103.765 6.1314 104.192 6.76728 104.655 7.37706C105.373 8.40256 105.736 8.90238 105.875 9.10058L106.844 8.37671C106.515 7.95444 106.204 7.5839 105.918 7.26505L105.408 6.63595L105.295 6.48944L105.468 6.44636C105.745 6.37874 105.99 6.21727 106.16 5.98963C106.312 5.80136 106.394 5.5673 106.394 5.32608V3.8266H107.812V5.45534H106.731L107.267 6.40329H107.812V9.08336H109.084V3.84385H110.321V9.08336H111.592V2.74939C111.339 2.16478 110.995 1.6238 110.572 1.14652Z" fill="white"/>
<path fill-rule="evenodd" clip-rule="evenodd" d="M87.0958 2.83594H76.7852V6.88624L79.3109 8.96306L79.5531 9.16128C79.6115 9.20199 79.6567 9.25893 79.6829 9.32502C79.6959 9.36627 79.698 9.41019 79.6889 9.45249C79.6798 9.49478 79.6598 9.534 79.631 9.56631C79.5891 9.61784 79.5313 9.65418 79.4666 9.66972C79.3894 9.68342 79.3103 9.68342 79.2331 9.66972H79.112L79.259 9.87656C79.2799 9.90968 79.303 9.94134 79.3282 9.97134C79.4407 10.1437 79.5531 10.3161 79.7261 10.3591H79.8299C80.0558 10.3372 80.2712 10.2537 80.4527 10.1179C80.5733 10.0462 80.6766 9.94916 80.7554 9.83345C80.8669 9.67231 80.9161 9.4764 80.8938 9.28194C80.8767 9.14671 80.8318 9.01645 80.7618 8.89932C80.6919 8.78218 80.5984 8.68066 80.4873 8.60114L80.0029 8.20473L78.7487 7.16198L78.0307 6.55876V3.78388H79.5099V5.67115C79.5204 5.71689 79.515 5.76483 79.4946 5.80711C79.4741 5.8494 79.4399 5.88349 79.3974 5.90381C79.1701 5.98444 78.9291 6.01957 78.6881 6.00722L79.6656 6.80866C79.9692 6.80497 80.2612 6.69169 80.4873 6.48981C80.5855 6.41359 80.6641 6.31529 80.7167 6.20294C80.7693 6.09059 80.7945 5.96739 80.7901 5.84348V3.78388H85.115V4.99035H82.2C81.8194 4.99035 81.655 5.15408 81.655 5.49878C81.655 5.56772 81.7156 5.79179 82.2778 6.44673C82.8401 7.10167 83.0477 7.17923 83.1428 7.17923C83.2136 7.18345 83.2839 7.16475 83.3431 7.12593C83.4023 7.0871 83.4474 7.03022 83.4715 6.96379C83.5347 6.89355 83.5767 6.8069 83.5926 6.71387V6.05892H85.1409V9.04065H86.4125V3.80111H87.1391L87.0958 2.83594Z" fill="white"/>
<path fill-rule="evenodd" clip-rule="evenodd" d="M101.488 3.94721V3.83518H102.146V2.83553H101.488V2.75797L101.324 2.60286L101.047 2.32709L100.918 2.17198L100.788 2.01684C100.714 1.93455 100.658 1.83726 100.626 1.73165C100.593 1.62605 100.583 1.51462 100.598 1.405C100.61 1.30108 100.647 1.20163 100.706 1.11476C100.765 1.02789 100.843 0.956081 100.935 0.905184C101.048 0.841373 101.177 0.811444 101.307 0.819003C101.463 0.820899 101.617 0.847064 101.765 0.896558L101.982 0.965488H102.025C102.094 0.353636 102.025 0.241606 101.687 0.103724C101.524 0.0315504 101.347 -0.00375928 101.168 0.000316716C100.963 0.00423787 100.759 0.0361457 100.563 0.0951244C100.308 0.177203 100.083 0.333549 99.9184 0.543995C99.7535 0.754441 99.6556 1.00932 99.6374 1.27574C99.6273 1.5305 99.6935 1.7825 99.8277 1.99961C100.006 2.22542 100.196 2.44119 100.399 2.64594L100.58 2.84415H92.2418V3.8524H92.977V5.57593C92.977 5.76552 92.3975 5.83447 92.3975 5.83447C92.21 5.80909 92.0318 5.73803 91.8785 5.62763C91.8129 5.58157 91.7434 5.54122 91.6709 5.507L91.5152 5.44667L91.6363 5.32604C91.861 5.06896 91.9786 4.73597 91.965 4.39532C91.9685 4.20305 91.9282 4.01249 91.8474 3.83788C91.7665 3.66328 91.647 3.50917 91.4979 3.38707C91.1602 3.11032 90.7325 2.96626 90.2956 2.98204C89.7687 2.98183 89.2569 3.15783 88.8424 3.48185C88.8014 3.50909 88.7637 3.54088 88.7299 3.57663C88.7991 3.71451 88.9289 4.00752 89.197 4.61076C89.3101 4.47387 89.4377 4.34963 89.5776 4.24021C89.769 4.07751 90.0096 3.98345 90.261 3.97306C90.3426 3.96851 90.424 3.98425 90.498 4.01885C90.572 4.05345 90.6362 4.1058 90.6848 4.17125C90.7467 4.26576 90.777 4.37741 90.7713 4.49012C90.7724 4.63293 90.7335 4.77321 90.6589 4.89515C90.5463 5.05707 90.3814 5.17567 90.1918 5.23123C90.0274 5.29155 89.7679 5.38635 89.6036 5.42944C89.6901 5.62765 89.8544 5.97234 89.915 6.11884H90.434C90.5898 6.12164 90.7421 6.16637 90.8746 6.24829C91.007 6.3302 91.1148 6.44627 91.1865 6.5842C91.2553 6.73681 91.278 6.90607 91.2519 7.07134C91.2258 7.23661 91.152 7.39073 91.0394 7.5149C90.9138 7.62003 90.7536 7.67526 90.5897 7.67001C90.515 7.67895 90.4394 7.67895 90.3647 7.67001C89.9235 7.54502 89.5501 7.25056 89.3268 6.85135C89.1878 6.63584 89.0636 6.41127 88.9548 6.17917C88.9029 6.04991 88.8424 5.92927 88.7818 5.80862L87.8477 6.1964C88.1242 6.92172 88.5653 7.57352 89.1365 8.10089C89.5245 8.48476 90.0432 8.70932 90.5897 8.72999C91.0831 8.76054 91.5704 8.60693 91.9563 8.2991C92.1344 8.11344 92.2668 7.88924 92.3434 7.64405C92.4199 7.39886 92.4384 7.13934 92.3975 6.88583V6.71346H92.5359H92.6916C92.7547 6.72242 92.8187 6.72242 92.8819 6.71346L93.0203 6.65313V9.05746H94.3005V3.81795H95.4941V9.05746H96.7657V3.81795H100.399V4.50735H98.6081C98.4162 4.50588 98.2308 4.57668 98.0891 4.70556C98.0119 4.76576 97.9498 4.84304 97.9078 4.93129C97.8657 5.01954 97.8449 5.11634 97.8469 5.214C97.9007 5.68985 98.1249 6.13042 98.4783 6.45494C98.666 6.67595 98.903 6.85008 99.1703 6.96338C99.3343 7.03417 99.5106 7.07224 99.6893 7.07541C99.7953 7.07574 99.9006 7.05823 100.001 7.02368L100.208 6.94613C100.297 6.9043 100.39 6.87251 100.485 6.85135H100.572C100.601 6.85174 100.63 6.85804 100.657 6.86989C100.683 6.88174 100.707 6.89888 100.727 6.92028C100.763 6.96237 100.786 7.01284 100.797 7.06679C100.826 7.20886 100.824 7.35554 100.791 7.49683C100.758 7.63811 100.695 7.77065 100.606 7.88545C100.503 8.01144 100.369 8.10929 100.217 8.16984H100.165C100.102 8.18238 100.038 8.18238 99.9748 8.16984C99.9531 8.17211 99.9312 8.1685 99.9114 8.1594C99.8916 8.1503 99.8747 8.13604 99.8623 8.11814C99.6681 7.81984 99.3919 7.5835 99.0665 7.43734C98.9503 7.39374 98.8274 7.37043 98.7032 7.36841C98.5964 7.36262 98.4894 7.37789 98.3884 7.41338C98.2875 7.44887 98.1946 7.50388 98.1151 7.57523C98.0438 7.63946 97.9869 7.71794 97.9482 7.80555C97.9094 7.89316 97.8896 7.98792 97.8901 8.08366C97.8851 8.2061 97.9109 8.32785 97.9654 8.43775C98.0198 8.54766 98.101 8.64222 98.2016 8.71276C98.4528 8.89357 98.7567 8.9874 99.0665 8.97991H99.4731C99.6424 9.15085 99.8215 9.31197 100.009 9.46249L101.315 10.3243L102.016 9.53142C101.93 9.48833 101.108 9.02299 100.874 8.86787L100.693 8.75584L100.883 8.66106L101.021 8.5921C101.339 8.45253 101.609 8.22454 101.799 7.93557C101.989 7.6466 102.092 7.30899 102.094 6.96338C102.094 6.63591 102.094 6.2395 101.757 6.10162C101.611 6.03342 101.451 6.00091 101.29 6.00681C101.028 6.00705 100.767 6.05073 100.52 6.13607H100.45C100.32 6.1965 100.179 6.23162 100.035 6.2395C99.9867 6.24841 99.9369 6.24841 99.8883 6.2395C99.7162 6.17256 99.5685 6.0554 99.4644 5.9034V5.8517C99.4039 5.77414 99.2395 5.48977 99.2222 5.4553L99.1184 5.28293H101.592L101.488 3.94721Z" fill="white"/>
<path fill-rule="evenodd" clip-rule="evenodd" d="M76.6816 11.3672H78.1521L80.8249 15.9862V11.3672H82.1311V18.0028H80.7298L77.9878 13.2889V18.0028H76.6816V11.3672Z" fill="white"/>
<path fill-rule="evenodd" clip-rule="evenodd" d="M86.0063 15.6156C85.929 15.6677 85.8445 15.7084 85.7554 15.7362C85.6428 15.7767 85.5271 15.8084 85.4094 15.831L85.1154 15.8827C84.908 15.9061 84.7062 15.9644 84.5185 16.0551C84.4205 16.107 84.3392 16.1856 84.2841 16.2817C84.2289 16.3778 84.2023 16.4874 84.2071 16.598C84.1974 16.6865 84.2097 16.776 84.2428 16.8586C84.276 16.9413 84.3291 17.0145 84.3974 17.0719C84.5273 17.1746 84.6903 17.2266 84.8558 17.2185C85.1344 17.2222 85.4071 17.1377 85.6343 16.9772C85.7612 16.8738 85.8613 16.7416 85.926 16.5916C85.9908 16.4416 86.0183 16.2782 86.0063 16.1154V15.6414V15.6156ZM85.2192 15.0123C85.3969 15.0018 85.572 14.964 85.7381 14.9003C85.8167 14.8767 85.8857 14.829 85.9354 14.764C85.9851 14.699 86.0129 14.62 86.0149 14.5384C86.0236 14.4559 86.0078 14.3727 85.9693 14.2991C85.9309 14.2255 85.8715 14.1649 85.7987 14.1247C85.6009 14.0347 85.3844 13.9933 85.1673 14.0041C85.0481 13.9941 84.9281 14.0089 84.815 14.0475C84.7018 14.086 84.5979 14.1475 84.5099 14.2281C84.4061 14.3596 84.343 14.5183 84.3282 14.6849H83.074C83.083 14.3028 83.2098 13.9327 83.4373 13.6249C83.6638 13.3895 83.9413 13.2089 84.2487 13.0969C84.556 12.9849 84.885 12.9444 85.2105 12.9786C85.7163 12.9669 86.2176 13.0763 86.6723 13.2974C86.8856 13.4137 87.0595 13.5904 87.1719 13.8052C87.2843 14.0199 87.3302 14.2631 87.3038 14.5039V16.7531C87.3038 16.9082 87.3038 17.0978 87.3038 17.3219C87.3007 17.4414 87.3275 17.5598 87.3816 17.6666C87.4317 17.7306 87.4971 17.781 87.5719 17.8131V18.0027H86.1879C86.1537 17.9096 86.1248 17.8146 86.1014 17.7183C86.1014 17.6321 86.1014 17.5373 86.1014 17.4253C85.9174 17.6167 85.7079 17.782 85.4786 17.9165C85.1871 18.0751 84.8592 18.1552 84.5271 18.1491C84.1177 18.1684 83.7161 18.033 83.4027 17.77C83.2529 17.6348 83.1354 17.4678 83.0591 17.2814C82.9827 17.0949 82.9494 16.8938 82.9615 16.6928C82.9457 16.4303 83.0038 16.1687 83.1291 15.9373C83.2544 15.7059 83.442 15.5139 83.6708 15.3829C84.0314 15.2086 84.4217 15.1034 84.8213 15.0727L85.2192 15.0123Z" fill="white"/>
<path fill-rule="evenodd" clip-rule="evenodd" d="M87.8398 14.0561V13.1427H88.5318V11.7725H89.812V13.1427H90.6251V14.0561H89.812V16.6414C89.812 16.8482 89.812 16.9775 89.8985 17.0206C89.985 17.0637 90.1061 17.0982 90.3656 17.0982H90.6251V18.0547H90.011C89.7898 18.0886 89.5639 18.0779 89.347 18.0231C89.13 17.9683 88.9264 17.8706 88.7481 17.7359C88.6684 17.6424 88.6083 17.5341 88.5711 17.4172C88.534 17.3003 88.5206 17.1772 88.5318 17.0551V14.0389L87.8398 14.0561Z" fill="white"/>
<path fill-rule="evenodd" clip-rule="evenodd" d="M91.541 13.0903H92.8558V18.0024H91.541V13.0903ZM92.8558 12.5043H91.541V11.3237H92.8558V12.5043Z" fill="white"/>
<path fill-rule="evenodd" clip-rule="evenodd" d="M96.966 16.6923C97.1698 16.3476 97.2774 15.9549 97.2774 15.5548C97.2774 15.1547 97.1698 14.762 96.966 14.4173C96.8572 14.2958 96.724 14.1987 96.5749 14.1321C96.4258 14.0656 96.2643 14.0312 96.101 14.0312C95.9376 14.0312 95.7761 14.0656 95.6271 14.1321C95.478 14.1987 95.3447 14.2958 95.236 14.4173C95.0321 14.762 94.9246 15.1547 94.9246 15.5548C94.9246 15.9549 95.0321 16.3476 95.236 16.6923C95.3447 16.8138 95.478 16.911 95.6271 16.9775C95.7761 17.044 95.9376 17.0784 96.101 17.0784C96.2643 17.0784 96.4258 17.044 96.5749 16.9775C96.724 16.911 96.8572 16.8138 96.966 16.6923ZM98.0126 17.399C97.4987 17.8909 96.8136 18.1656 96.101 18.1656C95.3883 18.1656 94.7033 17.8909 94.1894 17.399C93.7804 16.8722 93.5586 16.2251 93.5586 15.5591C93.5586 14.8932 93.7804 14.2461 94.1894 13.7193C94.698 13.2172 95.385 12.9355 96.101 12.9355C96.817 12.9355 97.504 13.2172 98.0126 13.7193C98.416 14.2484 98.6344 14.8946 98.6344 15.5591C98.6344 16.2236 98.416 16.8698 98.0126 17.399Z" fill="white"/>
<path fill-rule="evenodd" clip-rule="evenodd" d="M103.488 13.3748C103.664 13.5431 103.801 13.7492 103.886 13.9776C103.972 14.2059 104.004 14.4506 103.981 14.6933V18.0024H102.623V15.0121C102.632 14.8115 102.597 14.6113 102.519 14.4261C102.45 14.2974 102.344 14.1922 102.214 14.1246C102.085 14.0569 101.938 14.0299 101.792 14.0469C101.608 14.0347 101.424 14.0817 101.269 14.1809C101.113 14.2802 100.993 14.4265 100.927 14.5984C100.833 14.837 100.789 15.0921 100.797 15.3482V18.0024H99.5V13.099H100.763V13.8142C100.888 13.6092 101.046 13.4258 101.23 13.2713C101.526 13.0662 101.882 12.9633 102.242 12.9783C102.691 12.959 103.133 13.0995 103.488 13.3748Z" fill="white"/>
<path fill-rule="evenodd" clip-rule="evenodd" d="M107.812 15.6156C107.735 15.6677 107.65 15.7084 107.561 15.7363C107.448 15.7758 107.333 15.8074 107.215 15.831L106.913 15.8828C106.706 15.9089 106.504 15.967 106.316 16.0551C106.22 16.109 106.141 16.1883 106.088 16.2841C106.034 16.3799 106.008 16.4885 106.013 16.598C106.003 16.6865 106.016 16.776 106.049 16.8587C106.082 16.9413 106.135 17.0146 106.203 17.072C106.331 17.1733 106.49 17.2254 106.653 17.2185C106.934 17.2206 107.209 17.1363 107.44 16.9772C107.567 16.8739 107.667 16.7416 107.732 16.5916C107.797 16.4416 107.824 16.2783 107.812 16.1154V15.6414V15.6156ZM107.016 15.0124C107.194 15.0029 107.369 14.965 107.535 14.9003C107.616 14.8783 107.686 14.8313 107.738 14.7661C107.789 14.701 107.818 14.6212 107.821 14.5384C107.827 14.4562 107.811 14.3738 107.772 14.3006C107.734 14.2275 107.676 14.1665 107.605 14.1248C107.407 14.0348 107.19 13.9934 106.973 14.0041C106.854 13.9941 106.734 14.0089 106.621 14.0475C106.508 14.0861 106.404 14.1476 106.316 14.2282C106.214 14.3614 106.148 14.5188 106.125 14.6849H104.871C104.88 14.3028 105.007 13.9327 105.234 13.6249C105.463 13.3894 105.742 13.2088 106.051 13.0968C106.359 12.9848 106.69 12.9444 107.016 12.9786C107.519 12.9677 108.018 13.077 108.47 13.2975C108.684 13.4125 108.86 13.5887 108.974 13.8035C109.088 14.0184 109.135 14.2622 109.11 14.5039V16.7531C109.11 16.9082 109.11 17.0978 109.11 17.3219C109.107 17.4414 109.133 17.5599 109.187 17.6666C109.238 17.7306 109.303 17.781 109.378 17.8131V18.0027H107.968C107.93 17.911 107.901 17.8157 107.881 17.7183C107.876 17.6207 107.876 17.5229 107.881 17.4253C107.697 17.6167 107.488 17.782 107.259 17.9165C106.966 18.0729 106.639 18.153 106.307 18.1492C105.898 18.1685 105.496 18.0331 105.183 17.77C105.033 17.6348 104.915 17.4679 104.839 17.2814C104.763 17.095 104.729 16.8938 104.741 16.6928C104.724 16.43 104.781 16.1676 104.906 15.9358C105.032 15.7041 105.221 15.5124 105.451 15.3829C105.811 15.2075 106.201 15.1022 106.601 15.0727L107.016 15.0124Z" fill="white"/>
<path d="M111.514 11.3672H110.217V18.0028H111.514V11.3672Z" fill="white"/>
<path d="M77.9786 19.1484H76.5859V25.784H77.9786V19.1484Z" fill="white"/>
<path fill-rule="evenodd" clip-rule="evenodd" d="M83.1065 21.1563C83.2808 21.3262 83.4148 21.5328 83.4986 21.7609C83.5824 21.989 83.6139 22.233 83.5908 22.4748V25.784H82.2588V22.8023C82.2701 22.5988 82.2346 22.3954 82.155 22.2077C82.0868 22.0804 81.9821 21.9763 81.8542 21.9087C81.7263 21.8412 81.581 21.8133 81.437 21.8285C81.2456 21.8065 81.0523 21.8488 80.8878 21.9487C80.7232 22.0487 80.5969 22.2004 80.5288 22.38C80.4415 22.6201 80.4005 22.8745 80.4077 23.1298V25.784H79.1016V20.8806H80.3644V21.6044C80.4874 21.3928 80.6487 21.2058 80.8402 21.0529C81.1326 20.8467 81.4857 20.7436 81.8436 20.7599C82.2984 20.7387 82.746 20.8792 83.1065 21.1563Z" fill="white"/>
<path fill-rule="evenodd" clip-rule="evenodd" d="M86.7682 19.0882H87.0364V20.1309H86.6731C86.6093 20.1201 86.5438 20.1247 86.4821 20.1442C86.4205 20.1637 86.3643 20.1975 86.3184 20.243C86.254 20.3169 86.22 20.4123 86.2233 20.5101V20.9238H87.0883V21.8286H86.2233V25.7841H84.9258V21.8286H84.1992V20.9238H84.9085V20.6049C84.8743 20.2233 84.9686 19.8413 85.1766 19.5191C85.3669 19.2261 85.8254 19.0796 86.5433 19.0796L86.7682 19.0882Z" fill="white"/>
<path fill-rule="evenodd" clip-rule="evenodd" d="M90.832 24.4746C91.0308 24.1281 91.1353 23.7361 91.1353 23.337C91.1353 22.938 91.0308 22.5459 90.832 22.1995C90.7226 22.0793 90.5891 21.9832 90.4401 21.9174C90.2911 21.8516 90.13 21.8177 89.9671 21.8177C89.8041 21.8177 89.643 21.8516 89.494 21.9174C89.345 21.9832 89.2115 22.0793 89.1021 22.1995C88.9033 22.5459 88.7988 22.938 88.7988 23.337C88.7988 23.7361 88.9033 24.1281 89.1021 24.4746C89.2115 24.5948 89.345 24.6909 89.494 24.7567C89.643 24.8224 89.8041 24.8564 89.9671 24.8564C90.13 24.8564 90.2911 24.8224 90.4401 24.7567C90.5891 24.6909 90.7226 24.5948 90.832 24.4746ZM91.87 25.1812C91.3561 25.6731 90.6711 25.9478 89.9584 25.9478C89.2457 25.9478 88.5607 25.6731 88.0468 25.1812C87.6379 24.6544 87.416 24.0073 87.416 23.3414C87.416 22.6754 87.6379 22.0283 88.0468 21.5015C88.5554 20.9994 89.2424 20.7178 89.9584 20.7178C90.6744 20.7178 91.3614 20.9994 91.87 21.5015C92.2734 22.0307 92.4918 22.6769 92.4918 23.3414C92.4918 24.0058 92.2734 24.652 91.87 25.1812Z" fill="white"/>
<path fill-rule="evenodd" clip-rule="evenodd" d="M96.1008 20.7608H96.2133V22.0707H95.9884H95.8327C95.6273 22.0456 95.419 22.0793 95.2321 22.1678C95.0453 22.2563 94.8875 22.396 94.7774 22.5705C94.6668 22.8439 94.6166 23.1378 94.6304 23.4323V25.7763H93.3242V20.8642H94.5611V21.726C94.7006 21.4758 94.8787 21.249 95.0888 21.0538C95.3572 20.8451 95.6914 20.7382 96.0316 20.7522L96.1008 20.7608Z" fill="white"/>
<path fill-rule="evenodd" clip-rule="evenodd" d="M103.081 20.8976C103.311 20.9892 103.511 21.1411 103.661 21.3371C103.802 21.5217 103.897 21.7375 103.937 21.9662C103.974 22.2057 103.989 22.448 103.981 22.6901V25.7839H102.623V22.6556C102.629 22.4988 102.6 22.3426 102.536 22.1989C102.475 22.0858 102.381 21.993 102.268 21.9318C102.154 21.8706 102.025 21.8436 101.896 21.8542C101.742 21.8424 101.588 21.8782 101.454 21.9569C101.321 22.0355 101.216 22.1531 101.152 22.2937C101.079 22.4743 101.044 22.6678 101.048 22.8625V25.7839H99.7423V22.8625C99.7538 22.6457 99.7214 22.4288 99.6471 22.2248C99.5905 22.1069 99.4984 22.0096 99.3837 21.9463C99.269 21.883 99.1374 21.8568 99.0071 21.8714C98.8608 21.8523 98.7122 21.8755 98.5788 21.9381C98.4454 22.0007 98.3328 22.1002 98.2545 22.2248C98.175 22.4156 98.1395 22.6217 98.1507 22.828V25.7839H96.8359V20.8804H98.0988V21.5957C98.2211 21.3912 98.3759 21.2078 98.5573 21.0528C98.8438 20.8784 99.173 20.7861 99.5087 20.7861C99.8445 20.7861 100.174 20.8784 100.46 21.0528C100.65 21.2082 100.796 21.4102 100.884 21.6388C101.034 21.3745 101.252 21.1545 101.516 21.001C101.786 20.8728 102.081 20.8052 102.381 20.8029C102.618 20.7861 102.857 20.8183 103.081 20.8976Z" fill="white"/>
<path fill-rule="evenodd" clip-rule="evenodd" d="M107.812 23.3968C107.735 23.449 107.65 23.4896 107.561 23.5175C107.449 23.5575 107.333 23.5863 107.215 23.6037L106.913 23.664C106.706 23.6901 106.504 23.7482 106.316 23.8363C106.22 23.8903 106.141 23.9695 106.088 24.0653C106.034 24.1611 106.008 24.2698 106.013 24.3793C106.003 24.4678 106.016 24.5573 106.049 24.6399C106.082 24.7226 106.135 24.7958 106.203 24.8532C106.331 24.9546 106.49 25.0066 106.653 24.9997C106.934 25.0019 107.209 24.9176 107.44 24.7584C107.567 24.6551 107.667 24.5228 107.732 24.3728C107.797 24.2228 107.824 24.0595 107.812 23.8967V23.4227V23.3968ZM107.016 22.8022C107.194 22.7865 107.369 22.7459 107.535 22.6816C107.616 22.6595 107.686 22.6125 107.738 22.5474C107.789 22.4823 107.818 22.4024 107.821 22.3196C107.827 22.2374 107.811 22.155 107.772 22.0819C107.734 22.0087 107.676 21.9478 107.605 21.906C107.406 21.8196 107.19 21.7812 106.973 21.794C106.854 21.78 106.733 21.7929 106.619 21.8317C106.505 21.8704 106.402 21.9341 106.316 22.018C106.214 22.148 106.148 22.3026 106.125 22.4661H104.871C104.88 22.084 105.007 21.714 105.234 21.4062C105.463 21.1706 105.742 20.9901 106.051 20.8781C106.359 20.7661 106.69 20.7256 107.016 20.7598C107.519 20.7489 108.018 20.8583 108.47 21.0787C108.684 21.1938 108.86 21.3699 108.974 21.5848C109.088 21.7997 109.135 22.0435 109.11 22.2852V24.5344C109.11 24.6895 109.11 24.8791 109.11 25.1031C109.108 25.2226 109.134 25.3408 109.187 25.4478C109.24 25.5094 109.305 25.5593 109.378 25.5944V25.7839H107.968C107.93 25.6923 107.901 25.597 107.881 25.4995C107.876 25.402 107.876 25.3041 107.881 25.2066C107.697 25.398 107.488 25.5633 107.259 25.6978C106.966 25.8542 106.639 25.9342 106.307 25.9304C105.898 25.9497 105.496 25.8143 105.183 25.5513C105.033 25.4161 104.915 25.2491 104.839 25.0627C104.763 24.8762 104.729 24.6751 104.741 24.474C104.724 24.2113 104.781 23.9489 104.906 23.7171C105.032 23.4853 105.221 23.2936 105.451 23.1642C105.811 22.9887 106.201 22.8835 106.601 22.854L107.016 22.8022Z" fill="white"/>
<path fill-rule="evenodd" clip-rule="evenodd" d="M109.672 21.8374V20.9239H110.407V19.5537H111.687V20.9239H112.492V21.8374H111.687V24.4227C111.67 24.5514 111.697 24.6822 111.765 24.7932C111.817 24.845 111.973 24.8708 112.241 24.8708H112.492V25.8273H111.878C111.658 25.8638 111.434 25.855 111.218 25.8017C111.003 25.7483 110.8 25.6515 110.623 25.5171C110.544 25.4237 110.484 25.3153 110.446 25.1984C110.409 25.0815 110.396 24.9584 110.407 24.8363V21.8202L109.672 21.8374Z" fill="white"/>
<path fill-rule="evenodd" clip-rule="evenodd" d="M113.382 20.8721H114.731V25.7841H113.416V20.8721H113.382ZM114.696 20.2947H113.373V19.1055H114.731L114.696 20.2947Z" fill="white"/>
<path fill-rule="evenodd" clip-rule="evenodd" d="M118.674 22.6389C118.653 22.4593 118.588 22.2876 118.484 22.1391C118.403 22.0379 118.299 21.9582 118.179 21.9071C118.06 21.8559 117.93 21.835 117.801 21.8461C117.605 21.8394 117.414 21.8988 117.257 22.0146C117.1 22.1304 116.986 22.2958 116.936 22.4838C116.84 22.7756 116.796 23.0818 116.806 23.3886C116.796 23.6814 116.84 23.9734 116.936 24.2504C116.991 24.4336 117.106 24.5932 117.263 24.7039C117.42 24.8147 117.609 24.8704 117.801 24.8623C117.92 24.8746 118.041 24.8593 118.154 24.8174C118.266 24.7756 118.367 24.7083 118.449 24.621C118.583 24.4364 118.664 24.2188 118.683 23.9919H120.006C119.956 24.5411 119.695 25.0499 119.278 25.4126C118.861 25.7752 118.319 25.9639 117.766 25.9395C117.443 25.9617 117.12 25.9105 116.82 25.7895C116.52 25.6685 116.252 25.4811 116.036 25.2414C115.654 24.6799 115.454 24.0145 115.465 23.336C115.476 22.6575 115.697 21.9988 116.097 21.4497C116.315 21.213 116.584 21.0276 116.883 20.9068C117.182 20.7861 117.504 20.7331 117.827 20.7517C118.368 20.7269 118.903 20.8716 119.358 21.1653C119.575 21.3437 119.752 21.5672 119.874 21.8201C119.996 22.073 120.062 22.3495 120.067 22.6303L118.674 22.6389Z" fill="white"/>
<path fill-rule="evenodd" clip-rule="evenodd" d="M121.807 24.2162C121.814 24.3925 121.877 24.5619 121.989 24.6988C122.233 24.8929 122.543 24.9855 122.854 24.9573C123.062 24.9679 123.269 24.9296 123.459 24.8453C123.529 24.8203 123.588 24.7745 123.63 24.7143C123.672 24.6541 123.694 24.5824 123.693 24.5092C123.697 24.4421 123.681 24.3753 123.647 24.3171C123.613 24.259 123.563 24.2119 123.503 24.1817C123.064 24.0069 122.609 23.877 122.145 23.794C121.712 23.7149 121.304 23.538 120.951 23.2769C120.836 23.1652 120.746 23.0309 120.687 22.8825C120.627 22.734 120.599 22.5749 120.605 22.4151C120.605 22.1933 120.654 21.9742 120.748 21.7732C120.842 21.5722 120.979 21.3942 121.15 21.2517C121.576 20.9001 122.121 20.7243 122.672 20.7605C123.205 20.7368 123.733 20.8654 124.195 21.1311C124.4 21.273 124.568 21.4624 124.684 21.683C124.8 21.9036 124.861 22.1489 124.861 22.3979H123.563C123.556 22.2579 123.508 22.1231 123.425 22.0101C123.332 21.9111 123.217 21.8354 123.089 21.7889C122.962 21.7425 122.825 21.7268 122.69 21.7429C122.48 21.7263 122.269 21.7712 122.084 21.8722C122.031 21.9049 121.986 21.9504 121.954 22.0045C121.922 22.0587 121.905 22.1198 121.903 22.1825C121.9 22.2493 121.918 22.3153 121.953 22.3721C121.989 22.4289 122.04 22.4739 122.101 22.5013C122.544 22.6551 122.998 22.7732 123.459 22.8546C123.886 22.9341 124.285 23.121 124.619 23.3975C124.744 23.5157 124.843 23.6589 124.908 23.8179C124.974 23.9768 125.005 24.1478 124.999 24.3196C125.006 24.5462 124.961 24.7715 124.866 24.9777C124.772 25.184 124.631 25.3658 124.454 25.5089C123.951 25.8637 123.338 26.0287 122.724 25.9742C122.107 26.0212 121.494 25.847 120.994 25.483C120.813 25.3311 120.669 25.1408 120.572 24.9261C120.475 24.7113 120.427 24.4776 120.432 24.2421L121.807 24.2162Z" fill="white"/>
<path fill-rule="evenodd" clip-rule="evenodd" d="M77.347 27.9039C77.6586 27.6197 78.0245 27.4011 78.4228 27.2611C78.8212 27.1212 79.2438 27.0627 79.6653 27.0892C80.0869 27.1158 80.4987 27.2268 80.8762 27.4156C81.2537 27.6045 81.5891 27.8673 81.8622 28.1883C82.1316 28.5461 82.2909 28.9743 82.3207 29.4206H80.9194C80.8595 29.1593 80.7412 28.9148 80.5734 28.7053C80.4185 28.5526 80.2325 28.4348 80.028 28.3598C79.8235 28.2848 79.6052 28.2545 79.3878 28.2709C79.1705 28.2872 78.9593 28.3498 78.7684 28.4545C78.5774 28.5592 78.4113 28.7035 78.2812 28.8777C77.9646 29.3951 77.8137 29.9963 77.8487 30.6012C77.8039 31.1944 77.9658 31.7849 78.3071 32.273C78.4432 32.4499 78.6188 32.5926 78.8201 32.6899C79.0213 32.7871 79.2426 32.8362 79.4662 32.8332C79.6738 32.845 79.8812 32.8084 80.0719 32.726C80.2627 32.6437 80.4315 32.5181 80.5647 32.3592C80.7316 32.1288 80.8521 31.8683 80.9194 31.5922H82.312C82.206 32.2538 81.8801 32.8608 81.3865 33.3158C80.8661 33.7822 80.1828 34.0266 79.4835 33.9966C79.0645 34.0166 78.6461 33.9453 78.2577 33.7875C77.8692 33.6297 77.52 33.3893 77.2345 33.0831C76.6788 32.3212 76.3889 31.3989 76.4092 30.4574C76.4295 29.5158 76.7589 28.6068 77.347 27.8694V27.9039Z" fill="white"/>
<path fill-rule="evenodd" clip-rule="evenodd" d="M84.5453 30.1451C84.3507 30.3539 84.2293 30.62 84.1993 30.9034H86.4396C86.4364 30.7582 86.4032 30.6151 86.3422 30.4832C86.2812 30.3513 86.1936 30.2332 86.0849 30.1364C85.8749 29.9536 85.6024 29.858 85.3237 29.8693C85.182 29.8607 85.0401 29.8807 84.9063 29.9281C84.7725 29.9755 84.6497 30.0493 84.5453 30.1451ZM86.4915 29.042C86.8396 29.202 87.1382 29.4519 87.3565 29.7659C87.5609 30.0716 87.6939 30.4191 87.7457 30.7827C87.7769 31.1066 87.7769 31.4327 87.7457 31.7565H84.1301C84.1219 31.9585 84.1653 32.1593 84.256 32.3401C84.3468 32.5209 84.482 32.6759 84.6491 32.7907C84.8669 32.9161 85.1155 32.9787 85.367 32.9716C85.6257 32.9866 85.881 32.9069 86.0849 32.7476C86.1981 32.6566 86.2897 32.5418 86.3531 32.4115H87.6852C87.6188 32.7424 87.4493 33.044 87.2008 33.2733C86.9575 33.5169 86.6653 33.7066 86.3433 33.8298C86.0213 33.9531 85.6768 34.0072 85.3324 33.9885C84.7031 33.9925 84.0919 33.7794 83.6024 33.3853C83.3347 33.1368 83.1277 32.8305 82.9973 32.4899C82.8668 32.1493 82.8164 31.7835 82.8499 31.4205C82.8254 31.0653 82.8733 30.7089 82.9907 30.3727C83.1081 30.0365 83.2927 29.7275 83.5332 29.4642C83.766 29.2355 84.0435 29.0569 84.3486 28.9398C84.6537 28.8226 84.9798 28.7694 85.3065 28.7834C85.7155 28.784 86.1196 28.8722 86.4915 29.042Z" fill="white"/>
<path fill-rule="evenodd" clip-rule="evenodd" d="M92.3537 29.2226C92.5295 29.3913 92.6645 29.5977 92.7485 29.8262C92.8324 30.0546 92.863 30.2991 92.838 30.541V33.8502H91.506V30.8427C91.5142 30.6401 91.4819 30.438 91.4108 30.2481C91.3404 30.1209 91.2339 30.0171 91.1047 29.9497C90.9755 29.8823 90.8293 29.8542 90.6842 29.8689C90.4929 29.8547 90.3019 29.9012 90.1387 30.0019C89.9755 30.1025 89.8486 30.252 89.776 30.429C89.6888 30.6662 89.6477 30.9177 89.6549 31.1701V33.833H88.3574V28.9468H89.6462V29.6621C89.774 29.4564 89.9347 29.273 90.122 29.1191C90.4182 28.914 90.7736 28.8111 91.134 28.8261C91.5743 28.8144 92.0051 28.9544 92.3537 29.2226Z" fill="white"/>
<path fill-rule="evenodd" clip-rule="evenodd" d="M93.4453 29.9038V28.9817H94.1373V27.6201H95.4261V28.9817H96.2305V29.9038H95.4261V32.4891C95.4082 32.6206 95.4357 32.7543 95.504 32.8683C95.5559 32.92 95.7116 32.9458 95.9797 32.9458H96.2305V33.9024H95.6164C95.3972 33.9388 95.1728 33.9301 94.957 33.8767C94.7413 33.8234 94.5389 33.7265 94.3622 33.5921C94.1999 33.4037 94.119 33.159 94.1373 32.9113V29.8952L93.4453 29.9038Z" fill="white"/>
<path fill-rule="evenodd" clip-rule="evenodd" d="M99.7336 28.8262H99.8461V30.136H99.6298H99.4741C99.2686 30.1099 99.06 30.1431 98.8729 30.2317C98.6858 30.3203 98.5282 30.4606 98.4189 30.6359C98.3077 30.9091 98.2575 31.2032 98.2718 31.4976V33.8502H96.957V28.9382H98.2026V29.8C98.3389 29.5502 98.5174 29.3257 98.7302 29.1364C98.9968 28.9242 99.3323 28.8169 99.6731 28.8348L99.7336 28.8262Z" fill="white"/>
<path fill-rule="evenodd" clip-rule="evenodd" d="M101.81 30.1451C101.615 30.354 101.494 30.6201 101.464 30.9035H103.704C103.703 30.7588 103.671 30.616 103.612 30.484C103.552 30.352 103.466 30.2337 103.358 30.1365C103.144 29.9554 102.869 29.8601 102.588 29.8693C102.447 29.8608 102.305 29.8808 102.171 29.9282C102.037 29.9755 101.914 30.0493 101.81 30.1451ZM103.756 29.042C104.107 29.1975 104.407 29.4484 104.621 29.7659C104.832 30.0691 104.968 30.4174 105.019 30.7828C105.06 31.1057 105.075 31.4314 105.062 31.7566H101.438C101.43 31.9586 101.473 32.1594 101.564 32.3402C101.655 32.521 101.79 32.676 101.957 32.7907C102.175 32.9161 102.423 32.9788 102.675 32.9717C102.934 32.9866 103.189 32.9069 103.393 32.7476C103.506 32.6567 103.598 32.5419 103.661 32.4115H104.993C104.927 32.7424 104.757 33.044 104.509 33.2733C104.266 33.5183 103.974 33.7088 103.652 33.8322C103.33 33.9556 102.985 34.0089 102.64 33.9886C102.011 33.9947 101.399 33.7813 100.91 33.3853C100.639 33.1389 100.43 32.8331 100.298 32.4921C100.166 32.1512 100.115 31.7844 100.149 31.4205C100.125 31.0654 100.172 30.709 100.29 30.3728C100.407 30.0366 100.592 29.7275 100.832 29.4643C101.067 29.2353 101.346 29.0566 101.652 28.9395C101.959 28.8224 102.286 28.7693 102.614 28.7835C103.009 28.7889 103.398 28.877 103.756 29.042Z" fill="white"/>
</svg>
