<svg width="125" height="33" viewBox="0 0 125 33" fill="none" xmlns="http://www.w3.org/2000/svg">
<path d="M73.574 18.6748H63.2656C63.5736 19.0772 63.8683 19.478 64.1556 19.8797H73.574V18.6748Z" fill="white"/>
<path d="M67.0744 23.8292H73.5739V22.8926H66.3418C66.4784 23.091 66.942 23.8292 67.0744 23.8292Z" fill="white"/>
<path d="M53.9336 23.8292H60.433V22.8926H53.9336V23.8292Z" fill="white"/>
<path d="M73.5736 3.94849H67.0742V10.0904C67.0742 10.4426 67.0842 11.1611 67.109 11.9149H73.5736V3.94849Z" fill="white"/>
<path d="M64.3529 9.55543C63.2278 8.03289 62.3189 6.50801 61.1963 4.98469C61.1177 4.87958 60.5754 3.94849 60.433 3.94849H53.9336V11.9149H65.8794C65.4034 11.1062 64.91 10.3092 64.3529 9.55543Z" fill="white"/>
<path d="M73.5729 16.1987H61.5625C61.8862 16.7204 62.2198 17.2349 62.5725 17.7377H73.5729V16.1987Z" fill="white"/>
<path d="M60.0092 13.6536C60.3022 14.1195 60.5862 14.5902 60.8701 15.0608H73.5726V13.0527H67.1593C67.1998 13.7265 67.2578 14.2764 67.3381 14.4082C67.0657 13.9611 66.8025 13.5077 66.5392 13.0527H53.9336V15.0608H60.2881C60.212 14.3525 60.1126 13.8183 60.0092 13.6536Z" fill="white"/>
<path d="M60.433 18.6748H53.9336V19.8797H60.433V18.6748Z" fill="white"/>
<path d="M60.3817 16.1987H53.9336V17.7377H60.4322C60.4297 17.2216 60.4115 16.696 60.3817 16.1987Z" fill="white"/>
<path d="M64.8203 20.8174C65.096 21.2064 65.3733 21.5947 65.6589 21.9846L73.5723 21.9618V20.8174H64.8203Z" fill="white"/>
<path d="M60.433 20.8174H53.9336V22.0167L60.433 21.9987V20.8174Z" fill="white"/>
<path d="M82.474 3.94849H75.9746V11.9149H82.474V3.94849Z" fill="white"/>
<path d="M75.9746 23.8292H82.474V22.8926H75.9746V23.8292Z" fill="white"/>
<path d="M75.9746 20.8174V21.9532L82.474 21.9352V20.8174H75.9746Z" fill="white"/>
<path d="M75.9746 19.8797H82.474V18.6748H75.9746V19.8797Z" fill="white"/>
<path d="M75.9746 17.7377H82.474V16.1987H75.9746V17.7377Z" fill="white"/>
<path d="M82.474 13.0527H75.9746V15.0608H82.474V13.0527Z" fill="white"/>
<path d="M87.8725 21.9203L97.7239 21.8928C97.7106 21.5422 97.6957 21.1759 97.6817 20.8174H86.668C87.0397 21.2135 87.442 21.583 87.8725 21.9203Z" fill="white"/>
<path d="M91.423 23.7115C92.4727 23.9955 93.5696 24.1586 94.6615 24.179C94.9827 24.1845 97.8115 24.0817 97.8032 23.877C97.8032 23.877 97.7875 23.4754 97.7643 22.8926H89.3633C90.0098 23.2369 90.6978 23.5146 91.423 23.7115Z" fill="white"/>
<path d="M95.6779 8.89514C96.2739 8.88887 97.0579 8.92338 97.591 9.09595L97.803 3.83494C96.9544 3.63413 95.6439 3.52588 94.73 3.52588C89.4102 3.52588 84.9821 7.13807 84.0234 11.9143H91.0245C91.7655 10.1635 93.5627 8.91789 95.6779 8.89514Z" fill="white"/>
<path d="M84.649 17.7377H93.1817C92.4747 17.3479 91.8753 16.8263 91.4382 16.1987H84.125C84.2575 16.7227 84.4338 17.2381 84.649 17.7377Z" fill="white"/>
<path d="M85.8851 19.8797H97.6438C97.6231 19.3416 97.6049 18.8991 97.5966 18.6748H85.1094C85.3403 19.0921 85.5986 19.4945 85.8851 19.8797Z" fill="white"/>
<path d="M90.7067 13.0527H83.8646C83.8422 13.3179 83.8281 13.5853 83.8281 13.856C83.8281 14.2592 83.8554 14.6616 83.9068 15.0608H90.8731C90.7407 14.6545 90.6661 14.2199 90.6603 13.7611C90.6579 13.5202 90.6736 13.2841 90.7067 13.0527Z" fill="white"/>
<path d="M122.294 10.7495H116.136V2.97761H122.294V10.7495ZM122.294 13.8322H116.136V11.8649H122.294V13.8322ZM122.294 16.4553H116.136V14.9477H122.294V16.4553ZM122.294 18.5544H116.136V17.3738H122.294V18.5544ZM122.294 20.5742L116.136 20.5781V19.4721H122.294V20.5742ZM122.294 22.4238V22.4599H116.136V21.5061H122.294V22.4238ZM114.106 18.5544H104.05C104.085 18.0484 104.117 17.6178 104.134 17.3738C104.144 17.2373 104.15 17.1581 104.15 17.1581C104.383 17.2271 104.683 17.3072 105.009 17.3738C105.708 17.5166 106.532 17.5966 107.108 17.3738H114.231C114.231 17.7715 114.191 18.1669 114.106 18.5544ZM113.16 20.5797L103.904 20.5852C103.93 20.2306 103.957 19.8486 103.984 19.4721H113.812C113.647 19.8588 113.43 20.2306 113.16 20.5797ZM111.423 22.0003C111.067 22.1752 110.694 22.314 110.311 22.4238C109.019 22.7933 107.607 22.8184 106.286 22.6748C106.153 22.6607 105.346 22.547 104.685 22.4238C104.195 22.3321 103.786 22.2348 103.791 22.1681C103.791 22.1681 103.81 21.9069 103.839 21.5061H112.224C111.974 21.6936 111.706 21.8606 111.423 22.0003ZM103.414 9.89765C102.944 8.38531 103.148 6.78747 103.999 5.42966C104.839 4.09147 106.178 3.31333 107.685 2.94545C109.225 2.56815 110.939 2.6207 112.473 2.94545C112.905 3.03644 113.322 3.14939 113.718 3.28039L113.372 7.83779C112.236 7.5052 110.076 7.24714 109.512 8.24255C109.023 9.10618 109.826 10.0788 110.46 10.7495H103.764C103.626 10.4805 103.507 10.1981 103.414 9.89765ZM106.161 13.8322C105.595 13.1678 104.992 12.5434 104.476 11.8649H111.519C111.594 11.9457 111.671 12.0265 111.745 12.1089C112.241 12.6556 112.71 13.2243 113.112 13.8322H106.161ZM113.718 14.9477C113.926 15.4356 114.074 15.9431 114.155 16.4553H107.799C107.8 16.3902 107.796 16.3235 107.787 16.2576C107.723 15.7634 107.455 15.3406 107.134 14.9477H113.718ZM0 0V2.14222H100.558V24.3652H125V0H0Z" fill="white"/>
<path d="M116.137 22.4601H122.294V22.4238H116.137V22.4601Z" fill="white"/>
<path d="M13.3145 4.21143H14.5173L16.697 7.83931V4.21143H17.7658V9.4144H16.6184L14.3832 5.72298V9.4144H13.3145V4.21143Z" fill="white"/>
<path d="M20.1858 7.44867H21.5915L20.8986 5.40137L20.1858 7.44867ZM20.2611 4.21143H21.5592L23.5021 9.4144H22.2579L21.8953 8.34525H19.8737L19.5012 9.4144H18.3008L20.2611 4.21143Z" fill="white"/>
<path d="M27.4754 4.21143V5.1331H25.8321V9.4144H24.6772V5.1331H23.0273V4.21143H27.4754Z" fill="white"/>
<path d="M29.0384 9.4144H27.8984V4.21143H29.0384V9.4144Z" fill="white"/>
<path d="M33.4721 8.16195C33.7386 7.84426 33.8719 7.39244 33.8719 6.80649C33.8719 6.22289 33.7386 5.77186 33.4721 5.4526C33.2047 5.13414 32.8437 4.97412 32.3901 4.97412C31.9348 4.97412 31.5722 5.13335 31.3015 5.45104C31.0307 5.76872 30.8958 6.22054 30.8958 6.80649C30.8958 7.39244 31.0307 7.84426 31.3015 8.16195C31.5722 8.47963 31.9348 8.63808 32.3901 8.63808C32.8437 8.63808 33.2047 8.47963 33.4721 8.16195ZM34.189 8.95263C33.7742 9.35738 33.174 9.55976 32.3901 9.55976C31.6044 9.55976 31.0051 9.35738 30.5903 8.95263C30.034 8.4561 29.7559 7.74072 29.7559 6.80649C29.7559 5.85344 30.034 5.13806 30.5903 4.66035C31.0051 4.2556 31.6044 4.05322 32.3901 4.05322C33.174 4.05322 33.7742 4.2556 34.189 4.66035C34.7428 5.13806 35.0193 5.85344 35.0193 6.80649C35.0193 7.74072 34.7428 8.4561 34.189 8.95263Z" fill="white"/>
<path d="M35.7227 4.21143H36.9255L39.1052 7.83931V4.21143H40.1748V9.4144H39.0274L36.7922 5.72298V9.4144H35.7227V4.21143Z" fill="white"/>
<path d="M42.5951 7.44867H44.0016L43.3079 5.40137L42.5951 7.44867ZM42.6713 4.21143H43.9693L45.9123 9.4144H44.668L44.3055 8.34525H42.283L41.9113 9.4144H40.7109L42.6713 4.21143Z" fill="white"/>
<path d="M46.4551 4.21143H47.6025V8.47938H50.3443V9.4144H46.4551V4.21143Z" fill="white"/>
<path d="M1.13995 16.6436H0V11.4407H1.13995V16.6436Z" fill="white"/>
<path d="M2.04102 11.4404H3.24388L5.4236 15.0683V11.4404H6.49318V16.6434H5.34578L3.11059 12.952V16.6434H2.04102V11.4404Z" fill="white"/>
<path d="M7.41797 11.4473H11.3337V12.3619H8.55791V13.5581H10.9901V14.4617H8.55791V16.6432H7.41797V11.4473Z" fill="white"/>
<path d="M15.4361 15.3909C15.7035 15.0733 15.8368 14.6214 15.8368 14.0355C15.8368 13.4519 15.7035 13.0009 15.4361 12.6816C15.1695 12.3631 14.8086 12.2031 14.3541 12.2031C13.8996 12.2031 13.537 12.3624 13.2663 12.68C12.9956 12.9977 12.8606 13.4495 12.8606 14.0355C12.8606 14.6214 12.9956 15.0733 13.2663 15.3909C13.537 15.7086 13.8996 15.8671 14.3541 15.8671C14.8086 15.8671 15.1695 15.7086 15.4361 15.3909ZM16.1538 16.1816C15.7391 16.5864 15.1389 16.7888 14.3541 16.7888C13.5693 16.7888 12.9699 16.5864 12.5552 16.1816C11.9989 15.6851 11.7207 14.9697 11.7207 14.0355C11.7207 13.0824 11.9989 12.3671 12.5552 11.8894C12.9699 11.4846 13.5693 11.2822 14.3541 11.2822C15.1389 11.2822 15.7391 11.4846 16.1538 11.8894C16.7077 12.3671 16.9842 13.0824 16.9842 14.0355C16.9842 14.9697 16.7077 15.6851 16.1538 16.1816Z" fill="white"/>
<path d="M18.8553 12.3441V13.7419H20.0904C20.3355 13.7419 20.5193 13.7136 20.6426 13.6572C20.8595 13.5583 20.9679 13.363 20.9679 13.0712C20.9679 12.7559 20.8628 12.5441 20.6534 12.4358C20.535 12.3747 20.3578 12.3441 20.1219 12.3441H18.8553ZM21.2271 11.5746C21.4291 11.6569 21.6004 11.7785 21.7412 11.9385C21.8571 12.0703 21.9489 12.2162 22.0168 12.3762C22.0847 12.5362 22.1187 12.7182 22.1187 12.923C22.1187 13.17 22.0533 13.4132 21.9216 13.6525C21.79 13.8909 21.5723 14.0596 21.2693 14.1584C21.5226 14.2549 21.7022 14.3922 21.8082 14.5694C21.9133 14.7475 21.9663 15.0189 21.9663 15.3836V15.7327C21.9663 15.9704 21.9763 16.132 21.9961 16.2167C22.0268 16.3508 22.0971 16.4497 22.2081 16.5132V16.6434H20.9415C20.9067 16.5281 20.8819 16.4355 20.8669 16.3649C20.8371 16.219 20.8214 16.0692 20.8189 15.9163L20.8115 15.4331C20.8065 15.1013 20.7461 14.8801 20.6302 14.7695C20.5135 14.6589 20.2957 14.6032 19.9762 14.6032H18.8553V16.6434H17.7344V11.4404H20.3603C20.7362 11.4475 21.0251 11.4922 21.2271 11.5746Z" fill="white"/>
<path d="M26.7084 11.4404H28.3592V16.6434H27.2904V13.1246C27.2904 13.0234 27.2912 12.8814 27.2937 12.6994C27.2962 12.5166 27.2979 12.3762 27.2979 12.2774L26.2573 16.6434H25.1422L24.109 12.2774C24.109 12.3762 24.1098 12.5166 24.1123 12.6994C24.1148 12.8814 24.1156 13.0234 24.1156 13.1246V16.6434H23.0469V11.4404H24.7166L25.7159 15.5319L26.7084 11.4404Z" fill="white"/>
<path d="M30.762 14.6777H32.1676L31.4747 12.6304L30.762 14.6777ZM30.8373 11.4404H32.1354L34.0783 16.6434H32.8341L32.4715 15.5743H30.4499L30.0773 16.6434H28.877L30.8373 11.4404Z" fill="white"/>
<path d="M38.0535 11.4404V12.3621H36.411V16.6434H35.2562V12.3621H33.6055V11.4404H38.0535Z" fill="white"/>
<path d="M39.6165 16.6434H38.4766V11.4404H39.6165V16.6434Z" fill="white"/>
<path d="M41.0602 11.9842C41.5022 11.5559 42.0652 11.3418 42.7481 11.3418C43.6621 11.3418 44.3301 11.6289 44.7532 12.2031C44.9866 12.5255 45.1116 12.8494 45.129 13.1742H43.9816C43.9088 12.9247 43.8144 12.7365 43.7002 12.6094C43.4957 12.3835 43.1935 12.2705 42.792 12.2705C42.3831 12.2705 42.0602 12.4298 41.8243 12.749C41.5883 13.0675 41.4708 13.5185 41.4708 14.1021C41.4708 14.6857 41.5949 15.1234 41.8441 15.4137C42.0933 15.7039 42.4095 15.8498 42.7937 15.8498C43.1869 15.8498 43.4874 15.7251 43.6935 15.4756C43.8078 15.3415 43.9022 15.1399 43.9775 14.8716H45.1174C45.0189 15.4388 44.7681 15.9 44.3641 16.2553C43.9601 16.6107 43.4419 16.7887 42.8102 16.7887C42.0296 16.7887 41.4153 16.5487 40.9683 16.0686C40.5204 15.5862 40.2969 14.925 40.2969 14.0849C40.2969 13.1765 40.551 12.476 41.0602 11.9842Z" fill="white"/>
<path d="M46.7222 15.0377C46.7578 15.2754 46.8282 15.4527 46.9316 15.5704C47.122 15.7845 47.4474 15.892 47.9093 15.892C48.1858 15.892 48.4102 15.8637 48.5824 15.8072C48.9094 15.699 49.0733 15.4974 49.0733 15.2033C49.0733 15.0315 48.993 14.8989 48.8332 14.8048C48.6726 14.713 48.4185 14.6314 48.0708 14.5608L47.4755 14.4377C46.8919 14.3153 46.4904 14.182 46.2718 14.0384C45.9018 13.7984 45.7164 13.4234 45.7164 12.9128C45.7164 12.4468 45.8977 12.0594 46.2594 11.7511C46.622 11.4428 47.1535 11.2891 47.8547 11.2891C48.4408 11.2891 48.94 11.4342 49.3539 11.7252C49.7678 12.0154 49.9839 12.4374 50.0046 12.9904H48.9019C48.8812 12.6775 48.7339 12.4547 48.459 12.3229C48.2752 12.2358 48.0476 12.1927 47.7752 12.1927C47.4722 12.1927 47.2305 12.2492 47.0492 12.3621C46.8687 12.4751 46.7785 12.6328 46.7785 12.8351C46.7785 13.021 46.8671 13.1599 47.0459 13.2516C47.1601 13.3128 47.4035 13.3842 47.7752 13.4666L48.7388 13.6823C49.161 13.7764 49.4781 13.9019 49.6884 14.0596C50.0162 14.3043 50.1793 14.6589 50.1793 15.1225C50.1793 15.5978 49.9856 15.9924 49.5981 16.3061C49.2099 16.6207 48.6618 16.7776 47.954 16.7776C47.2313 16.7776 46.6626 16.623 46.2487 16.3132C45.8339 16.0041 45.627 15.579 45.627 15.0377H46.7222Z" fill="white"/>
<path d="M20.9039 19.2132C21.346 18.7849 21.9089 18.5708 22.5919 18.5708C23.5058 18.5708 24.1739 18.8579 24.5961 19.4321C24.8296 19.7545 24.9554 20.0784 24.9728 20.4032H23.8254C23.7517 20.1537 23.6581 19.9655 23.5439 19.8384C23.3394 19.6125 23.0364 19.4995 22.6349 19.4995C22.2268 19.4995 21.9039 19.6588 21.668 19.978C21.4321 20.2965 21.3145 20.7475 21.3145 21.3311C21.3145 21.9147 21.4387 22.3524 21.6879 22.6427C21.9371 22.9329 22.2533 23.0788 22.6366 23.0788C23.0306 23.0788 23.3303 22.9541 23.5373 22.7046C23.6507 22.5705 23.7459 22.3689 23.8212 22.1006H24.9612C24.8627 22.6678 24.6118 23.129 24.2078 23.4851C23.803 23.8397 23.2856 24.0177 22.654 24.0177C21.8725 24.0177 21.2582 23.7777 20.8112 23.2976C20.3641 22.8152 20.1406 22.154 20.1406 21.3139C20.1406 20.4055 20.3948 19.7051 20.9039 19.2132Z" fill="white"/>
<path d="M29.7962 19.5916H26.8904V20.696H29.5578V21.5997H26.8904V22.9379H29.9303V23.8729H25.7695V18.6699H29.7962V19.5916Z" fill="white"/>
<path d="M30.6523 18.6699H31.8552L34.0349 22.2978V18.6699H35.1045V23.8729H33.9571L31.7219 20.1815V23.8729H30.6523V18.6699Z" fill="white"/>
<path d="M40.0203 18.6699V19.5916H38.377V23.8729H37.2222V19.5916H35.5723V18.6699H40.0203Z" fill="white"/>
<path d="M41.6854 19.5736V20.9714H42.9205C43.1655 20.9714 43.3493 20.9431 43.4727 20.8867C43.6896 20.7878 43.798 20.5925 43.798 20.3007C43.798 19.9854 43.6929 19.7736 43.4826 19.6653C43.3651 19.6042 43.1879 19.5736 42.952 19.5736H41.6854ZM44.0571 18.8041C44.2591 18.8864 44.4305 19.008 44.5712 19.168C44.6871 19.2998 44.779 19.4457 44.8469 19.6057C44.9148 19.7657 44.9487 19.9477 44.9487 20.1525C44.9487 20.3995 44.8833 20.6427 44.7517 20.8819C44.6201 21.1204 44.4024 21.2891 44.0994 21.3879C44.3527 21.4844 44.5323 21.6216 44.6383 21.7989C44.7434 21.977 44.7964 22.2484 44.7964 22.6131V22.9622C44.7964 23.1999 44.8063 23.3615 44.8262 23.4462C44.8568 23.5803 44.9272 23.6791 45.0381 23.7427V23.8729H43.7715C43.7368 23.7576 43.7119 23.665 43.697 23.5944C43.6672 23.4485 43.6515 23.2987 43.649 23.1457L43.6416 22.6626C43.6366 22.3307 43.5762 22.1095 43.4594 21.9989C43.3435 21.8883 43.1258 21.8327 42.8063 21.8327H41.6854V23.8729H40.5645V18.6699H43.1904C43.5662 18.677 43.8551 18.7217 44.0571 18.8041Z" fill="white"/>
<path d="M49.9524 19.5916H47.0467V20.696H49.714V21.5997H47.0467V22.9379H50.0865V23.8729H45.9258V18.6699H49.9524V19.5916Z" fill="white"/>
<path d="M65.7305 25.8373V25.9043" stroke="white" stroke-width="1.33333" stroke-miterlimit="10"/>
<path d="M88.8748 28.0781C88.5337 28.0781 88.2614 28.1974 88.0586 28.435C87.8557 28.6735 87.7539 29.0124 87.7539 29.4516C87.7539 29.8909 87.8557 30.2305 88.0586 30.4682C88.2614 30.7067 88.5337 30.8259 88.8748 30.8259C89.2151 30.8259 89.4858 30.7067 89.6861 30.4682C89.8864 30.2305 89.9866 29.8909 89.9866 29.4516C89.9866 29.0139 89.8864 28.6758 89.6861 28.4366C89.4858 28.1974 89.2151 28.0781 88.8748 28.0781Z" fill="white"/>
<path d="M95.4278 28.2534C95.3392 28.2071 95.2068 28.1836 95.0296 28.1836H94.0801V29.2323H95.0064C95.1902 29.2323 95.3276 29.2112 95.4204 29.1688C95.5826 29.0943 95.6638 28.9484 95.6638 28.7295C95.6638 28.4927 95.5851 28.3342 95.4278 28.2534Z" fill="white"/>
<path d="M100.191 29.9343H101.246L100.725 28.3984L100.191 29.9343Z" fill="white"/>
<path d="M83.1702 28.1836H82.3945V29.3335H83.1702C83.3664 29.3335 83.5187 29.2865 83.628 29.1923C83.7373 29.099 83.7919 28.9507 83.7919 28.7484C83.7919 28.5452 83.7373 28.4001 83.628 28.3138C83.5187 28.2275 83.3664 28.1836 83.1702 28.1836Z" fill="white"/>
<path d="M77.879 28.2534C77.7904 28.2071 77.658 28.1836 77.4808 28.1836H76.5312V29.2323H77.4576C77.6414 29.2323 77.7788 29.2112 77.8715 29.1688C78.0338 29.0943 78.1149 28.9484 78.1149 28.7295C78.1149 28.4927 78.0363 28.3342 77.879 28.2534Z" fill="white"/>
<path d="M71.324 28.0781C70.983 28.0781 70.7106 28.1974 70.5078 28.435C70.305 28.6735 70.2031 29.0124 70.2031 29.4516C70.2031 29.8909 70.305 30.2305 70.5078 30.4682C70.7106 30.7067 70.983 30.8259 71.324 30.8259C71.6643 30.8259 71.935 30.7067 72.1353 30.4682C72.3357 30.2305 72.4358 29.8909 72.4358 29.4516C72.4358 29.0139 72.3357 28.6758 72.1353 28.4366C71.935 28.1974 71.6643 28.0781 71.324 28.0781Z" fill="white"/>
<path d="M116.872 28.1836H116.076V30.7313H116.872C117.278 30.7313 117.562 30.5407 117.722 30.1619C117.81 29.9532 117.854 29.7053 117.854 29.4183C117.854 29.0206 117.788 28.7154 117.657 28.5036C117.525 28.2903 117.263 28.1836 116.872 28.1836Z" fill="white"/>
<path d="M19.7353 28.2534C19.6467 28.2071 19.5142 28.1836 19.3371 28.1836H18.3867V29.2323H19.3131C19.4969 29.2323 19.6351 29.2112 19.727 29.1688C19.8901 29.0943 19.9712 28.9484 19.9712 28.7295C19.9712 28.4927 19.8926 28.3342 19.7353 28.2534Z" fill="white"/>
<path d="M118.398 30.6804C118.1 31.166 117.64 31.4083 117.016 31.4083H115.241V27.5059H117.016C117.272 27.5098 117.484 27.5381 117.654 27.5906C117.943 27.6808 118.177 27.8463 118.356 28.0864C118.5 28.2801 118.597 28.4903 118.65 28.7163C118.702 28.9422 118.728 29.1571 118.728 29.3626C118.728 29.8811 118.617 30.3204 118.398 30.6804ZM112.854 31.4083H109.733V27.5059H112.753V28.1978H110.574V29.0261H112.574V29.7038H110.574V30.7071H112.854V31.4083ZM107.488 28.1978H106.257V31.4083H105.39V28.1978H104.152V27.5059H107.488V28.1978ZM101.744 31.4083L101.473 30.6067H99.956L99.677 31.4083H98.7763L100.247 27.5059H101.22L102.677 31.4083H101.744ZM96.5949 31.4083H95.6454C95.6189 31.3221 95.6007 31.2522 95.5891 31.1997C95.5667 31.0899 95.5551 30.9777 95.5526 30.8632L95.5477 30.5008C95.5435 30.2513 95.498 30.0858 95.4111 30.0027C95.3242 29.9203 95.1611 29.8787 94.921 29.8787H94.0807V31.4083H93.2396V27.5059H95.2091C95.4905 27.5122 95.7074 27.5451 95.8589 27.6071C96.0104 27.6683 96.1396 27.7593 96.2447 27.8801C96.3316 27.9789 96.4012 28.0879 96.4517 28.208C96.503 28.328 96.5278 28.4652 96.5278 28.6182C96.5278 28.8033 96.4782 28.9861 96.3797 29.1649C96.2811 29.3446 96.1181 29.4709 95.8912 29.5454C96.0808 29.6168 96.2157 29.7203 96.2944 29.8536C96.3739 29.987 96.4136 30.1902 96.4136 30.4639V30.7259C96.4136 30.904 96.4211 31.0248 96.436 31.0883C96.4591 31.1887 96.5121 31.2632 96.5949 31.3111V31.4083ZM90.2238 31.0616C89.9125 31.3652 89.463 31.5174 88.8744 31.5174C88.2858 31.5174 87.8354 31.3652 87.525 31.0616C87.1078 30.6898 86.8991 30.1525 86.8991 29.452C86.8991 28.7374 87.1078 28.2009 87.525 27.8424C87.8354 27.5389 88.2858 27.3875 88.8744 27.3875C89.463 27.3875 89.9125 27.5389 90.2238 27.8424C90.6394 28.2009 90.8463 28.7374 90.8463 29.452C90.8463 30.1525 90.6394 30.6898 90.2238 31.0616ZM84.284 29.7195C84.0431 29.9101 83.6987 30.0058 83.2516 30.0058H82.394V31.4083H81.5388V27.5059H83.3071C83.7152 27.5059 84.0398 27.6071 84.2823 27.8079C84.5249 28.0095 84.6457 28.3209 84.6457 28.7429C84.6457 29.2034 84.5257 29.5289 84.284 29.7195ZM79.0454 31.4083H78.0958C78.0693 31.3221 78.0511 31.2522 78.0395 31.1997C78.0172 31.0899 78.0048 30.9777 78.0031 30.8632L77.9981 30.5008C77.994 30.2513 77.9493 30.0858 77.8615 30.0027C77.7746 29.9203 77.6115 29.8787 77.3715 29.8787H76.5312V31.4083H75.6901V27.5059H77.6595C77.9418 27.5122 78.1579 27.5451 78.3094 27.6071C78.4617 27.6683 78.59 27.7593 78.6952 27.8801C78.7821 27.9789 78.8516 28.0879 78.9021 28.208C78.9535 28.328 78.9783 28.4652 78.9783 28.6182C78.9783 28.8033 78.9295 28.9861 78.8301 29.1649C78.7316 29.3446 78.5685 29.4709 78.3417 29.5454C78.5313 29.6168 78.6662 29.7203 78.7449 29.8536C78.8243 29.987 78.8641 30.1902 78.8641 30.4639V30.7259C78.8641 30.904 78.8715 31.0248 78.8864 31.0883C78.9096 31.1887 78.9626 31.2632 79.0454 31.3111V31.4083ZM72.6742 31.0616C72.363 31.3652 71.9135 31.5174 71.3249 31.5174C70.7363 31.5174 70.2859 31.3652 69.9755 31.0616C69.5582 30.6898 69.3496 30.1525 69.3496 29.452C69.3496 28.7374 69.5582 28.2009 69.9755 27.8424C70.2859 27.5389 70.7363 27.3875 71.3249 27.3875C71.9135 27.3875 72.363 27.5389 72.6742 27.8424C73.0898 28.2009 73.2968 28.7374 73.2968 29.452C73.2968 30.1525 73.0898 30.6898 72.6742 31.0616ZM64.635 30.4859C64.8221 30.7039 65.0597 30.813 65.3478 30.813C65.6425 30.813 65.8677 30.7196 66.0225 30.5322C66.1086 30.4318 66.179 30.2811 66.2352 30.0796H67.0904C67.0167 30.5047 66.828 30.8514 66.525 31.1173C66.222 31.384 65.8337 31.5174 65.3602 31.5174C64.7741 31.5174 64.3138 31.337 63.9785 30.9769C63.6433 30.6153 63.4752 30.1196 63.4752 29.4889C63.4752 28.808 63.6656 28.2833 64.0472 27.9146C64.3792 27.593 64.8014 27.4322 65.3139 27.4322C65.9993 27.4322 66.5002 27.6479 66.8172 28.0777C66.9919 28.3201 67.0863 28.5625 67.0987 28.8065H66.2386C66.1839 28.619 66.1136 28.4778 66.0275 28.3829C65.8743 28.2134 65.6475 28.1287 65.3461 28.1287C65.0398 28.1287 64.7981 28.248 64.6209 28.4872C64.4438 28.7264 64.3552 29.0645 64.3552 29.503C64.3552 29.9399 64.4488 30.2678 64.635 30.4859ZM61.1299 31.4083H60.2698L58.5934 28.6402V31.4083H57.7912V27.5059H58.6936L60.3277 30.227V27.5059H61.1299V31.4083ZM55.2837 31.4083H54.4285V27.5059H55.2837V31.4083ZM46.2742 31.1558C45.9828 31.3911 45.5722 31.5087 45.0415 31.5087C44.4993 31.5087 44.0729 31.3934 43.7617 31.1612C43.4512 30.9291 43.2964 30.6098 43.2964 30.2043H44.1176C44.1441 30.3823 44.1963 30.5157 44.2741 30.6035C44.4165 30.7643 44.6615 30.8443 45.0076 30.8443C45.2145 30.8443 45.3834 30.824 45.5126 30.7808C45.7576 30.7 45.8801 30.5494 45.8801 30.3282C45.8801 30.1996 45.8205 30.0999 45.7005 30.0293C45.5796 29.9603 45.3892 29.8991 45.1284 29.8466L44.6822 29.754C44.2443 29.6622 43.943 29.5626 43.7791 29.4552C43.5017 29.2747 43.3626 28.9931 43.3626 28.6104C43.3626 28.2605 43.4992 27.9711 43.77 27.7397C44.0415 27.5083 44.4405 27.3922 44.967 27.3922C45.4058 27.3922 45.7808 27.502 46.0912 27.7201C46.4008 27.9373 46.5639 28.2535 46.5788 28.6684H45.7518C45.7369 28.4339 45.626 28.2668 45.4198 28.168C45.2824 28.1028 45.1111 28.0699 44.9074 28.0699C44.6798 28.0699 44.4985 28.113 44.3627 28.1978C44.2269 28.2825 44.159 28.4001 44.159 28.5523C44.159 28.6919 44.2261 28.7955 44.3602 28.8645C44.4455 28.9108 44.6284 28.9641 44.9074 29.0261L45.6301 29.1877C45.9464 29.2583 46.184 29.3524 46.3421 29.4709C46.5871 29.6544 46.7105 29.9203 46.7105 30.2678C46.7105 30.6239 46.5648 30.9197 46.2742 31.1558ZM41.1101 31.4083H37.9891V27.5059H41.0091V28.1978H38.8302V29.0261H40.8303V29.7038H38.8302V30.7071H41.1101V31.4083ZM33.0965 30.4859C33.2836 30.7039 33.5204 30.813 33.8085 30.813C34.1032 30.813 34.3284 30.7196 34.4832 30.5322C34.5693 30.4318 34.6404 30.2811 34.6967 30.0796H35.5519C35.4774 30.5047 35.2895 30.8514 34.9865 31.1173C34.6835 31.384 34.2944 31.5174 33.8217 31.5174C33.2356 31.5174 32.7745 31.337 32.4392 30.9769C32.1039 30.6153 31.9359 30.1196 31.9359 29.4889C31.9359 28.808 32.1271 28.2833 32.5087 27.9146C32.8399 27.593 33.2621 27.4322 33.7745 27.4322C34.46 27.4322 34.9608 27.6479 35.2779 28.0777C35.4534 28.3201 35.5469 28.5625 35.5602 28.8065H34.6992C34.6446 28.619 34.5742 28.4778 34.489 28.3829C34.3358 28.2134 34.1081 28.1287 33.8068 28.1287C33.5005 28.1287 33.2588 28.248 33.0816 28.4872C32.9045 28.7264 32.8167 29.0645 32.8167 29.503C32.8167 29.9399 32.9094 30.2678 33.0965 30.4859ZM29.5939 31.4083H28.7387V27.5059H29.5939V31.4083ZM25.1748 31.4083H24.3619L22.9695 27.5059H23.8884L24.7824 30.4686L25.6848 27.5059H26.5789L25.1748 31.4083ZM20.9023 31.4083H19.952C19.9263 31.3221 19.9072 31.2522 19.8965 31.1997C19.8741 31.0899 19.8617 30.9777 19.8601 30.8632L19.8543 30.5008C19.851 30.2513 19.8054 30.0858 19.7185 30.0027C19.6316 29.9203 19.4677 29.8787 19.2284 29.8787H18.3873V31.4083H17.5471V27.5059H19.5165C19.798 27.5122 20.0149 27.5451 20.1664 27.6071C20.3179 27.6683 20.4462 27.7593 20.5521 27.8801C20.6391 27.9789 20.7078 28.0879 20.7591 28.208C20.8096 28.328 20.8353 28.4652 20.8353 28.6182C20.8353 28.8033 20.7856 28.9861 20.6871 29.1649C20.5886 29.3446 20.4255 29.4709 20.1978 29.5454C20.3882 29.6168 20.5223 29.7203 20.6018 29.8536C20.6813 29.987 20.721 30.1902 20.721 30.4639V30.7259C20.721 30.904 20.7285 31.0248 20.7434 31.0883C20.7657 31.1887 20.8187 31.2632 20.9023 31.3111V31.4083ZM15.1397 31.4083H12.0187V27.5059H15.0395V28.1978H12.8598V29.0261H14.8607V29.7038H12.8598V30.7071H15.1397V31.4083ZM9.23712 31.1558C8.94655 31.3911 8.53594 31.5087 8.00446 31.5087C7.46222 31.5087 7.03588 31.3934 6.72543 31.1612C6.41499 30.9291 6.25935 30.6098 6.25935 30.2043H7.08058C7.10707 30.3823 7.16005 30.5157 7.23787 30.6035C7.38026 30.7643 7.62448 30.8443 7.97052 30.8443C8.1783 30.8443 8.34636 30.824 8.4755 30.7808C8.72137 30.7 8.84389 30.5494 8.84389 30.3282C8.84389 30.1996 8.78346 30.0999 8.66342 30.0293C8.54339 29.9603 8.35298 29.8991 8.09221 29.8466L7.646 29.754C7.20807 29.6622 6.90673 29.5626 6.74282 29.4552C6.46549 29.2747 6.32641 28.9931 6.32641 28.6104C6.32641 28.2605 6.46218 27.9711 6.73371 27.7397C7.00525 27.5083 7.40427 27.3922 7.92995 27.3922C8.36954 27.3922 8.74455 27.502 9.05417 27.7201C9.36461 27.9373 9.52687 28.2535 9.5426 28.6684H8.71558C8.69985 28.4339 8.58892 28.2668 8.38278 28.168C8.24536 28.1028 8.07482 28.0699 7.87035 28.0699C7.64269 28.0699 7.46139 28.113 7.32645 28.1978C7.19068 28.2825 7.1228 28.4001 7.1228 28.5523C7.1228 28.6919 7.18986 28.7955 7.32314 28.8645C7.40923 28.9108 7.59136 28.9641 7.87035 29.0261L8.59306 29.1877C8.91012 29.2583 9.14689 29.3524 9.30501 29.4709C9.55088 29.6544 9.6734 29.9203 9.6734 30.2678C9.6734 30.6239 9.52852 30.9197 9.23712 31.1558ZM0 32.9999H125V25.9049H0V32.9999Z" fill="white"/>
</svg>
