<svg width="35" height="38" viewBox="0 0 35 38" fill="none" xmlns="http://www.w3.org/2000/svg">
<path d="M7.89941 1H22.993C26.7901 3.84836 30.1009 7.36156 32.7831 11.3886V35.9778H7.89941V1Z" fill="url(#paint0_linear_24_136)"/>
<path d="M7.89941 1H22.993C26.7901 3.84836 30.1009 7.36156 32.7831 11.3886V35.9778H7.89941V1Z" stroke="#C8C8C8" stroke-width="0.5"/>
<path d="M22.9875 1C26.7799 3.85521 30.0905 7.36731 32.7802 11.3886C31.8859 10.4152 30.8017 9.66044 29.6033 9.1772C28.4049 8.69395 27.1213 8.49386 25.8423 8.59092C26.0247 7.17232 25.8577 5.72786 25.3575 4.3978C24.8573 3.06773 24.0409 1.89725 22.9875 1V1Z" fill="url(#paint1_linear_24_136)"/>
<path d="M22.9875 1C26.7799 3.85521 30.0905 7.36731 32.7802 11.3886C31.8859 10.4152 30.8017 9.66044 29.6033 9.1772C28.4049 8.69395 27.1213 8.49386 25.8423 8.59092C26.0247 7.17232 25.8577 5.72786 25.3575 4.3978C24.8573 3.06773 24.0409 1.89725 22.9875 1V1Z" stroke="#C8C8C8" stroke-width="0.5"/>
<path d="M3.04932 5.59412H21.3959V9.31514H3.04932V5.59412Z" stroke="#C8C8C8" stroke-width="4"/>
<path d="M16.6856 24.0053C17.2919 22.7456 17.9868 21.3275 18.5333 19.9025L18.7519 19.3402C18.031 16.435 17.599 14.1032 17.9855 12.5955C18.0665 12.3924 18.2063 12.2219 18.3847 12.1085C18.5632 11.995 18.771 11.9445 18.9783 11.9643H19.3088C19.9385 11.9546 20.2339 12.8022 20.2677 13.1316C20.2726 13.6307 20.2108 14.1281 20.0843 14.609C20.1152 14.0977 20.0438 13.5854 19.8748 13.1054C19.6145 12.5004 19.366 12.1407 19.1435 12.0814C19.0643 12.1493 19.0001 12.2347 18.9551 12.3315C18.9102 12.4284 18.8857 12.5344 18.8833 12.6423C18.8172 13.0701 18.7837 13.5029 18.7831 13.9364C18.8138 15.2109 19.0033 16.4755 19.3465 17.6974C19.4168 17.4824 19.4766 17.2757 19.5287 17.0814C19.6054 16.7754 20.0921 14.7509 20.0921 14.7509C20.0921 14.7509 19.9698 17.4466 19.798 18.2611C19.7616 18.4334 19.7212 18.6043 19.6783 18.7779C20.2544 20.5275 21.2104 22.1094 22.4693 23.3961C22.9638 23.8505 23.5051 24.2443 24.0828 24.5703C25.1668 24.3972 26.2616 24.3101 27.3579 24.3099C28.2372 24.2159 29.1216 24.4252 29.8795 24.9066C30.0465 25.0851 30.1453 25.3227 30.1567 25.5736C30.151 25.7047 30.1332 25.8349 30.1034 25.9623C30.1164 25.892 30.1164 25.5488 29.121 25.2098C27.7959 24.9428 26.4371 24.9227 25.1055 25.1505C27.1432 26.2062 29.1301 26.7313 29.7585 26.4171C29.8912 26.3232 30.0067 26.2046 30.0994 26.067C30.0558 26.2951 29.9922 26.5184 29.9095 26.734C29.784 26.9028 29.6129 27.0269 29.4189 27.0896C28.4248 27.3652 25.8381 26.7203 23.5831 25.3559C21.0373 25.7698 18.5274 26.4017 16.0779 27.2453C13.8985 31.2916 12.259 33.1494 10.9266 32.4424L10.436 32.1819C10.3466 32.1055 10.2812 32.0022 10.2484 31.8855C10.2156 31.7689 10.2171 31.6444 10.2526 31.5287C10.4074 30.7238 11.3612 29.5097 13.2765 28.2983C13.4821 28.1604 14.4007 27.6519 14.4007 27.6519C14.4007 27.6519 13.7202 28.3493 13.5615 28.4857C12.0326 29.8129 10.9045 31.4818 10.9318 32.1296V32.1861C12.233 31.9904 14.1782 29.1899 16.6817 24.0011L16.6856 24.0053ZM17.4754 24.4311C17.0828 25.209 16.6811 25.9818 16.2705 26.7492C18.3579 25.8632 20.5277 25.2128 22.7439 24.8088C22.4576 24.6002 22.181 24.3772 21.915 24.1403C20.7723 23.0964 19.8425 21.8167 19.1826 20.3793C18.6999 21.77 18.1274 23.1239 17.4689 24.4311" fill="#F91D0A"/>
<path d="M0.97998 3.48865H23.4434V11.4861H0.97998V3.48865Z" fill="url(#paint2_linear_24_136)"/>
<path d="M23.875 11.9659H0.576172V3.00916H23.875V11.9659ZM23.0384 3.89669H1.41413V11.0756H23.0384V3.89669Z" fill="url(#paint3_linear_24_136)"/>
<path d="M6.85547 4.66228H8.48975C8.6961 4.64828 8.90287 4.68182 9.09582 4.76057C9.28877 4.83932 9.46332 4.96141 9.60746 5.11845C9.88769 5.48077 10.0273 5.94246 9.99781 6.40979C10.0272 6.87923 9.88776 7.34306 9.60746 7.70803C9.46297 7.86432 9.28827 7.98565 9.09533 8.06368C8.9024 8.1417 8.69581 8.17459 8.48975 8.16007H7.83916V10.0192H6.85547V4.66228ZM7.84046 5.66283V7.15952H8.38565C8.46845 7.16452 8.55125 7.14964 8.62785 7.11599C8.70446 7.08234 8.7729 7.03079 8.82805 6.96519C8.93961 6.80657 8.99489 6.6114 8.98419 6.41393C8.99615 6.2163 8.94074 6.02068 8.82805 5.86266C8.77296 5.79698 8.70453 5.74538 8.62791 5.71172C8.55129 5.67806 8.46846 5.66323 8.38565 5.66834H7.84046V5.66283ZM11.6776 5.71106V8.97594H12.0302C12.2036 8.98822 12.3773 8.95721 12.5373 8.8854C12.6974 8.81359 12.8392 8.70298 12.9515 8.56249C13.1864 8.20648 13.2993 7.77613 13.2716 7.34281C13.2993 6.91205 13.1873 6.48417 12.9541 6.13002C12.8412 5.98957 12.6989 5.87903 12.5385 5.80724C12.3781 5.73545 12.204 5.7044 12.0302 5.71658H11.6776V5.71106ZM10.6926 4.67192H11.7336C12.1684 4.64846 12.6038 4.70488 13.0204 4.83868C13.3113 4.95857 13.5647 5.16245 13.7517 5.42716C13.9344 5.6762 14.0701 5.96024 14.1512 6.26371C14.2422 6.61326 14.286 6.97472 14.2813 7.3373C14.2861 7.70306 14.2423 8.0677 14.1512 8.42054C14.0701 8.72401 13.9344 9.00805 13.7517 9.25709C13.5623 9.52259 13.3075 9.72764 13.0152 9.8497C12.5977 9.98394 12.1617 10.0422 11.7258 10.022H10.6848V4.66228L10.6926 4.67192ZM15.0334 4.66228H17.7047V5.70693H16.0262V6.70334H17.5993V7.74799H16.0262V10.0192H15.0412V4.66228" fill="#FFF9F9"/>
<path d="M5.46753 33.6593H34.576V38H5.46753V33.6593Z" fill="url(#paint4_linear_24_136)"/>
<defs>
<linearGradient id="paint0_linear_24_136" x1="15.1636" y1="28.4001" x2="25.203" y2="11.2692" gradientUnits="userSpaceOnUse">
<stop stop-color="white"/>
<stop offset="1" stop-color="#E1E1E1"/>
</linearGradient>
<linearGradient id="paint1_linear_24_136" x1="26.7544" y1="7.29682" x2="28.2445" y2="5.99995" gradientUnits="userSpaceOnUse">
<stop stop-color="white"/>
<stop offset="1" stop-color="#C8C8C8"/>
</linearGradient>
<linearGradient id="paint2_linear_24_136" x1="14.3938" y1="14.6008" x2="9.5542" y2="0.53761" gradientUnits="userSpaceOnUse">
<stop offset="0.127" stop-color="#8A0000"/>
<stop offset="0.244" stop-color="#900000" stop-opacity="0.999"/>
<stop offset="0.398" stop-color="#A00000" stop-opacity="0.999"/>
<stop offset="0.573" stop-color="#BC0000" stop-opacity="0.998"/>
<stop offset="0.761" stop-color="#E20000" stop-opacity="0.997"/>
<stop offset="0.867" stop-color="#FA0000" stop-opacity="0.996"/>
</linearGradient>
<linearGradient id="paint3_linear_24_136" x1="14.5807" y1="15.1646" x2="9.35877" y2="-0.0130641" gradientUnits="userSpaceOnUse">
<stop offset="0.315" stop-color="#5E0000"/>
<stop offset="0.444" stop-color="#830000" stop-opacity="0.999"/>
<stop offset="0.618" stop-color="#AE0000" stop-opacity="0.998"/>
<stop offset="0.775" stop-color="#CD0000" stop-opacity="0.997"/>
<stop offset="0.908" stop-color="#E00000" stop-opacity="0.996"/>
<stop offset="1" stop-color="#E70000" stop-opacity="0.996"/>
</linearGradient>
<linearGradient id="paint4_linear_24_136" x1="22.8493" y1="39.6905" x2="21.6439" y2="31.3274" gradientUnits="userSpaceOnUse">
<stop offset="0.127" stop-color="#8A0000"/>
<stop offset="0.244" stop-color="#900000" stop-opacity="0.999"/>
<stop offset="0.398" stop-color="#A00000" stop-opacity="0.999"/>
<stop offset="0.573" stop-color="#BC0000" stop-opacity="0.998"/>
<stop offset="0.761" stop-color="#E20000" stop-opacity="0.997"/>
<stop offset="0.867" stop-color="#FA0000" stop-opacity="0.996"/>
</linearGradient>
</defs>
</svg>
