<svg width="128" height="42" viewBox="0 0 128 42" fill="none" xmlns="http://www.w3.org/2000/svg">
<path d="M11.3781 37.7755C11.3282 38.2027 11.3082 38.4838 11.3082 38.63C11.3082 38.8773 11.3481 39.0347 11.4181 39.1359C11.488 39.2258 11.6079 39.2708 11.7577 39.2708C11.9275 39.2708 12.0974 39.2033 12.2772 39.0797C12.457 38.9448 12.6068 38.7874 12.7267 38.5962L13.1163 35.3358H13.8455L13.396 38.9897L13.386 39.0797C13.386 39.1471 13.396 39.1921 13.416 39.2258C13.436 39.2596 13.4659 39.2708 13.4959 39.2708C13.5858 39.2708 13.7057 39.1921 13.8555 39.0347L13.9454 39.2483C13.8855 39.3495 13.7856 39.4619 13.6358 39.5856C13.4859 39.7093 13.3161 39.7655 13.1263 39.7655C12.9864 39.7655 12.8765 39.7205 12.7966 39.6418C12.7267 39.5631 12.6867 39.4394 12.6967 39.2933C12.6967 39.3045 12.7067 39.2146 12.7167 39.0347L12.7067 39.0235C12.3371 39.5181 11.9175 39.7767 11.448 39.7767C11.1783 39.7767 10.9685 39.698 10.8087 39.5406C10.6489 39.3832 10.559 39.1246 10.559 38.7649C10.559 38.5175 10.5989 38.0791 10.6888 37.4157L10.8686 35.9767L10.499 35.7518L10.549 35.4595L11.498 35.3134L11.6478 35.4033L11.4081 37.4495L11.3781 37.7755ZM15.7036 36.3927C15.7635 36.224 15.8435 36.0554 15.9733 35.8867C16.1032 35.7181 16.243 35.5719 16.4229 35.4708C16.5927 35.3583 16.7725 35.3021 16.9623 35.3021C17.0722 35.3021 17.1521 35.3246 17.1821 35.3583L17.0222 36.2465C16.9523 36.1903 16.8424 36.1566 16.6826 36.1566C16.4928 36.1566 16.303 36.224 16.1132 36.3589C15.9234 36.4826 15.7835 36.6737 15.6836 36.9098L15.354 39.6868H14.6347L15.0743 35.9654L14.7146 35.7743L14.7746 35.482L15.6337 35.3021L15.7835 35.3921L15.7336 36.0891L15.7036 36.3927ZM19.7494 36.0554C19.7094 35.9879 19.6195 35.9317 19.4697 35.853C19.3298 35.7856 19.17 35.7406 18.9902 35.7406C18.7804 35.7406 18.6106 35.7968 18.4907 35.898C18.3608 35.9992 18.3009 36.1453 18.3009 36.3364C18.3009 36.5051 18.3508 36.6512 18.4507 36.7974C18.5506 36.9323 18.7005 37.0785 18.9003 37.2359C19.0601 37.3708 19.2 37.4944 19.2999 37.5956C19.3998 37.6968 19.4897 37.8317 19.5696 37.9891C19.6395 38.1465 19.6795 38.3152 19.6795 38.5175C19.6795 38.7874 19.6095 39.0122 19.4797 39.2033C19.3498 39.3945 19.17 39.5294 18.9502 39.6306C18.7304 39.7205 18.4907 39.7655 18.231 39.7655C18.0212 39.7655 17.8114 39.743 17.6016 39.6868C17.3918 39.6306 17.252 39.5743 17.192 39.5181L17.3119 38.956C17.4018 39.0347 17.5417 39.1134 17.7115 39.1921C17.8813 39.2596 18.0611 39.3045 18.2509 39.3045C18.4507 39.3045 18.6106 39.2596 18.7504 39.1696C18.8903 39.0797 18.9602 38.9223 18.9602 38.7087C18.9602 38.5288 18.9003 38.3714 18.7904 38.2477C18.6805 38.124 18.5107 37.9666 18.2909 37.798C17.8214 37.427 17.5816 37.011 17.5816 36.5276C17.5816 36.2802 17.6416 36.0666 17.7615 35.8867C17.8913 35.6956 18.0611 35.5607 18.2709 35.4595C18.4807 35.3583 18.7205 35.3021 18.9802 35.3021C19.15 35.3021 19.3198 35.3246 19.4897 35.3583C19.6695 35.3921 19.7893 35.4258 19.8593 35.4483L19.7494 36.0554ZM21.3877 37.7755C21.3377 38.2027 21.3178 38.4838 21.3178 38.63C21.3178 38.8773 21.3577 39.0347 21.4276 39.1359C21.4976 39.2258 21.6174 39.2708 21.7673 39.2708C21.9371 39.2708 22.1069 39.2033 22.2867 39.0797C22.4666 38.9448 22.6164 38.7874 22.7363 38.5962L23.1259 35.3358H23.8551L23.4056 38.9897L23.3956 39.0797C23.3956 39.1471 23.4056 39.1921 23.4256 39.2258C23.4455 39.2596 23.4755 39.2708 23.5055 39.2708C23.5954 39.2708 23.7153 39.1921 23.8651 39.0347L23.955 39.2483C23.8951 39.3495 23.7952 39.4619 23.6453 39.5856C23.4955 39.7093 23.3257 39.7655 23.1359 39.7655C22.996 39.7655 22.8861 39.7205 22.8062 39.6418C22.7363 39.5631 22.6963 39.4394 22.7063 39.2933C22.7063 39.3045 22.7163 39.2146 22.7263 39.0347L22.7163 39.0235C22.3467 39.5181 21.9271 39.7767 21.4576 39.7767C21.1879 39.7767 20.9781 39.698 20.8183 39.5406C20.6584 39.3832 20.5685 39.1246 20.5685 38.7649C20.5685 38.5175 20.6085 38.0791 20.6984 37.4157L20.8782 35.9767L20.5086 35.7518L20.5585 35.4595L21.5076 35.3134L21.6574 35.4033L21.4176 37.4495L21.3877 37.7755ZM25.5234 39.0797C25.5234 39.1471 25.5334 39.1921 25.5533 39.2258C25.5733 39.2596 25.6033 39.2708 25.6333 39.2708C25.6832 39.2708 25.7332 39.2596 25.7831 39.2258C25.843 39.1921 25.903 39.1359 25.9829 39.0459L26.0728 39.2483C26.0029 39.3607 25.893 39.4732 25.7531 39.5856C25.6133 39.7093 25.4435 39.7655 25.2437 39.7655C25.0838 39.7655 24.954 39.7205 24.8641 39.6418C24.7841 39.5631 24.7442 39.4394 24.7642 39.282C24.7841 39.0572 24.8441 38.5625 24.944 37.8205C25.0738 36.8199 25.1538 36.1903 25.1837 35.943L24.7542 35.7518L24.8041 35.482L25.833 35.3021L25.9929 35.3921L25.5234 39.001V39.0797ZM25.7132 34.4814C25.6033 34.4814 25.5134 34.4364 25.4335 34.3465C25.3635 34.2565 25.3236 34.1554 25.3236 34.0317C25.3236 33.8743 25.3735 33.7394 25.4734 33.627C25.5733 33.5145 25.6932 33.4583 25.833 33.4583C25.9629 33.4583 26.0528 33.5033 26.1227 33.5932C26.1927 33.6719 26.2226 33.7844 26.2226 33.908C26.2226 34.0767 26.1727 34.2116 26.0728 34.324C25.9829 34.4252 25.863 34.4814 25.7132 34.4814ZM27.9908 36.2915C28.1806 35.9992 28.4004 35.7631 28.6501 35.5719C28.8999 35.3808 29.1596 35.2909 29.4193 35.2909C29.679 35.2909 29.8888 35.3808 30.0287 35.5495C30.1685 35.7293 30.2485 36.0104 30.2485 36.4039C30.2485 36.595 30.2085 36.9548 30.1186 37.4832L30.0786 37.7643L30.0487 37.9891C29.9687 38.4388 29.9188 38.7761 29.9188 39.0122V39.0572C29.9188 39.1921 29.9488 39.2595 30.0087 39.2595C30.0986 39.2595 30.2085 39.1921 30.3384 39.0684L30.4283 39.282C30.3683 39.372 30.2684 39.4732 30.1186 39.5856C29.9687 39.698 29.7989 39.7542 29.6091 39.7542C29.2994 39.7542 29.1396 39.5968 29.1396 39.2708C29.1396 39.1134 29.1796 38.7761 29.2695 38.2702L29.3194 37.9891L29.3494 37.798C29.4493 37.1909 29.4992 36.7637 29.4992 36.4938C29.4992 36.2577 29.4593 36.0891 29.3993 36.0104C29.3394 35.9205 29.2295 35.8755 29.0897 35.8755C28.9098 35.8755 28.7101 35.9767 28.4903 36.179C28.2705 36.3702 28.0807 36.6175 27.9209 36.9098L27.5812 39.698H26.872L27.3215 35.9654L26.9719 35.7743L27.0318 35.482L27.9409 35.3021L28.0907 35.3921L27.9908 36.2915ZM33.8947 39.9903C33.8447 40.3726 33.7248 40.6874 33.525 40.9347C33.3252 41.1821 33.0855 41.3619 32.8158 41.4631C32.5461 41.5756 32.2763 41.6205 31.9966 41.6205C31.8568 41.6205 31.6969 41.6093 31.5371 41.5756C31.3773 41.5418 31.2674 41.5081 31.1875 41.4744L31.3373 40.8223C31.4372 40.8897 31.5771 40.946 31.7369 41.0022C31.9067 41.0696 32.0666 41.0921 32.2364 41.0921C32.5261 41.0921 32.7458 41.0247 32.8857 40.901C33.0256 40.7773 33.1155 40.5412 33.1554 40.2039L33.2853 39.2033C33.1554 39.372 32.9956 39.5069 32.8158 39.6081C32.636 39.7093 32.4462 39.7655 32.2264 39.7655C31.8368 39.7655 31.5471 39.6193 31.3573 39.327C31.1675 39.0235 31.0676 38.6412 31.0676 38.1465C31.0676 37.7081 31.1575 37.2583 31.3373 36.8199C31.5171 36.3814 31.7769 36.0104 32.1165 35.7181C32.4562 35.4258 32.8557 35.2796 33.3053 35.2796C33.4351 35.2796 33.565 35.3021 33.7049 35.3358C33.8447 35.3696 33.9746 35.4033 34.0745 35.4483L34.524 35.2796L33.8947 39.9903ZM33.7148 35.8643C33.595 35.7631 33.4251 35.7181 33.2154 35.7181C32.9057 35.7181 32.646 35.8418 32.4462 36.0891C32.2364 36.3364 32.0765 36.6512 31.9766 37.0223C31.8768 37.3933 31.8268 37.753 31.8268 38.1016C31.8268 38.4613 31.8768 38.7424 31.9866 38.956C32.0965 39.1584 32.2564 39.2595 32.4462 39.2595C32.626 39.2595 32.7958 39.2033 32.9556 39.0797C33.1155 38.956 33.2453 38.8211 33.3452 38.6637L33.7148 35.8643ZM40.5178 33.9417L40.4578 35.1897H40.0183L39.8984 34.3802L38.36 34.3128L38.1003 36.4601L39.7086 36.3814L39.6487 36.9998L38.0603 36.9211L37.7906 39.2483L39.7086 39.1584L40.0882 38.2252L40.5178 38.3039L40.238 39.6868H36.462L36.4919 39.372L37.0214 39.282L37.5808 34.369L37.1113 34.279L37.1413 33.9417H40.5178ZM41.5567 36.0666C41.5267 35.9879 41.4867 35.9205 41.4468 35.8755C41.4068 35.8305 41.3669 35.808 41.3069 35.808C41.247 35.808 41.1871 35.8193 41.1371 35.853C41.0772 35.8867 41.0372 35.9205 40.9973 35.9654L40.8774 35.7406C40.9273 35.6619 41.0272 35.5607 41.1771 35.4595C41.3269 35.3471 41.4967 35.3021 41.6865 35.3021C41.8464 35.3021 41.9662 35.3358 42.0462 35.4033C42.1361 35.4708 42.196 35.5719 42.236 35.6956L42.5656 36.9885L43.5746 35.3358H44.3038L42.7754 37.5169L43.3648 38.9223C43.4447 39.1359 43.5346 39.2371 43.6245 39.2371C43.7344 39.2371 43.8543 39.1584 44.0041 39.001L44.124 39.2258C44.104 39.2708 44.0441 39.3383 43.9642 39.4282C43.8842 39.5069 43.7744 39.5856 43.6545 39.6643C43.5246 39.7317 43.3948 39.7655 43.2449 39.7655C43.0951 39.7655 42.9852 39.7317 42.9053 39.6643C42.8254 39.5968 42.7754 39.4956 42.7354 39.3607L42.3558 37.9891L41.3069 39.6868H40.5677L42.1361 37.472L41.5567 36.0666ZM46.961 36.2353C46.6913 35.943 46.4915 35.7968 46.3317 35.7968C46.1219 35.7968 45.9221 35.8867 45.7523 36.0666C45.5825 36.2465 45.4426 36.4938 45.3527 36.8199C45.2528 37.1347 45.2029 37.5057 45.2029 37.9217C45.2029 38.7986 45.4526 39.2371 45.9421 39.2371C46.1419 39.2371 46.3017 39.2033 46.4416 39.1246C46.5814 39.0459 46.7313 38.9335 46.8911 38.7649L47.041 39.0572C46.9211 39.2371 46.7513 39.3945 46.5215 39.5406C46.2917 39.6868 46.022 39.7655 45.7024 39.7655C45.3028 39.7655 45.0031 39.6081 44.7733 39.3045C44.5535 38.9897 44.4337 38.5625 44.4337 38.0116C44.4337 37.5844 44.5136 37.1684 44.6734 36.7524C44.8333 36.3252 45.073 35.9767 45.3827 35.7069C45.7024 35.4258 46.072 35.2909 46.5015 35.2909C46.6314 35.2909 46.7812 35.3021 46.9311 35.3358C47.0809 35.3696 47.2008 35.4033 47.3007 35.4595L47.1009 36.269L46.961 36.2353ZM50.4674 38.9448C50.3475 39.1471 50.1477 39.3383 49.878 39.5069C49.6083 39.6868 49.3186 39.7655 48.9889 39.7655C48.6693 39.7655 48.4095 39.6868 48.1997 39.5294C47.99 39.372 47.8401 39.1584 47.7402 38.911C47.6403 38.6524 47.5904 38.3826 47.5904 38.0791C47.5904 37.5844 47.6803 37.1122 47.8601 36.685C48.0399 36.2465 48.2897 35.9092 48.6093 35.6506C48.929 35.4033 49.2786 35.2684 49.6582 35.2684C49.9979 35.2684 50.2476 35.3583 50.4074 35.527C50.5773 35.7069 50.6672 35.9317 50.6672 36.224C50.6672 36.595 50.5373 36.9098 50.2776 37.1572C50.0179 37.4045 49.7082 37.5956 49.3486 37.7193C48.9889 37.843 48.6693 37.9104 48.3796 37.9104C48.3596 38.2814 48.4095 38.585 48.5394 38.8436C48.6693 39.1022 48.879 39.2258 49.1488 39.2258C49.3585 39.2258 49.5583 39.1696 49.7581 39.0684C49.9579 38.956 50.1377 38.7986 50.2976 38.6075L50.4674 38.9448ZM49.4884 35.7181C49.2786 35.7181 49.0888 35.808 48.929 35.9992C48.7692 36.1903 48.6493 36.4264 48.5494 36.7187C48.4595 36.9998 48.3995 37.2808 48.3796 37.5619C48.5993 37.5507 48.8391 37.4944 49.0788 37.4045C49.3286 37.3033 49.5284 37.1572 49.6882 36.966C49.858 36.7749 49.9479 36.5613 49.9479 36.314C49.9479 36.1228 49.908 35.9654 49.8281 35.8643C49.7481 35.7631 49.6382 35.7181 49.4884 35.7181ZM52.1057 39.001C52.1057 39.0235 52.0957 39.0459 52.0957 39.0909C52.0957 39.2146 52.1357 39.282 52.2056 39.282C52.2955 39.282 52.4154 39.2033 52.5652 39.0572L52.6551 39.2595C52.5852 39.372 52.4853 39.4844 52.3554 39.6081C52.2256 39.7205 52.0557 39.7767 51.846 39.7767C51.6961 39.7767 51.5762 39.743 51.4863 39.6643C51.3964 39.5856 51.3565 39.4619 51.3565 39.3045C51.3565 39.2708 51.3565 39.2258 51.3664 39.1696C51.3764 39.1022 51.3864 39.0684 51.3864 39.0347L52.0158 34.0317L51.5862 33.8968L51.6462 33.6157L52.6351 33.4808L52.785 33.582L52.1057 39.001ZM54.2035 39.001C54.2035 39.0235 54.1935 39.0459 54.1935 39.0909C54.1935 39.2146 54.2335 39.282 54.3034 39.282C54.3933 39.282 54.5132 39.2033 54.663 39.0572L54.7529 39.2595C54.683 39.372 54.5831 39.4844 54.4532 39.6081C54.3234 39.7205 54.1535 39.7767 53.9438 39.7767C53.7939 39.7767 53.674 39.743 53.5841 39.6643C53.4942 39.5856 53.4543 39.4619 53.4543 39.3045C53.4543 39.2708 53.4543 39.2258 53.4643 39.1696C53.4743 39.1022 53.4842 39.0684 53.4842 39.0347L54.1136 34.0317L53.684 33.8968L53.744 33.6157L54.7329 33.4808L54.8828 33.582L54.2035 39.001ZM58.2693 38.9448C58.1494 39.1471 57.9496 39.3383 57.6799 39.5069C57.4102 39.6868 57.1205 39.7655 56.7908 39.7655C56.4711 39.7655 56.2114 39.6868 56.0016 39.5294C55.7918 39.372 55.642 39.1584 55.5421 38.911C55.4422 38.6524 55.3923 38.3826 55.3923 38.0791C55.3923 37.5844 55.4822 37.1122 55.662 36.685C55.8418 36.2465 56.0915 35.9092 56.4112 35.6506C56.7309 35.4033 57.0805 35.2684 57.4601 35.2684C57.7998 35.2684 58.0495 35.3583 58.2093 35.527C58.3791 35.7069 58.469 35.9317 58.469 36.224C58.469 36.595 58.3392 36.9098 58.0795 37.1572C57.8197 37.4045 57.51 37.5956 57.1504 37.7193C56.7908 37.843 56.4711 37.9104 56.1814 37.9104C56.1615 38.2814 56.2114 38.585 56.3413 38.8436C56.4711 39.1022 56.6809 39.2258 56.9506 39.2258C57.1604 39.2258 57.3602 39.1696 57.56 39.0684C57.7598 38.956 57.9396 38.7986 58.0994 38.6075L58.2693 38.9448ZM57.2903 35.7181C57.0805 35.7181 56.8907 35.808 56.7309 35.9992C56.571 36.1903 56.4512 36.4264 56.3513 36.7187C56.2614 36.9998 56.2014 37.2808 56.1814 37.5619C56.4012 37.5507 56.641 37.4944 56.8807 37.4045C57.1304 37.3033 57.3302 37.1572 57.4901 36.966C57.6499 36.7749 57.7298 36.5613 57.7298 36.314C57.7298 36.1228 57.6899 35.9654 57.6099 35.8643C57.55 35.7631 57.4401 35.7181 57.2903 35.7181ZM60.2572 36.2915C60.447 35.9992 60.6668 35.7631 60.9165 35.5719C61.1662 35.3808 61.426 35.2909 61.6857 35.2909C61.9554 35.2909 62.1552 35.3808 62.2951 35.5495C62.4349 35.7293 62.5148 36.0104 62.5148 36.4039C62.5148 36.595 62.4749 36.9548 62.385 37.4832L62.335 37.7755L62.3051 38.0004C62.2251 38.4501 62.1752 38.7874 62.1752 39.0235V39.0684C62.1752 39.2033 62.2052 39.2708 62.2651 39.2708C62.355 39.2708 62.4649 39.2033 62.5948 39.0797L62.6847 39.2933C62.6247 39.3832 62.5248 39.4844 62.375 39.5968C62.2251 39.7093 62.0553 39.7655 61.8655 39.7655C61.5558 39.7655 61.396 39.6081 61.396 39.282C61.396 39.1246 61.436 38.7874 61.5259 38.2814L61.5758 38.0004L61.6058 37.8092C61.7057 37.2021 61.7556 36.7749 61.7556 36.5051C61.7556 36.269 61.7157 36.1004 61.6557 36.0217C61.5958 35.9317 61.4859 35.8867 61.3461 35.8867C61.1662 35.8867 60.9665 35.9879 60.7467 36.1903C60.5269 36.3814 60.3371 36.6288 60.1773 36.9211L59.8376 39.7093H59.1184L59.5679 35.9767L59.2183 35.7856L59.2782 35.4932L60.1873 35.3134L60.3371 35.4033L60.2572 36.2915ZM65.8214 36.2353C65.5517 35.943 65.3519 35.7968 65.192 35.7968C64.9823 35.7968 64.7825 35.8867 64.6127 36.0666C64.4428 36.2465 64.303 36.4938 64.2131 36.8199C64.1132 37.1347 64.0632 37.5057 64.0632 37.9217C64.0632 38.7986 64.313 39.2371 64.8025 39.2371C65.0022 39.2371 65.1621 39.2033 65.3019 39.1246C65.4418 39.0459 65.5916 38.9335 65.7515 38.7649L65.9013 39.0572C65.7814 39.2371 65.6116 39.3945 65.3818 39.5406C65.1521 39.6868 64.8824 39.7655 64.5627 39.7655C64.1631 39.7655 63.8634 39.6081 63.6337 39.3045C63.4139 38.9897 63.294 38.5625 63.294 38.0116C63.294 37.5844 63.3739 37.1684 63.5338 36.7524C63.6936 36.3252 63.9334 35.9767 64.243 35.7069C64.5627 35.4258 64.9323 35.2909 65.3619 35.2909C65.4917 35.2909 65.6416 35.3021 65.7914 35.3358C65.9413 35.3696 66.0611 35.4033 66.161 35.4595L65.9612 36.269L65.8214 36.2353ZM69.3377 38.9448C69.2179 39.1471 69.0181 39.3383 68.7483 39.5069C68.4786 39.6868 68.1889 39.7655 67.8593 39.7655C67.5396 39.7655 67.2799 39.6868 67.0701 39.5294C66.8603 39.372 66.7105 39.1584 66.6106 38.911C66.5107 38.6524 66.4607 38.3826 66.4607 38.0791C66.4607 37.5844 66.5506 37.1122 66.7304 36.685C66.9103 36.2465 67.16 35.9092 67.4797 35.6506C67.7993 35.4033 68.149 35.2684 68.5286 35.2684C68.8682 35.2684 69.118 35.3583 69.2778 35.527C69.4476 35.7069 69.5375 35.9317 69.5375 36.224C69.5375 36.595 69.4077 36.9098 69.1479 37.1572C68.8882 37.4045 68.5785 37.5956 68.2189 37.7193C67.8593 37.843 67.5396 37.9104 67.2499 37.9104C67.2299 38.2814 67.2799 38.585 67.4097 38.8436C67.5396 39.1022 67.7494 39.2258 68.0191 39.2258C68.2289 39.2258 68.4287 39.1696 68.6285 39.0684C68.8283 38.956 69.0081 38.7986 69.1679 38.6075L69.3377 38.9448ZM68.3587 35.7181C68.149 35.7181 67.9592 35.808 67.7993 35.9992C67.6395 36.1903 67.5196 36.4264 67.4197 36.7187C67.3298 36.9998 67.2699 37.2808 67.2499 37.5619C67.4697 37.5507 67.7094 37.4944 67.9492 37.4045C68.1989 37.3033 68.3987 37.1572 68.5585 36.966C68.7184 36.7749 68.7983 36.5613 68.7983 36.314C68.7983 36.1228 68.7583 35.9654 68.6784 35.8643C68.6185 35.7631 68.4986 35.7181 68.3587 35.7181ZM72.7042 39.0797C72.7042 39.1471 72.7142 39.1921 72.7342 39.2258C72.7542 39.2596 72.7841 39.2708 72.8141 39.2708C72.8641 39.2708 72.914 39.2596 72.964 39.2258C73.0239 39.1921 73.0838 39.1359 73.1637 39.0459L73.2537 39.2483C73.1837 39.3607 73.0738 39.4732 72.934 39.5856C72.7941 39.7093 72.6243 39.7655 72.4245 39.7655C72.2647 39.7655 72.1348 39.7205 72.0449 39.6418C71.965 39.5631 71.925 39.4394 71.945 39.282C71.965 39.0572 72.0249 38.5625 72.1248 37.8205C72.2547 36.8199 72.3346 36.1903 72.3646 35.943L71.935 35.7518L71.985 35.482L73.0139 35.3021L73.1737 35.3921L72.7042 39.001V39.0797ZM72.904 34.4814C72.7941 34.4814 72.7042 34.4364 72.6243 34.3465C72.5544 34.2565 72.5144 34.1554 72.5144 34.0317C72.5144 33.8743 72.5644 33.7394 72.6643 33.627C72.7642 33.5145 72.884 33.4583 73.0239 33.4583C73.1538 33.4583 73.2437 33.5033 73.3136 33.5932C73.3835 33.6719 73.4135 33.7844 73.4135 33.908C73.4135 34.0767 73.3635 34.2116 73.2636 34.324C73.1737 34.4252 73.0539 34.4814 72.904 34.4814ZM75.1816 36.2915C75.3714 35.9992 75.5912 35.7631 75.841 35.5719C76.0907 35.3808 76.3504 35.2909 76.6102 35.2909C76.8699 35.2909 77.0797 35.3808 77.2195 35.5495C77.3594 35.7293 77.4393 36.0104 77.4393 36.4039C77.4393 36.595 77.3993 36.9548 77.3094 37.4832L77.2695 37.7643L77.2395 37.9891C77.1596 38.4388 77.1096 38.7761 77.1096 39.0122V39.0572C77.1096 39.1921 77.1396 39.2595 77.1995 39.2595C77.2894 39.2595 77.3993 39.1921 77.5292 39.0684L77.6191 39.282C77.5592 39.372 77.4593 39.4732 77.3094 39.5856C77.1596 39.698 76.9898 39.7542 76.7999 39.7542C76.4903 39.7542 76.3304 39.5968 76.3304 39.2708C76.3304 39.1134 76.3704 38.7761 76.4603 38.2702L76.5103 37.9891L76.5402 37.798C76.6401 37.1909 76.6901 36.7637 76.6901 36.4938C76.6901 36.2577 76.6501 36.0891 76.5902 36.0104C76.5302 35.9205 76.4203 35.8755 76.2805 35.8755C76.1007 35.8755 75.9009 35.9767 75.6811 36.179C75.4613 36.3702 75.2715 36.6175 75.1117 36.9098L74.7721 39.698H74.0528L74.5023 35.9654L74.1527 35.7743L74.2127 35.482L75.1217 35.3021L75.2715 35.3921L75.1816 36.2915ZM83.6728 39.3495C83.5429 39.3607 83.3731 39.4057 83.1533 39.4732C82.8836 39.5631 82.6439 39.6306 82.4341 39.6868C82.2243 39.7317 81.9945 39.7542 81.7448 39.7542C81.3352 39.7542 80.9856 39.6306 80.7159 39.3945C80.4462 39.1584 80.2464 38.8548 80.1265 38.4726C79.9966 38.0903 79.9367 37.6856 79.9367 37.2471C79.9367 36.5725 80.0466 35.9879 80.2763 35.482C80.5061 34.9761 80.8158 34.5713 81.2154 34.3015C81.6149 34.0204 82.0645 33.8855 82.5739 33.8855C82.8936 33.8855 83.1533 33.908 83.3431 33.9417C83.5429 33.9755 83.7527 34.0317 83.9825 34.0991L84.1423 34.1441L83.9425 35.3134H83.433L83.4131 34.5039C83.3132 34.4364 83.2033 34.3802 83.0634 34.3465C82.9336 34.3015 82.7637 34.279 82.544 34.279C82.1444 34.279 81.8047 34.4252 81.535 34.7063C81.2653 34.9873 81.0655 35.3471 80.9356 35.7856C80.8058 36.224 80.7458 36.6962 80.7458 37.2021C80.7458 37.798 80.8457 38.2927 81.0355 38.6974C81.2353 39.1022 81.535 39.3045 81.9246 39.3045C82.1244 39.3045 82.3142 39.282 82.504 39.2371C82.6938 39.1921 82.8437 39.1246 82.9535 39.0235L83.1533 37.382L82.2942 37.3146L82.3342 36.8986H83.9825L83.6728 39.3495ZM86.5997 35.3021C87.0593 35.3021 87.4089 35.4595 87.6586 35.7631C87.9084 36.0779 88.0283 36.5163 88.0283 37.0897C88.0283 37.5619 87.9384 38.0004 87.7685 38.4163C87.5987 38.8323 87.359 39.1584 87.0493 39.417C86.7396 39.6643 86.39 39.788 86.0004 39.788C85.5408 39.788 85.1912 39.6306 84.9415 39.327C84.6917 39.0122 84.5719 38.5737 84.5719 38.0004C84.5719 37.5282 84.6518 37.0785 84.8216 36.6737C84.9914 36.2577 85.2312 35.9317 85.5408 35.6844C85.8605 35.4258 86.2102 35.3021 86.5997 35.3021ZM86.5098 35.7181C86.2701 35.7181 86.0603 35.8305 85.8905 36.0554C85.7207 36.2802 85.5908 36.5613 85.5009 36.9098C85.421 37.2471 85.371 37.5956 85.371 37.9554C85.371 38.8885 85.6208 39.3607 86.1302 39.3607C86.37 39.3607 86.5698 39.2483 86.7396 39.0235C86.9094 38.7986 87.0293 38.5063 87.1192 38.169C87.1991 37.8205 87.2491 37.472 87.2491 37.1122C87.2391 36.1903 86.9893 35.7181 86.5098 35.7181ZM88.8474 36.0666C88.8274 35.9092 88.7675 35.8193 88.6876 35.8193C88.6476 35.8193 88.6077 35.8305 88.5777 35.853C88.5477 35.8755 88.5078 35.9092 88.4678 35.943L88.3779 35.7069C88.4278 35.6282 88.5078 35.5382 88.6476 35.4483C88.7775 35.3471 88.9273 35.3021 89.0971 35.3021C89.257 35.3021 89.3769 35.3471 89.4568 35.437C89.5267 35.527 89.5766 35.6506 89.5966 35.8193L89.8663 38.2252L89.9563 39.0572L90.3558 38.4726C90.5756 38.1128 90.7454 37.7643 90.8753 37.4382C91.0052 37.101 91.0851 36.7524 91.115 36.3814C91.115 36.2915 91.115 36.2128 91.0951 36.1228C91.0751 36.0329 91.0651 35.9879 91.0651 35.9767C91.0351 35.8643 91.0151 35.7856 91.0151 35.7181C91.0151 35.5944 91.0451 35.4932 91.105 35.4258C91.175 35.3583 91.2549 35.3134 91.3648 35.3134C91.5146 35.3134 91.6245 35.3808 91.7044 35.527C91.7843 35.6619 91.8243 35.8418 91.8243 36.0666C91.8243 36.4151 91.7144 36.8199 91.4847 37.2921C91.2649 37.7643 90.9752 38.259 90.6255 38.7536L89.9662 39.7317L89.4468 39.7767L89.227 38.3714L88.8474 36.0666ZM95.0909 38.9448C94.971 39.1471 94.7712 39.3383 94.5015 39.5069C94.2318 39.6868 93.9421 39.7655 93.6124 39.7655C93.2928 39.7655 93.033 39.6868 92.8233 39.5294C92.6135 39.372 92.4636 39.1584 92.3637 38.911C92.2638 38.6524 92.2139 38.3826 92.2139 38.0791C92.2139 37.5844 92.3038 37.1122 92.4836 36.685C92.6634 36.2465 92.9132 35.9092 93.2328 35.6506C93.5525 35.4033 93.9021 35.2684 94.2817 35.2684C94.6214 35.2684 94.8711 35.3583 95.031 35.527C95.2008 35.7069 95.2907 35.9317 95.2907 36.224C95.2907 36.595 95.1608 36.9098 94.9011 37.1572C94.6414 37.4045 94.3317 37.5956 93.9721 37.7193C93.6124 37.843 93.2928 37.9104 93.0031 37.9104C92.9831 38.2814 93.033 38.585 93.1629 38.8436C93.2928 39.1022 93.5026 39.2258 93.7723 39.2258C93.9821 39.2258 94.1819 39.1696 94.3816 39.0684C94.5814 38.956 94.7612 38.7986 94.9211 38.6075L95.0909 38.9448ZM94.1219 35.7181C93.9121 35.7181 93.7223 35.808 93.5625 35.9992C93.4027 36.1903 93.2828 36.4264 93.1829 36.7187C93.093 36.9998 93.033 37.2808 93.0131 37.5619C93.2328 37.5507 93.4726 37.4944 93.7123 37.4045C93.9621 37.3033 94.1619 37.1572 94.3217 36.966C94.4815 36.7749 94.5615 36.5613 94.5615 36.314C94.5615 36.1228 94.5215 35.9654 94.4416 35.8643C94.3717 35.7631 94.2618 35.7181 94.1219 35.7181ZM97.0189 36.3927C97.0788 36.224 97.1587 36.0554 97.2886 35.8867C97.4185 35.7181 97.5583 35.5719 97.7381 35.4708C97.908 35.3583 98.0878 35.3021 98.2776 35.3021C98.3875 35.3021 98.4674 35.3246 98.4974 35.3583L98.3375 36.2465C98.2676 36.1903 98.1577 36.1566 97.9979 36.1566C97.8081 36.1566 97.6183 36.224 97.4285 36.3589C97.2387 36.4826 97.0988 36.6737 96.9989 36.9098L96.6693 39.6868H95.95L96.3895 35.9654L96.0299 35.7743L96.0899 35.482L96.949 35.3021L97.0988 35.3921L97.0489 36.0891L97.0189 36.3927ZM99.9458 36.2915C100.136 35.9992 100.355 35.7631 100.605 35.5719C100.855 35.3808 101.115 35.2909 101.374 35.2909C101.644 35.2909 101.844 35.3808 101.984 35.5495C102.124 35.7293 102.203 36.0104 102.203 36.4039C102.203 36.595 102.164 36.9548 102.074 37.4832L102.034 37.7643L102.004 37.9891C101.924 38.4388 101.874 38.7761 101.874 39.0122V39.0572C101.874 39.1921 101.904 39.2595 101.964 39.2595C102.054 39.2595 102.164 39.1921 102.293 39.0684L102.383 39.282C102.323 39.372 102.223 39.4732 102.074 39.5856C101.924 39.698 101.754 39.7542 101.564 39.7542C101.254 39.7542 101.095 39.5968 101.095 39.2708C101.095 39.1134 101.135 38.7761 101.225 38.2702L101.274 37.9891L101.304 37.798C101.404 37.1909 101.454 36.7637 101.454 36.4938C101.454 36.2577 101.414 36.0891 101.354 36.0104C101.294 35.9205 101.185 35.8755 101.045 35.8755C100.865 35.8755 100.665 35.9767 100.445 36.179C100.226 36.3702 100.036 36.6175 99.8759 36.9098L99.5363 39.698H98.817L99.2666 35.9654L98.9169 35.7743L98.9769 35.482L99.8859 35.3021L100.036 35.3921L99.9458 36.2915ZM105.96 38.9672C105.96 38.9897 105.95 39.0122 105.95 39.0572C105.95 39.1359 105.96 39.1921 105.98 39.2258C106.01 39.2596 106.039 39.282 106.079 39.282C106.149 39.282 106.259 39.2146 106.389 39.0909L106.489 39.2933C106.439 39.3832 106.339 39.4956 106.199 39.6081C106.059 39.7205 105.9 39.7767 105.73 39.7767C105.59 39.7767 105.47 39.743 105.39 39.6643C105.31 39.5856 105.27 39.4507 105.27 39.282L105.3 39.0572C105.15 39.2596 104.981 39.4282 104.781 39.5631C104.581 39.698 104.371 39.7767 104.141 39.7767C103.762 39.7767 103.482 39.6306 103.302 39.3383C103.113 39.0347 103.023 38.6524 103.023 38.1578C103.023 37.7193 103.113 37.2696 103.292 36.8311C103.472 36.3927 103.732 36.0217 104.062 35.7293C104.401 35.437 104.801 35.2909 105.25 35.2909C105.36 35.2909 105.48 35.3021 105.61 35.3358C105.74 35.3583 105.87 35.3921 105.98 35.4258L106.409 35.2909L105.96 38.9672ZM105.62 35.8418C105.5 35.7631 105.35 35.7181 105.17 35.7181C104.871 35.7181 104.621 35.8418 104.411 36.0779C104.201 36.3252 104.042 36.6288 103.942 36.9885C103.842 37.3483 103.792 37.7081 103.792 38.0791C103.792 38.4501 103.842 38.7424 103.942 38.9448C104.042 39.1471 104.191 39.2483 104.391 39.2483C104.551 39.2483 104.721 39.1809 104.881 39.0459C105.051 38.911 105.19 38.7536 105.31 38.5737L105.62 35.8418ZM108.327 36.2915C108.517 35.9992 108.737 35.7631 108.986 35.5719C109.236 35.3808 109.496 35.2909 109.756 35.2909C110.015 35.2909 110.225 35.3808 110.365 35.5495C110.505 35.7293 110.585 36.0104 110.585 36.4039C110.585 36.595 110.545 36.9548 110.455 37.4832L110.415 37.7643L110.385 37.9891C110.305 38.4388 110.255 38.7761 110.255 39.0122V39.0572C110.255 39.1921 110.285 39.2595 110.345 39.2595C110.435 39.2595 110.545 39.1921 110.675 39.0684L110.765 39.282C110.705 39.372 110.605 39.4732 110.455 39.5856C110.305 39.698 110.135 39.7542 109.945 39.7542C109.636 39.7542 109.476 39.5968 109.476 39.2708C109.476 39.1134 109.516 38.7761 109.606 38.2702L109.656 37.9891L109.686 37.798C109.786 37.1909 109.836 36.7637 109.836 36.4938C109.836 36.2577 109.796 36.0891 109.736 36.0104C109.676 35.9205 109.566 35.8755 109.426 35.8755C109.246 35.8755 109.046 35.9767 108.827 36.179C108.607 36.3702 108.417 36.6175 108.257 36.9098L107.918 39.698H107.198L107.648 35.9654L107.298 35.7743L107.358 35.482L108.267 35.3021L108.417 35.3921L108.327 36.2915ZM113.901 36.2353C113.632 35.943 113.432 35.7968 113.272 35.7968C113.062 35.7968 112.862 35.8867 112.693 36.0666C112.523 36.2465 112.383 36.4938 112.293 36.8199C112.193 37.1347 112.143 37.5057 112.143 37.9217C112.143 38.7986 112.393 39.2371 112.882 39.2371C113.082 39.2371 113.242 39.2033 113.382 39.1246C113.522 39.0459 113.672 38.9335 113.831 38.7649L113.981 39.0572C113.861 39.2371 113.692 39.3945 113.462 39.5406C113.232 39.6868 112.962 39.7655 112.643 39.7655C112.243 39.7655 111.943 39.6081 111.714 39.3045C111.494 38.9897 111.374 38.5625 111.374 38.0116C111.374 37.5844 111.454 37.1684 111.614 36.7524C111.774 36.3252 112.013 35.9767 112.323 35.7069C112.643 35.4258 113.012 35.2909 113.442 35.2909C113.572 35.2909 113.721 35.3021 113.871 35.3358C114.021 35.3696 114.141 35.4033 114.241 35.4595L114.041 36.269L113.901 36.2353ZM117.408 38.9448C117.288 39.1471 117.088 39.3383 116.818 39.5069C116.549 39.6868 116.259 39.7655 115.929 39.7655C115.61 39.7655 115.35 39.6868 115.14 39.5294C114.93 39.372 114.78 39.1584 114.68 38.911C114.581 38.6524 114.531 38.3826 114.531 38.0791C114.531 37.5844 114.621 37.1122 114.8 36.685C114.98 36.2465 115.23 35.9092 115.55 35.6506C115.869 35.4033 116.219 35.2684 116.598 35.2684C116.938 35.2684 117.188 35.3583 117.348 35.527C117.518 35.7069 117.607 35.9317 117.607 36.224C117.607 36.595 117.478 36.9098 117.218 37.1572C116.958 37.4045 116.648 37.5956 116.289 37.7193C115.929 37.843 115.61 37.9104 115.32 37.9104C115.3 38.2814 115.35 38.585 115.48 38.8436C115.61 39.1022 115.819 39.2258 116.089 39.2258C116.299 39.2258 116.499 39.1696 116.698 39.0684C116.898 38.956 117.078 38.7986 117.238 38.6075L117.408 38.9448ZM116.429 35.7181C116.219 35.7181 116.029 35.808 115.869 35.9992C115.709 36.1903 115.59 36.4264 115.49 36.7187C115.4 36.9998 115.34 37.2808 115.32 37.5619C115.54 37.5507 115.779 37.4944 116.019 37.4045C116.269 37.3033 116.469 37.1572 116.628 36.966C116.788 36.7749 116.868 36.5613 116.868 36.314C116.868 36.1228 116.828 35.9654 116.748 35.8643C116.688 35.7631 116.579 35.7181 116.429 35.7181Z" fill="white"/>
<path d="M16.0433 5.18289C16.6826 5.18289 17.3419 5.31781 18.0112 5.57639C18.6805 5.81249 19.2899 6.14977 19.8593 6.61072C20.4487 7.07167 20.9382 7.62256 21.3478 8.25215C21.7473 8.85926 22.0171 9.53382 22.1469 10.2871C22.3567 11.6699 22.3567 12.9291 22.1469 14.0534C21.9571 15.1777 21.6474 16.1895 21.2279 17.0777C20.7983 17.9434 20.2889 18.7079 19.6995 19.3712C19.1401 20.0345 18.6006 20.5854 18.0912 21.0126C17.5817 21.4174 17.1421 21.7322 16.7725 21.9683C16.4229 22.2044 16.2331 22.3168 16.2131 22.3168C14.9344 23.1825 13.5958 23.531 12.2073 23.3511C10.8487 23.205 9.56004 22.789 8.36129 22.0919V31.8169L4.75505 28.0506V19.0114H4.69511V3.80004H2.00791L0 0H23.7752L25.7831 3.80004H8.34131V9.4214C8.50114 9.27524 8.84079 8.97169 9.34027 8.51074C9.84974 8.04979 10.4591 7.57759 11.1883 7.08291C11.9076 6.58823 12.6968 6.16101 13.5559 5.79C14.405 5.38526 15.2341 5.18289 16.0433 5.18289ZM8.34131 17.5049C9.25036 19.1801 10.2094 20.2144 11.2283 20.6191C12.2672 20.9902 13.2562 20.9789 14.1952 20.5742C15.1542 20.1469 16.0133 19.4162 16.7625 18.4156C17.5118 17.3812 18.0612 16.2795 18.4108 15.1327C18.7804 13.9747 18.8903 12.8729 18.7305 11.8049C18.5707 10.7368 18.0612 9.92732 17.2021 9.38767C16.8325 9.15157 16.4429 8.99417 16.0433 8.90423C15.6737 8.81429 15.1642 8.89299 14.5149 9.11784C13.8955 9.32021 13.0964 9.73619 12.1074 10.377C11.1184 11.0179 9.85973 11.951 8.34131 13.1877V17.5049Z" fill="white"/>
<path d="M37.0513 5.18289C37.371 5.32905 37.6907 5.58763 38.0103 5.95864C38.36 6.30717 38.6896 6.7119 39.0093 7.17285C39.3589 7.63381 39.6686 8.106 39.9284 8.60068C40.218 9.09536 40.4778 9.53383 40.6876 9.93856L38.0403 13.0078C37.8805 12.7155 37.6807 12.4007 37.4409 12.0522C37.2012 11.6812 36.9415 11.3439 36.6817 11.0628C36.412 10.7705 36.1323 10.5457 35.8426 10.3658C35.5729 10.1971 35.3231 10.1297 35.0834 10.1971C34.8436 10.2871 34.484 10.4557 34.0045 10.7143C33.525 10.9504 33.0056 11.2315 32.4362 11.58C31.8767 11.8948 31.3173 12.2433 30.7479 12.6143C30.1885 12.9629 29.709 13.2777 29.2994 13.57V22.7777L25.6932 19.0114V3.80004H24.2047L22.2168 0H40.6576L42.6655 3.80004H29.3194V11.2427L33.2853 7.52138C33.495 7.31901 33.7648 7.06043 34.0844 6.74563C34.4041 6.43084 34.7437 6.13852 35.0834 5.87994C35.463 5.62136 35.8226 5.41899 36.1723 5.27284C36.5219 5.10419 36.8116 5.07047 37.0513 5.18289Z" fill="white"/>
<path d="M55.0134 5.31781C55.6527 5.52017 56.2721 5.79 56.8615 6.13852C57.4509 6.45332 57.9603 6.83557 58.3899 7.2628C58.8394 7.66753 59.1891 8.11724 59.4288 8.60068C59.6985 9.09536 59.8284 9.5788 59.8284 10.0735V22.8227L56.6217 20.1469C56.1422 20.6641 55.5129 21.1363 54.7337 21.5748C53.9545 22.002 53.1154 22.3505 52.2063 22.6091C51.2973 22.8452 50.3483 22.9689 49.3593 23.0026C48.4003 23.0363 47.4713 22.9127 46.5922 22.6541C45.7131 22.3955 44.9039 21.9795 44.1847 21.3949C43.4654 20.8215 42.906 20.057 42.4965 19.1014C42.0369 18.0895 41.8971 17.0889 42.0569 16.0771C42.2467 15.0652 42.6363 14.1658 43.2157 13.3563C43.8351 12.5244 44.6142 11.8386 45.5832 11.3214C46.5722 10.7705 47.6411 10.467 48.7899 10.4108C49.9687 10.3208 51.1774 10.5232 52.4361 11.0179C53.7148 11.4788 54.9734 12.2995 56.2022 13.48V10.1184C56.2022 9.28648 55.7726 8.64565 54.9235 8.21843C54.1044 7.75747 53.0854 7.63381 51.8867 7.8699C51.0276 8.01606 50.3483 8.13973 49.8388 8.2634C49.3293 8.37582 48.8498 8.52198 48.4003 8.69062C47.9408 8.83678 47.4513 9.01666 46.9118 9.25276C46.3724 9.48885 45.6532 9.78116 44.7441 10.1634L43.865 8.00482C44.7741 7.60008 45.6731 7.20658 46.5522 6.83557C47.3314 6.52078 48.1406 6.20598 48.9997 5.87994C49.8788 5.56515 50.6879 5.31781 51.4072 5.14916C51.4571 5.11544 51.5171 5.10419 51.567 5.10419C51.6469 5.10419 51.7168 5.09295 51.7668 5.05922V3.80004H41.6573L39.6494 0H61.7864L63.7943 3.80004H55.0134V5.31781ZM56.2122 16.0883C55.1732 15.2226 54.0744 14.593 52.9256 14.1883C51.7768 13.7611 50.7079 13.5587 49.7189 13.5812C48.73 13.6149 47.8709 13.8735 47.1516 14.357C46.4323 14.8179 45.9728 15.5149 45.793 16.4369C45.5832 17.4487 45.6332 18.2357 45.9528 18.8203C46.2725 19.4049 46.742 19.7984 47.3514 20.0345C47.9907 20.2706 48.73 20.3493 49.5591 20.2931C50.4182 20.2369 51.2573 20.0795 52.0865 19.8209C52.9456 19.5623 53.7347 19.2475 54.454 18.8653C55.2032 18.4943 55.7926 18.1008 56.2221 17.696V16.0883H56.2122Z" fill="white"/>
<path d="M85.3415 3.80004H81.2557V24.7677C81.2557 26.2967 80.9061 27.5334 80.2168 28.489C79.5175 29.4672 78.7284 30.2092 77.8493 30.6926C76.9103 31.2098 76.0012 31.5583 75.1221 31.7269C74.263 31.8956 73.4239 31.963 72.5948 31.8956C71.7956 31.8619 71.0164 31.7269 70.2672 31.4684C69.5479 31.2323 68.8686 30.9624 68.2193 30.6476C66.7508 29.8944 65.3723 28.8713 64.0936 27.5784V27.5447L66.0216 25.2062C66.6909 25.9257 67.3802 26.6452 68.1094 27.3648C68.8287 28.0843 69.5879 28.6577 70.397 29.0962C71.1962 29.5571 72.0453 29.8157 72.9244 29.8719C73.8335 29.9618 74.8124 29.7257 75.8514 29.1749C76.3908 28.8601 76.8104 28.4666 77.13 28.0056C77.4797 27.5784 77.6495 27.0949 77.6495 26.5778V19.0114C77.4097 19.1576 77.0601 19.4274 76.6106 19.8322C76.161 20.2369 75.6116 20.6529 74.9623 21.0913C74.323 21.5186 73.5837 21.9121 72.7546 22.2606C71.9255 22.6091 71.0264 22.7777 70.0674 22.7777C69.2882 22.7777 68.489 22.5866 67.6599 22.2156C66.8308 21.8109 66.1115 21.3049 65.4922 20.6978C64.8728 20.0907 64.4233 19.4274 64.1236 18.7079C63.8539 17.9883 63.8838 17.2801 64.2035 16.5943C64.683 15.5599 65.1126 14.6942 65.4822 13.9972C65.8518 13.2776 66.1015 12.5581 66.2014 11.8386C66.3113 11.0853 66.2314 10.2534 65.9617 9.33146C65.7219 8.37582 65.2124 7.1841 64.4333 5.74503C64.9427 5.89118 65.4322 6.04858 65.9217 6.21722C66.4012 6.36338 66.8407 6.56575 67.2403 6.82433C67.6399 7.08291 67.9896 7.43144 68.2792 7.85866C68.5989 8.2634 68.8586 8.82553 69.0385 9.54507C69.3282 10.7031 69.3581 11.7599 69.1184 12.7492C68.8786 13.7274 68.6089 14.6043 68.3192 15.3913C68.0495 16.167 67.8797 16.8416 67.7998 17.4262C67.7198 17.9771 67.9895 18.3931 68.5989 18.6854C68.9985 18.8878 69.4181 19.0339 69.8376 19.1126C70.2672 19.1688 70.7966 19.1014 71.4459 18.899C72.1152 18.6629 72.9244 18.2469 73.8934 17.6398C74.8824 17.0327 76.1211 16.1221 77.6195 14.9191V3.80004H62.4054L60.3975 0H83.3336L85.3415 3.80004Z" fill="white"/>
<path d="M97.7681 5.31781C98.4074 5.52017 99.0268 5.79 99.6161 6.13852C100.206 6.45332 100.715 6.83557 101.145 7.2628C101.594 7.66753 101.944 8.11724 102.183 8.60068C102.453 9.09536 102.583 9.5788 102.583 10.0735V22.8227L99.3764 20.1469C98.8969 20.6641 98.2675 21.1363 97.4884 21.5748C96.7092 22.002 95.87 22.3505 94.961 22.6091C94.0519 22.8452 93.1029 22.9689 92.114 23.0026C91.155 23.0363 90.2259 22.9127 89.3468 22.6541C88.4678 22.3955 87.6586 21.9795 86.9393 21.3949C86.2201 20.8215 85.6607 20.057 85.2511 19.1014C84.8016 18.0895 84.6517 17.0889 84.8116 16.0771C85.0014 15.0652 85.391 14.1658 85.9704 13.3563C86.5897 12.5244 87.3689 11.8386 88.3379 11.3214C89.3269 10.7705 90.3957 10.467 91.5446 10.4108C92.7233 10.3208 93.9321 10.5232 95.1908 11.0179C96.4694 11.4788 97.7281 12.2995 98.9568 13.48V10.1184C98.9568 9.28648 98.5273 8.64565 97.6782 8.21843C96.859 7.75747 95.8501 7.63381 94.6413 7.8699C93.7822 8.01606 93.1029 8.13973 92.5935 8.2634C92.084 8.37582 91.6045 8.52198 91.145 8.69062C90.6954 8.83678 90.196 9.01666 89.6665 9.25276C89.1271 9.48885 88.4078 9.78116 87.4988 10.1634L86.6197 8.00482C87.5287 7.60008 88.4278 7.20658 89.3069 6.83557C90.0861 6.52078 90.8952 6.20598 91.7543 5.87994C92.6334 5.56515 93.4426 5.31781 94.1618 5.14916C94.2118 5.11544 94.2717 5.10419 94.3217 5.10419C94.4016 5.10419 94.4715 5.09295 94.5215 5.05922V3.80004H84.422L82.4141 0H104.551L106.559 3.80004H97.7781V5.31781H97.7681ZM98.9768 16.0883C97.9379 15.2226 96.839 14.593 95.6902 14.1883C94.5414 13.7611 93.4725 13.5587 92.4836 13.5812C91.4946 13.6149 90.6355 13.8735 89.9162 14.357C89.197 14.8179 88.7375 15.5149 88.5577 16.4369C88.3479 17.4487 88.3978 18.2357 88.7175 18.8203C89.0372 19.4049 89.5067 19.7984 90.116 20.0345C90.7554 20.2706 91.4946 20.3493 92.3237 20.2931C93.1828 20.2369 94.022 20.0795 94.8511 19.8209C95.7102 19.5623 96.4994 19.2475 97.2186 18.8653C97.9679 18.4943 98.5572 18.1008 98.9868 17.696V16.0883H98.9768Z" fill="white"/>
<path d="M115.55 12.1084C115.979 12.4794 116.499 12.8167 117.118 13.0978C117.737 13.3901 118.357 13.6936 119.006 14.0084C119.675 14.3007 120.315 14.6043 120.934 14.9191C121.573 15.2114 122.123 15.5374 122.582 15.9084C123.062 16.257 123.412 16.6392 123.621 17.0777C123.861 17.5049 123.911 18.0108 123.781 18.5955C123.491 19.8097 122.902 20.7541 122.013 21.4511C121.134 22.1482 120.085 22.6428 118.886 22.9689C119.206 23.2275 119.516 23.4411 119.805 23.6209C120.095 23.7896 120.515 24.0144 121.044 24.273L118.916 26.7802C118.137 26.3754 117.438 25.8695 116.788 25.2624C116.149 24.689 115.57 24.0257 115.06 23.2724C113.692 23.1825 112.363 22.9127 111.054 22.4517C109.746 21.9908 108.617 21.3724 107.688 20.5967C106.779 19.8209 106.14 18.899 105.76 17.8309C105.41 16.7629 105.49 15.5824 106 14.2895C106.189 13.7723 106.489 13.3676 106.919 13.0753C107.348 12.783 107.818 12.6031 108.327 12.5131C108.837 12.4232 109.356 12.4232 109.896 12.5131C110.435 12.6031 110.915 12.7268 111.344 12.9066C112.043 13.2214 112.603 13.7049 113.032 14.3345C113.482 14.9416 113.891 15.6049 114.231 16.3244C114.581 17.044 114.91 17.7635 115.23 18.483C115.58 19.2026 115.989 19.8209 116.469 20.3381C117.218 20.2256 117.877 20.0233 118.437 19.731C119.026 19.4387 119.426 19.1014 119.635 18.6966C119.875 18.2694 119.875 17.8085 119.635 17.3138C119.426 16.8191 118.876 16.2907 117.987 15.7173C117.638 15.5149 117.208 15.3126 116.708 15.1102C116.229 14.8741 115.71 14.6155 115.14 14.3345C114.571 14.0534 114.001 13.7049 113.412 13.3001C112.823 12.8954 112.263 12.3782 111.724 11.7486C110.944 10.8267 110.525 9.91608 110.445 9.0279C110.395 8.106 110.595 7.33025 111.044 6.68942C111.524 6.05982 112.193 5.6326 113.052 5.43023C113.931 5.19414 114.94 5.32905 116.059 5.82373V3.80004H104.911L102.923 0H125.06L127.068 3.80004H119.326V8.60068C117.478 7.97109 116.149 7.72375 115.32 7.8699C114.491 7.98233 114.001 8.28588 113.831 8.78056C113.702 9.27524 113.821 9.84862 114.191 10.5119C114.561 11.1415 115.02 11.6699 115.55 12.1084ZM109.776 15.6948C109.406 16.212 109.266 16.7629 109.376 17.3363C109.486 17.8872 109.736 18.3931 110.135 18.854C110.535 19.315 111.034 19.7085 111.624 20.0233C112.213 20.3156 112.773 20.4393 113.312 20.4168C113.072 19.9896 112.843 19.5398 112.633 19.0789C112.423 18.5842 112.183 18.1233 111.913 17.696C111.644 17.2688 111.334 16.8753 110.994 16.5268C110.635 16.167 110.235 15.8972 109.776 15.6948Z" fill="white"/>
<path d="M5.94387 23.4523H7.14262C7.80193 23.4523 8.34137 24.3292 8.34137 25.4085V39.1247C8.34137 40.204 7.80193 41.0809 7.14262 41.0809H5.94387C5.28455 41.0809 4.74512 40.204 4.74512 39.1247V25.4085C4.74512 24.3292 5.28455 23.4523 5.94387 23.4523Z" fill="white"/>
</svg>
