<svg width="41" height="37" viewBox="0 0 41 37" fill="none" xmlns="http://www.w3.org/2000/svg">
<path d="M28.1877 25.4845V26.2162H25.8806V25.4845H28.1877ZM26.4519 24.5269H27.5066V28.1961C27.5066 28.3084 27.5212 28.3945 27.5505 28.4543C27.5823 28.5141 27.6287 28.5559 27.6897 28.5798C27.7507 28.6014 27.8276 28.6121 27.9204 28.6121C27.9863 28.6121 28.0449 28.6097 28.0962 28.6049C28.1499 28.5978 28.1951 28.5906 28.2317 28.5834L28.2354 29.3438C28.145 29.3725 28.0474 29.3952 27.9424 29.412C27.8374 29.4287 27.7214 29.4371 27.5945 29.4371C27.3625 29.4371 27.1599 29.4 26.9866 29.3259C26.8157 29.2494 26.6838 29.1274 26.5911 28.96C26.4983 28.7927 26.4519 28.5727 26.4519 28.3001V24.5269Z" fill="#305098"/>
<path d="M23.0786 26.3134V29.3656H22.0239V25.4848H23.0127L23.0786 26.3134ZM22.9248 27.2889H22.6392C22.6392 27.002 22.677 26.7438 22.7527 26.5142C22.8284 26.2823 22.9346 26.085 23.0713 25.9224C23.208 25.7574 23.3704 25.6319 23.5583 25.5458C23.7488 25.4573 23.9612 25.4131 24.1956 25.4131C24.3811 25.4131 24.5508 25.4394 24.7046 25.492C24.8584 25.5446 24.9902 25.6283 25.1001 25.7431C25.2124 25.8578 25.2979 26.0097 25.3564 26.1986C25.4175 26.3875 25.448 26.6182 25.448 26.8908V29.3656H24.386V26.8872C24.386 26.7151 24.3616 26.5812 24.3127 26.4855C24.2639 26.3899 24.1919 26.3229 24.0967 26.2847C24.0039 26.244 23.8892 26.2237 23.7524 26.2237C23.6108 26.2237 23.4875 26.2512 23.3826 26.3062C23.28 26.3612 23.1946 26.4377 23.1262 26.5357C23.0603 26.6314 23.0103 26.7438 22.9761 26.8729C22.9419 27.002 22.9248 27.1407 22.9248 27.2889Z" fill="#305098"/>
<path d="M21.1733 25.4845V29.3654H20.115V25.4845H21.1733ZM20.0491 24.4731C20.0491 24.3224 20.1028 24.1981 20.2102 24.1001C20.3176 24.002 20.4617 23.953 20.6423 23.953C20.8206 23.953 20.9634 24.002 21.0708 24.1001C21.1807 24.1981 21.2356 24.3224 21.2356 24.4731C21.2356 24.6237 21.1807 24.7481 21.0708 24.8461C20.9634 24.9441 20.8206 24.9931 20.6423 24.9931C20.4617 24.9931 20.3176 24.9441 20.2102 24.8461C20.1028 24.7481 20.0491 24.6237 20.0491 24.4731Z" fill="#305098"/>
<path d="M18.3652 26.3313V29.3656H17.3105V25.4848H18.303L18.3652 26.3313ZM19.5591 25.4597L19.5408 26.4174C19.4895 26.4102 19.4272 26.4042 19.354 26.3994C19.2832 26.3923 19.2185 26.3887 19.1599 26.3887C19.011 26.3887 18.8816 26.4078 18.7717 26.4461C18.6643 26.4819 18.574 26.5357 18.5007 26.6075C18.4299 26.6792 18.3762 26.7665 18.3396 26.8693C18.3054 26.9721 18.2859 27.0893 18.281 27.2208L18.0686 27.1562C18.0686 26.9052 18.0942 26.6744 18.1455 26.464C18.1968 26.2512 18.2712 26.0659 18.3689 25.9081C18.469 25.7502 18.5911 25.6283 18.7351 25.5422C18.8792 25.4561 19.0439 25.4131 19.2295 25.4131C19.2881 25.4131 19.3479 25.4179 19.4089 25.4274C19.47 25.4346 19.52 25.4454 19.5591 25.4597Z" fill="#305098"/>
<path d="M14.6204 27.5037H13.2617V26.6644H14.6204C14.8303 26.6644 15.0012 26.6309 15.1331 26.564C15.2649 26.4946 15.3613 26.399 15.4224 26.277C15.4834 26.1551 15.5139 26.0176 15.5139 25.8646C15.5139 25.7091 15.4834 25.5645 15.4224 25.4306C15.3613 25.2967 15.2649 25.1891 15.1331 25.1078C15.0012 25.0265 14.8303 24.9858 14.6204 24.9858H13.6426V29.3652H12.5439V24.1429H14.6204C15.0378 24.1429 15.3955 24.2171 15.6934 24.3653C15.9937 24.5112 16.2231 24.7132 16.3818 24.9715C16.5405 25.2297 16.6199 25.525 16.6199 25.8574C16.6199 26.1945 16.5405 26.4863 16.3818 26.7326C16.2231 26.9788 15.9937 27.1689 15.6934 27.3028C15.3955 27.4367 15.0378 27.5037 14.6204 27.5037Z" fill="#305098"/>
<path d="M35.4337 5.69231H6.39528C4.91619 5.69231 3.49768 6.23581 2.4518 7.20324C1.40593 8.17068 0.818359 9.4828 0.818359 10.851V24.9038C0.818359 26.2248 1.38567 27.4917 2.39548 28.4258C3.40529 29.3599 4.77489 29.8846 6.20298 29.8846H6.97221V33.4138C6.97221 34.365 7.38067 35.2771 8.10773 35.9496C8.83479 36.6222 9.82091 37 10.8491 37H30.7876C31.8158 37 32.8019 36.6222 33.529 35.9496C34.2561 35.2771 34.6645 34.365 34.6645 33.4138V29.8846H35.4337C36.8618 29.8846 38.2314 29.3599 39.2412 28.4258C40.2511 27.4917 40.8184 26.2248 40.8184 24.9038V10.6731C40.8184 9.35209 40.2511 8.08522 39.2412 7.15114C38.2314 6.21707 36.8618 5.69231 35.4337 5.69231ZM31.5876 33.4138C31.5868 33.6099 31.5023 33.7977 31.3524 33.9363C31.2026 34.075 30.9995 34.1531 30.7876 34.1538H10.8491C10.6372 34.1531 10.4341 34.075 10.2843 33.9363C10.1344 33.7977 10.0499 33.6099 10.0491 33.4138V19.24C10.0499 19.044 10.1344 18.8561 10.2843 18.7175C10.4341 18.5789 10.6372 18.5007 10.8491 18.5H30.7876C30.9995 18.5007 31.2026 18.5789 31.3524 18.7175C31.5023 18.8561 31.5868 19.044 31.5876 19.24V33.4138ZM34.0876 14.2237C33.6169 14.2586 33.146 14.1592 32.7383 13.9389C32.3306 13.7185 32.0058 13.3877 31.8078 12.9912C31.6097 12.5947 31.548 12.1515 31.6308 11.7215C31.7136 11.2915 31.937 10.8953 32.2709 10.5865C32.6048 10.2777 33.0331 10.071 33.498 9.99437C33.9628 9.91777 34.4419 9.97492 34.8706 10.1581C35.2992 10.3413 35.6568 10.6417 35.8951 11.0188C36.1333 11.3959 36.2408 11.8315 36.203 12.2669C36.1591 12.7723 35.9221 13.2468 35.5345 13.6053C35.1469 13.9638 34.634 14.183 34.0876 14.2237ZM29.2799 0H12.3568C11.0626 0.00178266 9.81222 0.434005 8.83392 1.21777C7.85562 2.00154 7.21464 3.08459 7.02798 4.26923H34.6087C34.4221 3.08459 33.7811 2.00154 32.8028 1.21777C31.8245 0.434005 30.5741 0.00178266 29.2799 0Z" fill="#305098"/>
</svg>
