<svg width="23" height="24" viewBox="0 0 23 24" fill="none" xmlns="http://www.w3.org/2000/svg">
<path d="M13.637 10.0018C13.4707 9.84082 13.2035 9.84082 12.6684 9.84082L9.26409 9.84082C8.72904 9.84082 8.4618 9.84082 8.29556 10.0018C8.12931 10.1628 8.12931 10.4216 8.12931 10.9397C8.12931 11.4579 8.12931 11.7166 8.29556 11.8776C8.4618 12.0386 8.72904 12.0386 9.26409 12.0386L12.6684 12.0386C13.2035 12.0386 13.4707 12.0386 13.637 11.8776C13.8032 11.7166 13.8032 11.4579 13.8032 10.9397C13.8032 10.4216 13.8032 10.1628 13.637 10.0018Z" fill="#D3B155"/>
<path opacity="0.4" d="M17.6082 17.6942C17.4419 17.5332 17.1747 17.5332 16.6396 17.5332L9.26355 17.5332C8.7285 17.5332 8.46126 17.5332 8.29501 17.6942C8.12877 17.8552 8.12877 18.114 8.12877 18.6321C8.12877 19.1502 8.12877 19.409 8.29501 19.57C8.46126 19.731 8.7285 19.731 9.26355 19.731L16.6396 19.731C17.1747 19.731 17.4419 19.731 17.6082 19.57C17.7744 19.409 17.7744 19.1502 17.7744 18.6321C17.7744 18.114 17.7744 17.8552 17.6082 17.6942Z" fill="#D3B155"/>
<path opacity="0.75" d="M14.9365 13.6865C15.4716 13.6865 15.7388 13.6865 15.905 13.8475C16.0713 14.0085 16.0713 14.2673 16.0713 14.7854C16.0713 15.3036 16.0713 15.5623 15.905 15.7233C15.7388 15.8843 15.4716 15.8843 14.9365 15.8843L9.26259 15.8843C8.72754 15.8843 8.4603 15.8843 8.29406 15.7233C8.12781 15.5623 8.12781 15.3036 8.12781 14.7854C8.12781 14.2673 8.12781 14.0085 8.29406 13.8475C8.4603 13.6865 8.72754 13.6865 9.26259 13.6865L14.9365 13.6865Z" fill="#D3B155"/>
<path d="M6.85156 9.8408C6.85156 9.73151 6.80668 9.62669 6.72679 9.54941C6.64691 9.47213 6.53855 9.42871 6.42558 9.42871C6.3126 9.42871 6.20425 9.47213 6.12436 9.54941C6.04447 9.62669 5.99959 9.73151 5.99959 9.8408L5.99959 19.7309C5.99959 19.8402 6.04447 19.945 6.12436 20.0223C6.20424 20.0996 6.3126 20.143 6.42558 20.143C6.53855 20.143 6.64691 20.0996 6.72679 20.0223C6.80668 19.945 6.85156 19.8402 6.85156 19.7309L6.85156 9.8408Z" fill="white"/>
<path d="M20.9091 2.57143H17.7727V1.71429C17.7727 1.25963 17.5524 0.823593 17.1603 0.502103C16.7682 0.180612 16.2364 0 15.6818 0H7.31818C6.76364 0 6.23181 0.180612 5.83969 0.502103C5.44757 0.823593 5.22727 1.25963 5.22727 1.71429V2.57143H2.09091C1.53637 2.57143 1.00453 2.75204 0.612413 3.07353C0.220291 3.39502 0 3.83106 0 4.28571V22.2857C0 22.7404 0.220291 23.1764 0.612413 23.4979C1.00453 23.8194 1.53637 24 2.09091 24H20.9091C21.4636 24 21.9955 23.8194 22.3876 23.4979C22.7797 23.1764 23 22.7404 23 22.2857V4.28571C23 3.83106 22.7797 3.39502 22.3876 3.07353C21.9955 2.75204 21.4636 2.57143 20.9091 2.57143ZM7.31818 1.71429H15.6818V5.14286H7.31818V1.71429ZM20.9091 22.2857H2.09091V4.28571H5.22727V6.85714H17.7727V4.28571H20.9091V22.2857Z" fill="white"/>
</svg>
