<svg width="23" height="24" viewBox="0 0 23 24" fill="none" xmlns="http://www.w3.org/2000/svg">
<path d="M13.6365 10.0018C13.4702 9.84082 13.203 9.84082 12.668 9.84082L9.26361 9.84082C8.72856 9.84082 8.46131 9.84082 8.29507 10.0018C8.12882 10.1628 8.12882 10.4216 8.12882 10.9397C8.12882 11.4579 8.12882 11.7166 8.29507 11.8776C8.46131 12.0386 8.72856 12.0386 9.26361 12.0386L12.668 12.0386C13.203 12.0386 13.4702 12.0386 13.6365 11.8776C13.8027 11.7166 13.8027 11.4579 13.8027 10.9397C13.8027 10.4216 13.8027 10.1628 13.6365 10.0018Z" fill="#3A3A3A"/>
<path opacity="0.4" d="M17.6072 17.6942C17.4409 17.5332 17.1737 17.5332 16.6387 17.5332L9.26257 17.5332C8.72752 17.5332 8.46028 17.5332 8.29403 17.6942C8.12779 17.8552 8.12779 18.114 8.12779 18.6321C8.12779 19.1502 8.12779 19.409 8.29403 19.57C8.46028 19.731 8.72752 19.731 9.26257 19.731L16.6387 19.731C17.1737 19.731 17.4409 19.731 17.6072 19.57C17.7734 19.409 17.7734 19.1502 17.7734 18.6321C17.7734 18.114 17.7734 17.8552 17.6072 17.6942Z" fill="#3A3A3A"/>
<path opacity="0.75" d="M14.9354 13.6865C15.4705 13.6865 15.7377 13.6865 15.9039 13.8475C16.0702 14.0085 16.0702 14.2673 16.0702 14.7854C16.0702 15.3036 16.0702 15.5623 15.9039 15.7233C15.7377 15.8843 15.4705 15.8843 14.9354 15.8843L9.2615 15.8843C8.72645 15.8843 8.4592 15.8843 8.29296 15.7233C8.12671 15.5623 8.12671 15.3036 8.12671 14.7854C8.12671 14.2673 8.12671 14.0085 8.29296 13.8475C8.4592 13.6865 8.72645 13.6865 9.2615 13.6865L14.9354 13.6865Z" fill="#3A3A3A"/>
<path d="M6.84961 9.8408C6.84961 9.73151 6.80473 9.62669 6.72484 9.54941C6.64495 9.47213 6.5366 9.42871 6.42362 9.42871C6.31064 9.42871 6.20229 9.47213 6.1224 9.54941C6.04252 9.62669 5.99764 9.73151 5.99764 9.8408L5.99764 19.7309C5.99764 19.8402 6.04252 19.945 6.1224 20.0223C6.20229 20.0996 6.31064 20.143 6.42362 20.143C6.5366 20.143 6.64495 20.0996 6.72484 20.0223C6.80473 19.945 6.84961 19.8402 6.84961 19.7309L6.84961 9.8408Z" fill="#3A3A3A"/>
<path d="M20.9091 2.57143H17.7727V1.71429C17.7727 1.25963 17.5524 0.823593 17.1603 0.502103C16.7682 0.180612 16.2364 0 15.6818 0H7.31818C6.76364 0 6.23181 0.180612 5.83969 0.502103C5.44757 0.823593 5.22727 1.25963 5.22727 1.71429V2.57143H2.09091C1.53637 2.57143 1.00453 2.75204 0.612413 3.07353C0.220291 3.39502 0 3.83106 0 4.28571V22.2857C0 22.7404 0.220291 23.1764 0.612413 23.4979C1.00453 23.8194 1.53637 24 2.09091 24H20.9091C21.4636 24 21.9955 23.8194 22.3876 23.4979C22.7797 23.1764 23 22.7404 23 22.2857V4.28571C23 3.83106 22.7797 3.39502 22.3876 3.07353C21.9955 2.75204 21.4636 2.57143 20.9091 2.57143ZM7.31818 1.71429H15.6818V5.14286H7.31818V1.71429ZM20.9091 22.2857H2.09091V4.28571H5.22727V6.85714H17.7727V4.28571H20.9091V22.2857Z" fill="#3A3A3A"/>
</svg>
