<svg width="27" height="27" viewBox="0 0 27 27" fill="none" xmlns="http://www.w3.org/2000/svg">
<path d="M15.5845 3.3484L20.738 6.32097C20.8934 6.15704 21.075 6.01497 21.2796 5.89476C21.8405 5.573 22.5063 5.48642 23.131 5.65398C23.7557 5.82154 24.2884 6.22959 24.6125 6.78871C24.8073 7.12832 24.9176 7.50973 24.9339 7.90079C24.9502 8.29186 24.8722 8.68112 24.7064 9.03575C24.5405 9.39038 24.2917 9.69999 23.981 9.93848C23.6703 10.177 23.3067 10.3373 22.9209 10.4061V16.2856C23.311 16.3557 23.6781 16.5198 23.9904 16.7635C24.3027 17.0073 24.5507 17.3234 24.7131 17.6845C24.8755 18.0457 24.9472 18.4409 24.9222 18.836C24.8971 19.231 24.776 19.614 24.5693 19.9518C24.3626 20.2896 24.0766 20.5719 23.736 20.7744C23.3954 20.9769 23.0106 21.0933 22.6148 21.1137C22.2189 21.1341 21.8241 21.0578 21.4645 20.8914C21.1049 20.725 20.7913 20.4735 20.5509 20.1587L15.4893 23.0767C15.6453 23.4472 15.7072 23.8504 15.6695 24.2506C15.6317 24.6508 15.4955 25.0354 15.273 25.3703C15.0504 25.7052 14.7484 25.98 14.3939 26.1701C14.0393 26.3602 13.6432 26.4599 13.2407 26.4601C12.8548 26.461 12.4741 26.3703 12.1301 26.1955C11.7861 26.0207 11.4886 25.7668 11.262 25.4546C11.0355 25.1425 10.8865 24.7811 10.8272 24.4001C10.7679 24.0192 10.8001 23.6296 10.9211 23.2635L5.80255 20.3117C5.54996 20.593 5.23535 20.8117 4.88358 20.9507C4.53181 21.0896 4.15251 21.145 3.77564 21.1124C3.39877 21.0798 3.03466 20.9601 2.71205 20.7628C2.38944 20.5655 2.11718 20.296 1.91677 19.9755C1.71636 19.6551 1.59329 19.2925 1.55728 18.9164C1.52128 18.5403 1.57332 18.161 1.70929 17.8084C1.84527 17.4558 2.06146 17.1396 2.34078 16.8849C2.62011 16.6301 2.95492 16.4436 3.31878 16.3403L3.31987 10.3514C2.9626 10.2504 2.6331 10.0693 2.35642 9.82199C2.07975 9.57466 1.86318 9.26756 1.72319 8.92407C1.5832 8.58057 1.52347 8.20971 1.54854 7.83969C1.57362 7.46967 1.68284 7.11024 1.8679 6.78871C2.05214 6.47091 2.30585 6.19876 2.6101 5.99256C2.91435 5.78636 3.26129 5.65143 3.62503 5.59785C3.98878 5.54427 4.35994 5.57341 4.71084 5.6831C5.06173 5.7928 5.3833 5.98021 5.65155 6.23136L10.8653 3.22381C10.7809 2.86621 10.7786 2.49416 10.8587 2.13556C10.9388 1.77696 11.0991 1.44113 11.3277 1.15324C11.5562 0.865347 11.847 0.632876 12.1784 0.473255C12.5097 0.313635 12.8729 0.231008 13.2407 0.231572C13.6196 0.230807 13.9934 0.318281 14.3325 0.487045C14.6715 0.65581 14.9666 0.901216 15.1941 1.20377C15.4216 1.50633 15.5753 1.85771 15.6431 2.22999C15.7109 2.60228 15.6908 2.98522 15.5845 3.3484V3.3484ZM15.045 4.31011C14.9903 4.36913 14.9323 4.42596 14.8732 4.47951L21.7425 16.3643L21.818 16.3425V10.346C21.5053 10.2555 21.214 10.1034 20.9612 9.8986C20.7084 9.6938 20.4993 9.44048 20.3462 9.15358C20.1931 8.86669 20.0991 8.55206 20.0698 8.22828C20.0405 7.9045 20.0765 7.57814 20.1756 7.26848L15.0439 4.30793L15.045 4.31011ZM11.4561 4.33088C11.421 4.29298 11.3871 4.25399 11.3544 4.21394L6.26429 7.14936C6.39013 7.48285 6.4411 7.83988 6.41361 8.19521C6.38611 8.55054 6.28082 8.89551 6.10517 9.20573C5.92952 9.51595 5.6878 9.78385 5.3971 9.99051C5.10639 10.1972 4.77379 10.3375 4.4228 10.4017V16.2878L4.53221 16.3097L11.4551 4.33088H11.4561ZM13.9071 5.01282C13.4023 5.15563 12.8649 5.13264 12.3742 4.94725L5.52463 16.7927C5.91356 17.1084 6.19618 17.5356 6.33432 18.0167H20.1439C20.2612 17.603 20.4858 17.2275 20.7949 16.9282L13.906 5.01282H13.9071ZM14.9455 22.28L20.1308 19.2899C20.1159 19.2332 20.1032 19.176 20.0925 19.1183H6.38903C6.3748 19.1948 6.3562 19.2713 6.33541 19.3456L11.4955 22.3215C11.9376 21.868 12.5569 21.5871 13.2418 21.5871C13.906 21.5871 14.5067 21.8516 14.9466 22.28H14.9455Z" fill="white"/>
</svg>
