<svg width="27" height="27" viewBox="0 0 27 27" fill="none" xmlns="http://www.w3.org/2000/svg">
<path d="M23.3182 5.74689H27V8.29235H25.7727V22.2924H27V24.8378H0V22.2924H1.22727V8.29235H0V5.74689H3.68182V3.20144C3.68182 2.86389 3.81112 2.54017 4.04128 2.30148C4.27144 2.0628 4.5836 1.92871 4.90909 1.92871H22.0909C22.4164 1.92871 22.7286 2.0628 22.9587 2.30148C23.1889 2.54017 23.3182 2.86389 23.3182 3.20144V5.74689ZM23.3182 8.29235H3.68182V22.2924H7.36364V13.3833H9.81818V22.2924H12.2727V13.3833H14.7273V22.2924H17.1818V13.3833H19.6364V22.2924H23.3182V8.29235ZM6.13636 4.47417V5.74689H20.8636V4.47417H6.13636Z" fill="white"/>
</svg>
