<svg width="27" height="28" viewBox="0 0 27 28" fill="none" xmlns="http://www.w3.org/2000/svg">
<path d="M13.9556 22.0846V20.2646C13.9556 20.1357 13.9997 20.0275 14.088 19.9402C14.176 19.8531 14.2852 19.8096 14.4155 19.8096H17.1749C17.3053 19.8096 17.4144 19.8531 17.5024 19.9402C17.5907 20.0275 17.6349 20.1357 17.6349 20.2646V22.0846C17.6349 22.2135 17.5907 22.3215 17.5024 22.4085C17.4144 22.4959 17.3053 22.5396 17.1749 22.5396H14.4155C14.2852 22.5396 14.176 22.4959 14.088 22.4085C13.9997 22.3215 13.9556 22.2135 13.9556 22.0846ZM9.35645 23.9046V20.2646C9.35645 20.1357 9.4006 20.0275 9.4889 19.9402C9.5769 19.8531 9.68605 19.8096 9.81636 19.8096H12.5758C12.7061 19.8096 12.8154 19.8531 12.9037 19.9402C12.9917 20.0275 13.0357 20.1357 13.0357 20.2646V23.9046C13.0357 24.0335 12.9917 24.1415 12.9037 24.2286C12.8154 24.3159 12.7061 24.3596 12.5758 24.3596H9.81636C9.68605 24.3596 9.5769 24.3159 9.4889 24.2286C9.4006 24.1415 9.35645 24.0335 9.35645 23.9046ZM13.9556 27.5446V23.9046C13.9556 23.7757 13.9997 23.6675 14.088 23.5802C14.176 23.4931 14.2852 23.4496 14.4155 23.4496H17.1749C17.3053 23.4496 17.4144 23.4931 17.5024 23.5802C17.5907 23.6675 17.6349 23.7757 17.6349 23.9046V27.5446C17.6349 27.6735 17.5907 27.7815 17.5024 27.8686C17.4144 27.9559 17.3053 27.9996 17.1749 27.9996H14.4155C14.2852 27.9996 14.176 27.9559 14.088 27.8686C13.9997 27.7815 13.9556 27.6735 13.9556 27.5446ZM9.35645 27.5446V25.7246C9.35645 25.5957 9.4006 25.4876 9.4889 25.4002C9.5769 25.3131 9.68605 25.2696 9.81636 25.2696H12.5758C12.7061 25.2696 12.8154 25.3131 12.9037 25.4002C12.9917 25.4876 13.0357 25.5957 13.0357 25.7246V27.5446C13.0357 27.6735 12.9917 27.7815 12.9037 27.8686C12.8154 27.9559 12.7061 27.9996 12.5758 27.9996H9.81636C9.68605 27.9996 9.5769 27.9559 9.4889 27.8686C9.4006 27.7815 9.35645 27.6735 9.35645 27.5446Z" fill="white"/>
<path d="M13.7075 8.03613C11.3047 8.03613 9.36133 9.95875 9.36133 12.3359C9.36133 15.5607 13.7075 20.3212 13.7075 20.3212C13.7075 20.3212 18.0537 15.5607 18.0537 12.3359C18.0537 9.95875 16.1103 8.03613 13.7075 8.03613ZM10.6031 12.3359C10.6031 10.6406 11.9939 9.26464 13.7075 9.26464C15.4211 9.26464 16.8119 10.6406 16.8119 12.3359C16.8119 14.105 15.0238 16.7524 13.7075 18.4047C12.4161 16.7647 10.6031 14.0865 10.6031 12.3359Z" fill="white"/>
<path d="M13.7153 13.8711C14.5725 13.8711 15.2675 13.1835 15.2675 12.3354C15.2675 11.4873 14.5725 10.7998 13.7153 10.7998C12.858 10.7998 12.1631 11.4873 12.1631 12.3354C12.1631 13.1835 12.858 13.8711 13.7153 13.8711Z" fill="#D3B155"/>
<path d="M4.3899 20.3215C2.89139 18.4002 2 15.9917 2 13.3773C2 7.09375 7.14871 2 13.5 2C19.8513 2 25 7.09375 25 13.3773C25 15.9917 24.1086 18.4002 22.6101 20.3215" stroke="white" stroke-width="2.2" stroke-linecap="round" stroke-linejoin="round"/>
<path d="M7.37695 16.3326C6.61581 15.1905 6.17285 13.8226 6.17285 12.3524C6.17285 8.35379 9.44931 5.1123 13.491 5.1123C17.5328 5.1123 20.8092 8.35379 20.8092 12.3524C20.8092 13.8226 20.3663 15.1905 19.6051 16.3326" stroke="#D3B155" stroke-width="2.2" stroke-linecap="round" stroke-linejoin="round"/>
</svg>
