<svg width="44" height="35" viewBox="0 0 44 35" fill="none" xmlns="http://www.w3.org/2000/svg">
<path d="M30.1958 27.9563C31.948 25.8499 33.1667 23.3527 33.7487 20.6762C34.3308 17.9996 34.2591 15.2223 33.5397 12.5793C32.8203 9.93629 31.4744 7.50526 29.6159 5.49188C27.7573 3.47851 25.4408 1.94201 22.8622 1.01238C20.2837 0.0827407 17.519 -0.212686 14.802 0.151088C12.085 0.514862 9.49569 1.52714 7.25305 3.10227C5.01041 4.67741 3.18045 6.76908 1.91796 9.20033C0.655475 11.6316 -0.00239453 14.3309 6.54897e-06 17.0699C0.000927924 21.0517 1.40523 24.9059 3.9665 27.9563L3.9421 27.977C4.0275 28.0794 4.12511 28.1672 4.21295 28.2684C4.32276 28.394 4.44111 28.5122 4.55458 28.6341C4.8962 29.0047 5.24758 29.3607 5.61605 29.6947C5.7283 29.7971 5.8442 29.8922 5.95767 29.9897C6.3481 30.3262 6.74951 30.6456 7.16556 30.9431C7.21924 30.9796 7.26804 31.0272 7.32173 31.065V31.0503C10.1793 33.0596 13.5882 34.1379 17.0824 34.1379C20.5766 34.1379 23.9855 33.0596 26.8431 31.0503V31.065C26.8967 31.0272 26.9443 30.9796 26.9992 30.9431C27.4141 30.6444 27.8167 30.3262 28.2071 29.9897C28.3206 29.8922 28.4365 29.7959 28.5487 29.6947C28.9172 29.3595 29.2686 29.0047 29.6102 28.6341C29.7237 28.5122 29.8408 28.394 29.9518 28.2684C30.0385 28.1672 30.1373 28.0794 30.2227 27.9758L30.1958 27.9563ZM17.0812 7.31725C18.1671 7.31725 19.2286 7.63899 20.1315 8.24178C21.0343 8.84458 21.7381 9.70135 22.1536 10.7038C22.5692 11.7062 22.6779 12.8092 22.4661 13.8734C22.2542 14.9375 21.7313 15.915 20.9635 16.6822C20.1956 17.4494 19.2173 17.9719 18.1523 18.1836C17.0873 18.3953 15.9833 18.2866 14.9801 17.8714C13.9769 17.4562 13.1194 16.753 12.5161 15.8509C11.9128 14.9488 11.5908 13.8881 11.5908 12.8031C11.5908 11.3482 12.1692 9.95282 13.1989 8.92402C14.2285 7.89522 15.625 7.31725 17.0812 7.31725ZM7.32905 27.9563C7.35021 26.3556 8.00125 24.8276 9.14131 23.7029C10.2814 22.5781 11.8188 21.9471 13.4209 21.9462H20.7414C22.3436 21.9471 23.881 22.5781 25.021 23.7029C26.1611 24.8276 26.8121 26.3556 26.8333 27.9563C24.1575 30.3656 20.6832 31.699 17.0812 31.699C13.4792 31.699 10.0049 30.3656 7.32905 27.9563Z" fill="white"/>
<path d="M35.6543 25.0342L39.8267 29.5859L43.9991 25.0342H35.6543Z" fill="white"/>
</svg>
