<svg width="39" height="41" viewBox="0 0 39 41" fill="none" xmlns="http://www.w3.org/2000/svg">
<rect x="2" width="35" height="35" rx="5" fill="#C5E1FF"/>
<g filter="url(#filter0_d_51_82)">
<rect x="4.625" y="2.625" width="29.75" height="29.75" rx="5" fill="white"/>
</g>
<path d="M27.505 8.75H15.5664C15.4686 8.74991 15.3717 8.77058 15.2812 8.81082C15.1908 8.85105 15.1086 8.91008 15.0394 8.98451C14.9702 9.05895 14.9152 9.14735 14.8777 9.24465C14.8402 9.34196 14.8208 9.44627 14.8207 9.55163V13.125L21.7391 15.3125L28.2513 13.125V9.55163C28.2512 9.44621 28.2318 9.34185 28.1942 9.2445C28.1567 9.14715 28.1017 9.05872 28.0324 8.98428C27.9631 8.90983 27.8808 8.85082 27.7903 8.81062C27.6998 8.77042 27.6029 8.74982 27.505 8.75Z" fill="#41A5EE"/>
<path d="M28.2513 13.1248H14.8207V17.4997L21.7391 18.8122L28.2513 17.4997V13.1248Z" fill="#2B7CD3"/>
<path d="M14.8207 17.5V21.875L21.3322 22.75L28.2513 21.875V17.5H14.8207Z" fill="#185ABD"/>
<path d="M15.5664 26.25H27.5044C27.6023 26.2502 27.6993 26.2297 27.7899 26.1895C27.8805 26.1494 27.9628 26.0904 28.0322 26.0159C28.1015 25.9415 28.1566 25.853 28.1942 25.7556C28.2318 25.6582 28.2512 25.5538 28.2513 25.4483V21.875H14.8207V25.4483C14.8208 25.5537 14.8402 25.658 14.8777 25.7553C14.9152 25.8526 14.9702 25.941 15.0394 26.0155C15.1086 26.0899 15.1908 26.1489 15.2812 26.1892C15.3717 26.2294 15.4686 26.2501 15.5664 26.25Z" fill="#103F91"/>
<path opacity="0.1" d="M19.7722 12.2501H14.8207V23.1875H19.7722C19.9695 23.1864 20.1584 23.1017 20.2981 22.9517C20.4378 22.8016 20.517 22.5983 20.5185 22.3859V13.0517C20.517 12.8392 20.4378 12.6359 20.2981 12.4859C20.1584 12.3359 19.9695 12.2511 19.7722 12.2501Z" fill="black"/>
<path opacity="0.2" d="M19.3653 12.6877H14.8207V23.6251H19.3653C19.5626 23.6241 19.7516 23.5393 19.8912 23.3893C20.0309 23.2392 20.1101 23.0359 20.1116 22.8235V13.4893C20.1101 13.2768 20.0309 13.0736 19.8912 12.9235C19.7516 12.7735 19.5626 12.6887 19.3653 12.6877Z" fill="black"/>
<path opacity="0.2" d="M19.3653 12.6877H14.8207V22.7501H19.3653C19.5626 22.7491 19.7516 22.6643 19.8912 22.5143C20.0309 22.3642 20.1101 22.161 20.1116 21.9485V13.4893C20.1101 13.2768 20.0309 13.0736 19.8912 12.9235C19.7516 12.7735 19.5626 12.6887 19.3653 12.6877Z" fill="black"/>
<path opacity="0.2" d="M18.9584 12.6877H14.8207V22.7501H18.9584C19.1557 22.7491 19.3447 22.6643 19.4844 22.5143C19.624 22.3642 19.7032 22.161 19.7047 21.9485V13.4893C19.7032 13.2768 19.624 13.0736 19.4844 12.9235C19.3447 12.7735 19.1557 12.6887 18.9584 12.6877Z" fill="black"/>
<path d="M11.4963 12.6876H18.9578C19.1555 12.6874 19.3451 12.7718 19.485 12.9221C19.625 13.0724 19.7038 13.2764 19.7041 13.4893V21.5109C19.7038 21.7238 19.625 21.9278 19.485 22.0781C19.3451 22.2284 19.1555 22.3127 18.9578 22.3126H11.4963C11.3984 22.3127 11.3014 22.2921 11.2109 22.2519C11.1204 22.2117 11.0382 22.1527 10.9689 22.0783C10.8996 22.0038 10.8446 21.9154 10.807 21.8181C10.7695 21.7207 10.7501 21.6163 10.75 21.5109V13.4893C10.7501 13.3838 10.7695 13.2795 10.807 13.1821C10.8446 13.0848 10.8996 12.9963 10.9689 12.9219C11.0382 12.8475 11.1204 12.7884 11.2109 12.7482C11.3014 12.708 11.3984 12.6874 11.4963 12.6876Z" fill="url(#paint0_linear_51_82)"/>
<path d="M13.8127 18.8379C13.8271 18.9617 13.8371 19.0694 13.8415 19.1616H13.859C13.8652 19.0741 13.879 18.9685 13.8996 18.8453C13.9202 18.7221 13.9383 18.6178 13.9552 18.5323L14.7396 14.893H15.7547L16.5672 18.4778C16.6145 18.6995 16.6483 18.9244 16.6684 19.1509H16.6822C16.6971 18.9304 16.7253 18.7112 16.7666 18.4946L17.416 14.8883H18.3391L17.1991 20.1033H16.1197L15.3465 16.6531C15.324 16.5535 15.2986 16.4238 15.2703 16.2641C15.2419 16.1043 15.2244 15.9877 15.2178 15.9141H15.2046C15.1959 15.9989 15.1784 16.1247 15.1521 16.2917C15.1259 16.4593 15.1053 16.5824 15.0896 16.6632L14.3627 20.1053H13.2652L12.1189 14.893H13.0564L13.7633 18.5397C13.7844 18.6382 13.8009 18.7377 13.8127 18.8379Z" fill="white"/>
<defs>
<filter id="filter0_d_51_82" x="0.625" y="2.625" width="37.75" height="37.75" filterUnits="userSpaceOnUse" color-interpolation-filters="sRGB">
<feFlood flood-opacity="0" result="BackgroundImageFix"/>
<feColorMatrix in="SourceAlpha" type="matrix" values="0 0 0 0 0 0 0 0 0 0 0 0 0 0 0 0 0 0 127 0" result="hardAlpha"/>
<feOffset dy="4"/>
<feGaussianBlur stdDeviation="2"/>
<feComposite in2="hardAlpha" operator="out"/>
<feColorMatrix type="matrix" values="0 0 0 0 0 0 0 0 0 0 0 0 0 0 0 0 0 0 0.25 0"/>
<feBlend mode="normal" in2="BackgroundImageFix" result="effect1_dropShadow_51_82"/>
<feBlend mode="normal" in="SourceGraphic" in2="effect1_dropShadow_51_82" result="shape"/>
</filter>
<linearGradient id="paint0_linear_51_82" x1="12.3088" y1="12.0576" x2="18.8173" y2="22.5247" gradientUnits="userSpaceOnUse">
<stop stop-color="#2368C4"/>
<stop offset="0.5" stop-color="#1A5DBE"/>
<stop offset="1" stop-color="#1146AC"/>
</linearGradient>
</defs>
</svg>
